<?xml version="1.0" encoding="us-ascii" standalone="no"?><svg xmlns="http://www.w3.org/2000/svg" xmlns:xlink="http://www.w3.org/1999/xlink" contentStyleType="text/css" height="507px" preserveAspectRatio="none" style="width:867px;height:507px;background:#FFFFFF;" version="1.1" viewBox="0 0 867 507" width="867px" zoomAndPan="magnify"><defs/><g><!--cluster Chatbot-System--><g id="cluster_Chatbot-System"><path d="M8.5,6 L141.5,6 A3.75,3.75 0 0 1 144,8.5 L151,28.2969 L301.5,28.2969 A2.5,2.5 0 0 1 304,30.7969 L304,497.5 A2.5,2.5 0 0 1 301.5,500 L8.5,500 A2.5,2.5 0 0 1 6,497.5 L6,8.5 A2.5,2.5 0 0 1 8.5,6 " fill="none" style="stroke:#000000;stroke-width:1.5;"/><line style="stroke:#000000;stroke-width:1.5;" x1="6" x2="151" y1="28.2969" y2="28.2969"/><text fill="#000000" font-family="sans-serif" font-size="14" font-weight="bold" lengthAdjust="spacing" textLength="132" x="10" y="20.9951">Chatbot-System</text></g><!--cluster External APIs--><g id="cluster_External APIs"><polygon fill="none" points="328,160,338,150,850,150,850,242,840,252,328,252,328,160" style="stroke:#181818;stroke-width:1.0;"/><line style="stroke:#181818;stroke-width:1.0;" x1="840" x2="850" y1="160" y2="150"/><line style="stroke:#181818;stroke-width:1.0;" x1="328" x2="840" y1="160" y2="160"/><line style="stroke:#181818;stroke-width:1.0;" x1="840" x2="840" y1="160" y2="252"/><text fill="#000000" font-family="sans-serif" font-size="14" font-weight="bold" lengthAdjust="spacing" textLength="107" x="531.5" y="175.9951">External APIs</text></g><!--entity Chatbot Application--><g id="elem_Chatbot Application"><rect fill="#F1F1F1" height="46.2969" rx="2.5" ry="2.5" style="stroke:#181818;stroke-width:0.5;" width="187" x="100.5" y="41"/><rect fill="#F1F1F1" height="10" style="stroke:#181818;stroke-width:0.5;" width="15" x="267.5" y="46"/><rect fill="#F1F1F1" height="2" style="stroke:#181818;stroke-width:0.5;" width="4" x="265.5" y="48"/><rect fill="#F1F1F1" height="2" style="stroke:#181818;stroke-width:0.5;" width="4" x="265.5" y="52"/><text fill="#000000" font-family="sans-serif" font-size="14" lengthAdjust="spacing" textLength="147" x="115.5" y="73.9951">Chatbot Application</text></g><!--entity Java HTTP Library--><g id="elem_Java HTTP Library"><rect fill="#F1F1F1" height="46.2969" rx="2.5" ry="2.5" style="stroke:#181818;stroke-width:0.5;" width="163" x="22.5" y="190"/><rect fill="#F1F1F1" height="10" style="stroke:#181818;stroke-width:0.5;" width="15" x="165.5" y="195"/><rect fill="#F1F1F1" height="2" style="stroke:#181818;stroke-width:0.5;" width="4" x="163.5" y="197"/><rect fill="#F1F1F1" height="2" style="stroke:#181818;stroke-width:0.5;" width="4" x="163.5" y="201"/><text fill="#000000" font-family="sans-serif" font-size="14" lengthAdjust="spacing" textLength="123" x="37.5" y="222.9951">Java HTTP Library</text></g><!--entity Hibernate--><g id="elem_Hibernate"><rect fill="#F1F1F1" height="46.2969" rx="2.5" ry="2.5" style="stroke:#181818;stroke-width:0.5;" width="112" x="137" y="315"/><rect fill="#F1F1F1" height="10" style="stroke:#181818;stroke-width:0.5;" width="15" x="229" y="320"/><rect fill="#F1F1F1" height="2" style="stroke:#181818;stroke-width:0.5;" width="4" x="227" y="322"/><rect fill="#F1F1F1" height="2" style="stroke:#181818;stroke-width:0.5;" width="4" x="227" y="326"/><text fill="#000000" font-family="sans-serif" font-size="14" lengthAdjust="spacing" textLength="72" x="152" y="347.9951">Hibernate</text></g><!--entity H2 Database--><g id="elem_H2 Database"><rect fill="#F1F1F1" height="46.2969" rx="2.5" ry="2.5" style="stroke:#181818;stroke-width:0.5;" width="130" x="128" y="438"/><rect fill="#F1F1F1" height="10" style="stroke:#181818;stroke-width:0.5;" width="15" x="238" y="443"/><rect fill="#F1F1F1" height="2" style="stroke:#181818;stroke-width:0.5;" width="4" x="236" y="445"/><rect fill="#F1F1F1" height="2" style="stroke:#181818;stroke-width:0.5;" width="4" x="236" y="449"/><text fill="#000000" font-family="sans-serif" font-size="14" lengthAdjust="spacing" textLength="90" x="143" y="470.9951">H2 Database</text></g><!--entity Wikipedia API--><g id="elem_Wikipedia API"><rect fill="#F1F1F1" height="46.2969" rx="2.5" ry="2.5" style="stroke:#181818;stroke-width:0.5;" width="138" x="344" y="190"/><rect fill="#F1F1F1" height="10" style="stroke:#181818;stroke-width:0.5;" width="15" x="462" y="195"/><rect fill="#F1F1F1" height="2" style="stroke:#181818;stroke-width:0.5;" width="4" x="460" y="197"/><rect fill="#F1F1F1" height="2" style="stroke:#181818;stroke-width:0.5;" width="4" x="460" y="201"/><text fill="#000000" font-family="sans-serif" font-size="14" lengthAdjust="spacing" textLength="98" x="359" y="222.9951">Wikipedia API</text></g><!--entity OpenWeather API--><g id="elem_OpenWeather API"><rect fill="#F1F1F1" height="46.2969" rx="2.5" ry="2.5" style="stroke:#181818;stroke-width:0.5;" width="168" x="517" y="190"/><rect fill="#F1F1F1" height="10" style="stroke:#181818;stroke-width:0.5;" width="15" x="665" y="195"/><rect fill="#F1F1F1" height="2" style="stroke:#181818;stroke-width:0.5;" width="4" x="663" y="197"/><rect fill="#F1F1F1" height="2" style="stroke:#181818;stroke-width:0.5;" width="4" x="663" y="201"/><text fill="#000000" font-family="sans-serif" font-size="14" lengthAdjust="spacing" textLength="128" x="532" y="222.9951">OpenWeather API</text></g><!--entity DeepL API--><g id="elem_DeepL API"><rect fill="#F1F1F1" height="46.2969" rx="2.5" ry="2.5" style="stroke:#181818;stroke-width:0.5;" width="114" x="720" y="190"/><rect fill="#F1F1F1" height="10" style="stroke:#181818;stroke-width:0.5;" width="15" x="814" y="195"/><rect fill="#F1F1F1" height="2" style="stroke:#181818;stroke-width:0.5;" width="4" x="812" y="197"/><rect fill="#F1F1F1" height="2" style="stroke:#181818;stroke-width:0.5;" width="4" x="812" y="201"/><text fill="#000000" font-family="sans-serif" font-size="14" lengthAdjust="spacing" textLength="74" x="735" y="222.9951">DeepL API</text></g><!--link Chatbot Application to Java HTTP Library--><g id="link_Chatbot Application_Java HTTP Library"><path d="M180.526,87.007 C163.559,114.72 137.7089,156.9419 120.6989,184.7249 " fill="none" id="Chatbot Application-to-Java HTTP Library" style="stroke:#181818;stroke-width:1.0;stroke-dasharray:7.0,7.0;"/><polygon fill="#181818" points="117.566,189.842,125.6768,184.255,120.1768,185.5777,118.854,180.0777,117.566,189.842" style="stroke:#181818;stroke-width:1.0;"/><text fill="#000000" font-family="sans-serif" font-size="13" lengthAdjust="spacing" textLength="30" x="161" y="130.0669">uses</text></g><!--link Java HTTP Library to Hibernate--><g id="link_Java HTTP Library_Hibernate"><path d="M120.117,236.274 C136.247,258.566 157.3976,287.7971 173.4856,310.0301 " fill="none" id="Java HTTP Library-to-Hibernate" style="stroke:#181818;stroke-width:1.0;stroke-dasharray:7.0,7.0;"/><polygon fill="#181818" points="177.003,314.891,174.9675,305.2548,174.0719,310.8403,168.4864,309.9446,177.003,314.891" style="stroke:#181818;stroke-width:1.0;"/><text fill="#000000" font-family="sans-serif" font-size="13" lengthAdjust="spacing" textLength="30" x="155" y="281.0669">uses</text></g><!--link Hibernate to H2 Database--><g id="link_Hibernate_H2 Database"><path d="M193,361.193 C193,383.026 193,410.1639 193,431.9474 " fill="none" id="Hibernate-to-H2 Database" style="stroke:#181818;stroke-width:1.0;stroke-dasharray:7.0,7.0;"/><polygon fill="#181818" points="193,437.9474,197,428.9474,193,432.9474,189,428.9474,193,437.9474" style="stroke:#181818;stroke-width:1.0;"/><text fill="#000000" font-family="sans-serif" font-size="13" lengthAdjust="spacing" textLength="53" x="194" y="404.0669">maps to</text></g><!--link Chatbot Application to Hibernate--><g id="link_Chatbot Application_Hibernate"><path d="M197.285,87.179 C199.389,102.531 201.92,123.458 203,142 C206.049,194.356 206.384,207.665 203,260 C201.8,278.564 199.8903,293.5574 197.5533,308.9034 " fill="none" id="Chatbot Application-to-Hibernate" style="stroke:#181818;stroke-width:1.0;stroke-dasharray:7.0,7.0;"/><polygon fill="#181818" points="196.65,314.835,201.9594,306.5398,197.4028,309.892,194.0506,305.3354,196.65,314.835" style="stroke:#181818;stroke-width:1.0;"/><text fill="#000000" font-family="sans-serif" font-size="13" lengthAdjust="spacing" textLength="30" x="207" y="217.5669">uses</text></g><!--link Chatbot Application to Wikipedia API--><g id="link_Chatbot Application_Wikipedia API"><path d="M226.787,87.007 C268.072,114.72 333.6162,158.7151 375.0072,186.4981 " fill="none" id="Chatbot Application-to-Wikipedia API" style="stroke:#181818;stroke-width:1.0;stroke-dasharray:7.0,7.0;"/><polygon fill="#181818" points="379.989,189.842,374.7456,181.5049,375.8375,187.0554,370.287,188.1473,379.989,189.842" style="stroke:#181818;stroke-width:1.0;"/><text fill="#000000" font-family="sans-serif" font-size="13" lengthAdjust="spacing" textLength="56" x="292" y="130.0669">requests</text></g><!--link Chatbot Application to OpenWeather API--><g id="link_Chatbot Application_OpenWeather API"><path d="M287.617,79.523 C349.742,91.315 432.04,111.137 500,142 C527.389,154.439 550.5422,170.6864 570.0432,186.1204 " fill="none" id="Chatbot Application-to-OpenWeather API" style="stroke:#181818;stroke-width:1.0;stroke-dasharray:7.0,7.0;"/><polygon fill="#181818" points="574.748,189.844,570.1732,181.1221,570.8274,186.741,565.2084,187.3951,574.748,189.844" style="stroke:#181818;stroke-width:1.0;"/><text fill="#000000" font-family="sans-serif" font-size="13" lengthAdjust="spacing" textLength="56" x="477" y="130.0669">requests</text></g><!--link Chatbot Application to DeepL API--><g id="link_Chatbot Application_DeepL API"><path d="M287.606,72.384 C414.01,83.502 631.68,107.033 703,142 C725.865,153.21 742.5346,169.3868 756.1446,185.3948 " fill="none" id="Chatbot Application-to-DeepL API" style="stroke:#181818;stroke-width:1.0;stroke-dasharray:7.0,7.0;"/><polygon fill="#181818" points="760.031,189.966,757.2488,180.5183,756.7923,186.1567,751.1539,185.7002,760.031,189.966" style="stroke:#181818;stroke-width:1.0;"/><text fill="#000000" font-family="sans-serif" font-size="13" lengthAdjust="spacing" textLength="56" x="682" y="130.0669">requests</text></g><!--SRC=[ZOz1Jy9048Nl-oi6Jfee1uyUJ5RQ2APH8aqua1wcxGWRokwwCnY9yR_RKeX53RgdtM_UU_kcLzApiGHFyJ3L3tT934M5pAgtvv5EzQsUnd0MeM2EJ1U7oxXmzXm25O9sKP5I7eiLBWZwmoLAxkHokcMXTH_UbOBwpFSSjFULAL2CinaC1ZSmlyTNX56QJY0nUS2mpU0QDapS6dyPxsmZarEmA7Gix-1MTWM7qermZPv1t5-TVeP_A6LTMIyOlqapga1FnjpijukQcPNnL1fiSDQoHqzsHYXB2XqQ4VcaVTUP9peSHzOz0hriY8LFcRx_-K_RLwcEuHC0]--></g></svg>