<?xml version="1.0" encoding="us-ascii" standalone="no"?><svg xmlns="http://www.w3.org/2000/svg" xmlns:xlink="http://www.w3.org/1999/xlink" contentStyleType="text/css" height="745px" preserveAspectRatio="none" style="width:2909px;height:745px;background:#FFFFFF;" version="1.1" viewBox="0 0 2909 745" width="2909px" zoomAndPan="magnify"><defs/><g><!--class Chatbot--><g id="elem_Chatbot"><rect codeLine="1" fill="#F1F1F1" height="145.7813" id="Chatbot" rx="2.5" ry="2.5" style="stroke:#181818;stroke-width:0.5;" width="516" x="1154.5" y="7"/><ellipse cx="1380.25" cy="23" fill="#B4A7E5" rx="11" ry="11" style="stroke:#181818;stroke-width:1.0;"/><path d="M1381.2031,19.7813 L1382.9219,19.7813 C1383.3125,19.7813 1383.5,19.75 1383.625,19.6719 C1383.8906,19.5156 1384.0313,19.2344 1384.0313,18.9375 C1384.0313,18.6719 1383.9219,18.4063 1383.6875,18.2344 C1383.5156,18.125 1383.375,18.0938 1382.9219,18.0938 L1377.7813,18.0938 C1377.3438,18.0938 1377.2188,18.1094 1377.0625,18.2031 C1376.8125,18.3594 1376.6563,18.6563 1376.6563,18.9375 C1376.6563,19.2188 1376.7969,19.4688 1377.0156,19.6406 C1377.1719,19.75 1377.3594,19.7813 1377.7813,19.7813 L1379.5,19.7813 L1379.5,26.2969 L1377.7813,26.2969 C1377.3438,26.2969 1377.2188,26.3125 1377.0625,26.4219 C1376.8125,26.5781 1376.6563,26.8594 1376.6563,27.1563 C1376.6563,27.4063 1376.7969,27.6719 1377.0156,27.8281 C1377.1719,27.9531 1377.375,28 1377.7813,28 L1382.9219,28 C1383.6719,28 1384.0313,27.7188 1384.0313,27.1563 C1384.0313,26.875 1383.9219,26.625 1383.6875,26.4531 C1383.5156,26.3281 1383.375,26.2969 1382.9219,26.2969 L1381.2031,26.2969 L1381.2031,19.7813 Z " fill="#000000"/><text fill="#000000" font-family="sans-serif" font-size="14" font-style="italic" lengthAdjust="spacing" textLength="56" x="1400.75" y="27.8467">Chatbot</text><line style="stroke:#181818;stroke-width:0.5;" x1="1155.5" x2="1669.5" y1="39" y2="39"/><line style="stroke:#181818;stroke-width:0.5;" x1="1155.5" x2="1669.5" y1="47" y2="47"/><ellipse cx="1165.5" cy="60.6484" fill="#84BE84" rx="3" ry="3" style="stroke:#038048;stroke-width:1.0;"/><text fill="#000000" font-family="sans-serif" font-size="14" lengthAdjust="spacing" textLength="133" x="1174.5" y="63.9951">getName() : String</text><ellipse cx="1165.5" cy="76.9453" fill="#84BE84" rx="3" ry="3" style="stroke:#038048;stroke-width:1.0;"/><text fill="#000000" font-family="sans-serif" font-size="14" lengthAdjust="spacing" textLength="312" x="1174.5" y="80.292">isEnabled() : CompletableFuture&lt;Boolean&gt;</text><ellipse cx="1165.5" cy="93.2422" fill="#84BE84" rx="3" ry="3" style="stroke:#038048;stroke-width:1.0;"/><text fill="#000000" font-family="sans-serif" font-size="14" lengthAdjust="spacing" textLength="259" x="1174.5" y="96.5889">setEnabled(enabled: boolean) : void</text><ellipse cx="1165.5" cy="109.5391" fill="#84BE84" rx="3" ry="3" style="stroke:#038048;stroke-width:1.0;"/><text fill="#000000" font-family="sans-serif" font-size="14" lengthAdjust="spacing" textLength="337" x="1174.5" y="112.8857">onExecute(sender: User, rawText: String) : void</text><ellipse cx="1165.5" cy="125.8359" fill="#84BE84" rx="3" ry="3" style="stroke:#038048;stroke-width:1.0;"/><text fill="#000000" font-family="sans-serif" font-size="14" lengthAdjust="spacing" textLength="330" x="1174.5" y="129.1826">sendMessageOnBehalf(message: String) : void</text><ellipse cx="1165.5" cy="142.1328" fill="#84BE84" rx="3" ry="3" style="stroke:#038048;stroke-width:1.0;"/><text fill="#000000" font-family="sans-serif" font-size="14" lengthAdjust="spacing" textLength="490" x="1174.5" y="145.4795">sendMessageOnBehalf(message: String, askForInput: boolean) : void</text></g><!--class AppChatbot--><g id="elem_AppChatbot"><rect codeLine="10" fill="#F1F1F1" height="194.6719" id="AppChatbot" rx="2.5" ry="2.5" style="stroke:#181818;stroke-width:0.5;" width="1464" x="680.5" y="354"/><ellipse cx="1366.25" cy="370" fill="#A9DCDF" rx="11" ry="11" style="stroke:#181818;stroke-width:1.0;"/><path d="M1368.3281,371.8125 L1368.7188,372.7969 L1368.3281,372.7969 C1367.875,372.7969 1367.7656,372.8125 1367.6094,372.9219 C1367.3594,373.0781 1367.2031,373.3594 1367.2031,373.6563 C1367.2031,373.9219 1367.3438,374.1719 1367.5625,374.3281 C1367.7031,374.4531 1367.9063,374.5 1368.3281,374.5 L1370.6875,374.5 C1371.0469,374.5 1371.2656,374.4688 1371.4063,374.375 C1371.6563,374.2344 1371.8125,373.9375 1371.8125,373.6563 C1371.8125,373.375 1371.6719,373.125 1371.4531,372.9688 C1371.2813,372.8281 1371.125,372.7969 1370.6563,372.7969 L1367.2656,364.5938 L1363.5938,364.5938 C1363.1406,364.5938 1363.0156,364.6094 1362.8594,364.7031 C1362.6094,364.875 1362.4531,365.1563 1362.4531,365.4375 C1362.4531,365.7188 1362.5938,365.9688 1362.8125,366.1406 C1362.9844,366.25 1363.1563,366.2813 1363.5938,366.2813 L1364.6719,366.2813 L1362.0313,372.7969 C1361.6094,372.7969 1361.4531,372.8125 1361.2969,372.9219 C1361.0469,373.0781 1360.8906,373.3594 1360.8906,373.6563 C1360.8906,374.2188 1361.2656,374.5 1362.0156,374.5 L1364.2813,374.5 C1364.6406,374.5 1364.8594,374.4688 1364.9844,374.375 C1365.25,374.2344 1365.3906,373.9375 1365.3906,373.6563 C1365.3906,373.375 1365.2656,373.125 1365.0469,372.9531 C1364.875,372.8281 1364.7344,372.7969 1364.2813,372.7969 L1363.8906,372.7969 L1364.2813,371.8125 L1368.3281,371.8125 Z M1367.625,370.1094 L1364.9531,370.1094 L1366.2969,366.8438 L1367.625,370.1094 Z " fill="#000000"/><text fill="#000000" font-family="sans-serif" font-size="14" font-style="italic" lengthAdjust="spacing" textLength="84" x="1386.75" y="374.8467">AppChatbot</text><line style="stroke:#181818;stroke-width:0.5;" x1="681.5" x2="2143.5" y1="386" y2="386"/><line style="stroke:#181818;stroke-width:0.5;" x1="681.5" x2="2143.5" y1="394" y2="394"/><ellipse cx="691.5" cy="407.6484" fill="#84BE84" rx="3" ry="3" style="stroke:#038048;stroke-width:1.0;"/><text fill="#000000" font-family="sans-serif" font-size="14" lengthAdjust="spacing" textLength="1438" x="700.5" y="410.9951">AppChatbot(printer: ConsolePrinter, name: String, userManager: UserManager, chatMessageDatabaseManager: AppChatMessageDatabaseManager, databaseManager: ChatbotEntityDatabaseManager)</text><rect fill="#F24D5C" height="6" style="stroke:#C82930;stroke-width:1.0;" width="6" x="688.5" y="420.9453"/><text fill="#000000" font-family="sans-serif" font-size="14" lengthAdjust="spacing" textLength="184" x="700.5" y="427.292">sendErrorMessage() : void</text><ellipse cx="691.5" cy="440.2422" fill="#84BE84" rx="3" ry="3" style="stroke:#038048;stroke-width:1.0;"/><text fill="#000000" font-family="sans-serif" font-size="14" lengthAdjust="spacing" textLength="133" x="700.5" y="443.5889">getName() : String</text><ellipse cx="691.5" cy="456.5391" fill="#84BE84" rx="3" ry="3" style="stroke:#038048;stroke-width:1.0;"/><text fill="#000000" font-family="sans-serif" font-size="14" lengthAdjust="spacing" textLength="312" x="700.5" y="459.8857">isEnabled() : CompletableFuture&lt;Boolean&gt;</text><ellipse cx="691.5" cy="472.8359" fill="#84BE84" rx="3" ry="3" style="stroke:#038048;stroke-width:1.0;"/><text fill="#000000" font-family="sans-serif" font-size="14" lengthAdjust="spacing" textLength="259" x="700.5" y="476.1826">setEnabled(enabled: boolean) : void</text><ellipse cx="691.5" cy="489.1328" fill="#84BE84" rx="3" ry="3" style="stroke:#038048;stroke-width:1.0;"/><text fill="#000000" font-family="sans-serif" font-size="14" lengthAdjust="spacing" textLength="330" x="700.5" y="492.4795">sendMessageOnBehalf(message: String) : void</text><ellipse cx="691.5" cy="505.4297" fill="#84BE84" rx="3" ry="3" style="stroke:#038048;stroke-width:1.0;"/><text fill="#000000" font-family="sans-serif" font-size="14" lengthAdjust="spacing" textLength="490" x="700.5" y="508.7764">sendMessageOnBehalf(message: String, askForInput: boolean) : void</text><polygon fill="#FFFF44" points="691.5,516.7266,695.5,520.7266,691.5,524.7266,687.5,520.7266" style="stroke:#B38D22;stroke-width:1.0;"/><text fill="#000000" font-family="sans-serif" font-size="14" lengthAdjust="spacing" textLength="319" x="700.5" y="525.0732">load() : CompletableFuture&lt;ChatbotEntity&gt;</text><ellipse cx="691.5" cy="538.0234" fill="#84BE84" rx="3" ry="3" style="stroke:#038048;stroke-width:1.0;"/><text fill="#000000" font-family="sans-serif" font-size="14" lengthAdjust="spacing" textLength="337" x="700.5" y="541.3701">onExecute(sender: User, rawText: String) : void</text></g><!--class AppWeatherChatbot--><g id="elem_AppWeatherChatbot"><rect codeLine="22" fill="#F1F1F1" height="113.1875" id="AppWeatherChatbot" rx="2.5" ry="2.5" style="stroke:#181818;stroke-width:0.5;" width="893" x="7" y="617"/><ellipse cx="373.25" cy="633" fill="#ADD1B2" rx="11" ry="11" style="stroke:#181818;stroke-width:1.0;"/><path d="M375.5938,628.6719 C374.6563,628.2344 374.0625,628.0938 373.1875,628.0938 C370.5625,628.0938 368.5625,630.1719 368.5625,632.8906 L368.5625,634.0156 C368.5625,636.5938 370.6719,638.4844 373.5625,638.4844 C374.7813,638.4844 375.9375,638.1875 376.6875,637.6406 C377.2656,637.2344 377.5938,636.7813 377.5938,636.3906 C377.5938,635.9375 377.2031,635.5469 376.7344,635.5469 C376.5156,635.5469 376.3125,635.625 376.125,635.8125 C375.6719,636.2969 375.6719,636.2969 375.4844,636.3906 C375.0625,636.6563 374.375,636.7813 373.6094,636.7813 C371.5625,636.7813 370.2656,635.6875 370.2656,633.9844 L370.2656,632.8906 C370.2656,631.1094 371.5156,629.7969 373.25,629.7969 C373.8281,629.7969 374.4375,629.9531 374.9063,630.2031 C375.3906,630.4844 375.5625,630.7031 375.6563,631.1094 C375.7188,631.5156 375.75,631.6406 375.8906,631.7656 C376.0313,631.9063 376.2656,632.0156 376.4844,632.0156 C376.75,632.0156 377.0156,631.875 377.1875,631.6563 C377.2969,631.5 377.3281,631.3125 377.3281,630.8906 L377.3281,629.4688 C377.3281,629.0313 377.3125,628.9063 377.2188,628.75 C377.0625,628.4844 376.7813,628.3438 376.4844,628.3438 C376.1875,628.3438 375.9844,628.4375 375.7656,628.75 L375.5938,628.6719 Z " fill="#000000"/><text fill="#000000" font-family="sans-serif" font-size="14" lengthAdjust="spacing" textLength="152" x="393.75" y="637.8467">AppWeatherChatbot</text><line style="stroke:#181818;stroke-width:0.5;" x1="8" x2="899" y1="649" y2="649"/><text fill="#000000" font-family="sans-serif" font-size="14" lengthAdjust="spacing" textLength="651" x="13" y="665.9951">credentials: Credentials, printer: ConsolePrinter, name: String, userManager: UserManager,</text><line style="stroke:#181818;stroke-width:0.5;" x1="8" x2="899" y1="673.2969" y2="673.2969"/><ellipse cx="18" cy="686.9453" fill="#84BE84" rx="3" ry="3" style="stroke:#038048;stroke-width:1.0;"/><text fill="#000000" font-family="sans-serif" font-size="14" lengthAdjust="spacing" textLength="528" x="27" y="690.292">AppWeatherChatbot(jsonParser: JsonParser, httpWrapper: HttpWrapper,</text><text fill="#000000" font-family="sans-serif" font-size="14" lengthAdjust="spacing" textLength="867" x="27" y="706.5889">chatMessageDatabaseManager: AppChatMessageDatabaseManager, databaseManager: ChatbotEntityDatabaseManager)</text><ellipse cx="18" cy="719.5391" fill="#84BE84" rx="3" ry="3" style="stroke:#038048;stroke-width:1.0;"/><text fill="#000000" font-family="sans-serif" font-size="14" lengthAdjust="spacing" textLength="337" x="27" y="722.8857">onExecute(sender: User, rawText: String) : void</text></g><!--class AppTranslationChatbot--><g id="elem_AppTranslationChatbot"><rect codeLine="29" fill="#F1F1F1" height="113.1875" id="AppTranslationChatbot" rx="2.5" ry="2.5" style="stroke:#181818;stroke-width:0.5;" width="954" x="935.5" y="617"/><ellipse cx="1323.25" cy="633" fill="#ADD1B2" rx="11" ry="11" style="stroke:#181818;stroke-width:1.0;"/><path d="M1325.5938,628.6719 C1324.6563,628.2344 1324.0625,628.0938 1323.1875,628.0938 C1320.5625,628.0938 1318.5625,630.1719 1318.5625,632.8906 L1318.5625,634.0156 C1318.5625,636.5938 1320.6719,638.4844 1323.5625,638.4844 C1324.7813,638.4844 1325.9375,638.1875 1326.6875,637.6406 C1327.2656,637.2344 1327.5938,636.7813 1327.5938,636.3906 C1327.5938,635.9375 1327.2031,635.5469 1326.7344,635.5469 C1326.5156,635.5469 1326.3125,635.625 1326.125,635.8125 C1325.6719,636.2969 1325.6719,636.2969 1325.4844,636.3906 C1325.0625,636.6563 1324.375,636.7813 1323.6094,636.7813 C1321.5625,636.7813 1320.2656,635.6875 1320.2656,633.9844 L1320.2656,632.8906 C1320.2656,631.1094 1321.5156,629.7969 1323.25,629.7969 C1323.8281,629.7969 1324.4375,629.9531 1324.9063,630.2031 C1325.3906,630.4844 1325.5625,630.7031 1325.6563,631.1094 C1325.7188,631.5156 1325.75,631.6406 1325.8906,631.7656 C1326.0313,631.9063 1326.2656,632.0156 1326.4844,632.0156 C1326.75,632.0156 1327.0156,631.875 1327.1875,631.6563 C1327.2969,631.5 1327.3281,631.3125 1327.3281,630.8906 L1327.3281,629.4688 C1327.3281,629.0313 1327.3125,628.9063 1327.2188,628.75 C1327.0625,628.4844 1326.7813,628.3438 1326.4844,628.3438 C1326.1875,628.3438 1325.9844,628.4375 1325.7656,628.75 L1325.5938,628.6719 Z " fill="#000000"/><text fill="#000000" font-family="sans-serif" font-size="14" lengthAdjust="spacing" textLength="170" x="1343.75" y="637.8467">AppTranslationChatbot</text><line style="stroke:#181818;stroke-width:0.5;" x1="936.5" x2="1888.5" y1="649" y2="649"/><text fill="#000000" font-family="sans-serif" font-size="14" lengthAdjust="spacing" textLength="689" x="941.5" y="665.9951">userManager: UserManager, chatMessageDatabaseManager: AppChatMessageDatabaseManager,</text><line style="stroke:#181818;stroke-width:0.5;" x1="936.5" x2="1888.5" y1="673.2969" y2="673.2969"/><ellipse cx="946.5" cy="686.9453" fill="#84BE84" rx="3" ry="3" style="stroke:#038048;stroke-width:1.0;"/><text fill="#000000" font-family="sans-serif" font-size="14" lengthAdjust="spacing" textLength="447" x="955.5" y="690.292">AppTranslationChatbot(printer: ConsolePrinter, name: String,</text><text fill="#000000" font-family="sans-serif" font-size="14" lengthAdjust="spacing" textLength="928" x="955.5" y="706.5889">jsonParser: JsonParser, httpWrapper: HttpWrapper, credentials: Credentials, databaseManager: ChatbotEntityDatabaseManager)</text><ellipse cx="946.5" cy="719.5391" fill="#84BE84" rx="3" ry="3" style="stroke:#038048;stroke-width:1.0;"/><text fill="#000000" font-family="sans-serif" font-size="14" lengthAdjust="spacing" textLength="337" x="955.5" y="722.8857">onExecute(sender: User, rawText: String) : void</text></g><!--class AppWikiChatbot--><g id="elem_AppWikiChatbot"><rect codeLine="36" fill="#F1F1F1" height="129.4844" id="AppWikiChatbot" rx="2.5" ry="2.5" style="stroke:#181818;stroke-width:0.5;" width="977" x="1925" y="609"/><ellipse cx="2348.75" cy="625" fill="#ADD1B2" rx="11" ry="11" style="stroke:#181818;stroke-width:1.0;"/><path d="M2351.0938,620.6719 C2350.1563,620.2344 2349.5625,620.0938 2348.6875,620.0938 C2346.0625,620.0938 2344.0625,622.1719 2344.0625,624.8906 L2344.0625,626.0156 C2344.0625,628.5938 2346.1719,630.4844 2349.0625,630.4844 C2350.2813,630.4844 2351.4375,630.1875 2352.1875,629.6406 C2352.7656,629.2344 2353.0938,628.7813 2353.0938,628.3906 C2353.0938,627.9375 2352.7031,627.5469 2352.2344,627.5469 C2352.0156,627.5469 2351.8125,627.625 2351.625,627.8125 C2351.1719,628.2969 2351.1719,628.2969 2350.9844,628.3906 C2350.5625,628.6563 2349.875,628.7813 2349.1094,628.7813 C2347.0625,628.7813 2345.7656,627.6875 2345.7656,625.9844 L2345.7656,624.8906 C2345.7656,623.1094 2347.0156,621.7969 2348.75,621.7969 C2349.3281,621.7969 2349.9375,621.9531 2350.4063,622.2031 C2350.8906,622.4844 2351.0625,622.7031 2351.1563,623.1094 C2351.2188,623.5156 2351.25,623.6406 2351.3906,623.7656 C2351.5313,623.9063 2351.7656,624.0156 2351.9844,624.0156 C2352.25,624.0156 2352.5156,623.875 2352.6875,623.6563 C2352.7969,623.5 2352.8281,623.3125 2352.8281,622.8906 L2352.8281,621.4688 C2352.8281,621.0313 2352.8125,620.9063 2352.7188,620.75 C2352.5625,620.4844 2352.2813,620.3438 2351.9844,620.3438 C2351.6875,620.3438 2351.4844,620.4375 2351.2656,620.75 L2351.0938,620.6719 Z " fill="#000000"/><text fill="#000000" font-family="sans-serif" font-size="14" lengthAdjust="spacing" textLength="121" x="2369.25" y="629.8467">AppWikiChatbot</text><line style="stroke:#181818;stroke-width:0.5;" x1="1926" x2="2901" y1="641" y2="641"/><text fill="#000000" font-family="sans-serif" font-size="14" lengthAdjust="spacing" textLength="965" x="1931" y="657.9951">printer: ConsolePrinter, name: String, userManager: UserManager, chatMessageDatabaseManager: AppChatMessageDatabaseManager,</text><line style="stroke:#181818;stroke-width:0.5;" x1="1926" x2="2901" y1="665.2969" y2="665.2969"/><ellipse cx="1936" cy="678.9453" fill="#84BE84" rx="3" ry="3" style="stroke:#038048;stroke-width:1.0;"/><text fill="#000000" font-family="sans-serif" font-size="14" lengthAdjust="spacing" textLength="497" x="1945" y="682.292">AppWikiChatbot(jsonParser: JsonParser, httpWrapper: HttpWrapper,</text><text fill="#000000" font-family="sans-serif" font-size="14" lengthAdjust="spacing" textLength="374" x="1945" y="698.5889">databaseManager: ChatbotEntityDatabaseManager)</text><ellipse cx="1936" cy="711.5391" fill="#84BE84" rx="3" ry="3" style="stroke:#038048;stroke-width:1.0;"/><text fill="#000000" font-family="sans-serif" font-size="14" lengthAdjust="spacing" textLength="337" x="1945" y="714.8857">onExecute(sender: User, rawText: String) : void</text><rect fill="#F24D5C" height="6" style="stroke:#C82930;stroke-width:1.0;" width="6" x="1933" y="724.8359"/><text fill="#000000" font-family="sans-serif" font-size="14" lengthAdjust="spacing" textLength="315" x="1945" y="731.1826">transformKeyword(keyword: String) : String</text></g><!--class ConsoleReaderException--><g id="elem_ConsoleReaderException"><rect codeLine="43" fill="#F1F1F1" height="80.5938" id="ConsoleReaderException" rx="2.5" ry="2.5" style="stroke:#181818;stroke-width:0.5;" width="465" x="1833" y="39.5"/><ellipse cx="1970.75" cy="55.5" fill="#ADD1B2" rx="11" ry="11" style="stroke:#181818;stroke-width:1.0;"/><path d="M1973.0938,51.1719 C1972.1563,50.7344 1971.5625,50.5938 1970.6875,50.5938 C1968.0625,50.5938 1966.0625,52.6719 1966.0625,55.3906 L1966.0625,56.5156 C1966.0625,59.0938 1968.1719,60.9844 1971.0625,60.9844 C1972.2813,60.9844 1973.4375,60.6875 1974.1875,60.1406 C1974.7656,59.7344 1975.0938,59.2813 1975.0938,58.8906 C1975.0938,58.4375 1974.7031,58.0469 1974.2344,58.0469 C1974.0156,58.0469 1973.8125,58.125 1973.625,58.3125 C1973.1719,58.7969 1973.1719,58.7969 1972.9844,58.8906 C1972.5625,59.1563 1971.875,59.2813 1971.1094,59.2813 C1969.0625,59.2813 1967.7656,58.1875 1967.7656,56.4844 L1967.7656,55.3906 C1967.7656,53.6094 1969.0156,52.2969 1970.75,52.2969 C1971.3281,52.2969 1971.9375,52.4531 1972.4063,52.7031 C1972.8906,52.9844 1973.0625,53.2031 1973.1563,53.6094 C1973.2188,54.0156 1973.25,54.1406 1973.3906,54.2656 C1973.5313,54.4063 1973.7656,54.5156 1973.9844,54.5156 C1974.25,54.5156 1974.5156,54.375 1974.6875,54.1563 C1974.7969,54 1974.8281,53.8125 1974.8281,53.3906 L1974.8281,51.9688 C1974.8281,51.5313 1974.8125,51.4063 1974.7188,51.25 C1974.5625,50.9844 1974.2813,50.8438 1973.9844,50.8438 C1973.6875,50.8438 1973.4844,50.9375 1973.2656,51.25 L1973.0938,51.1719 Z " fill="#000000"/><text fill="#000000" font-family="sans-serif" font-size="14" lengthAdjust="spacing" textLength="181" x="1991.25" y="60.3467">ConsoleReaderException</text><line style="stroke:#181818;stroke-width:0.5;" x1="1834" x2="2297" y1="71.5" y2="71.5"/><line style="stroke:#181818;stroke-width:0.5;" x1="1834" x2="2297" y1="79.5" y2="79.5"/><ellipse cx="1844" cy="93.1484" fill="#84BE84" rx="3" ry="3" style="stroke:#038048;stroke-width:1.0;"/><text fill="#000000" font-family="sans-serif" font-size="14" lengthAdjust="spacing" textLength="307" x="1853" y="96.4951">ConsoleReaderException(message: String)</text><ellipse cx="1844" cy="109.4453" fill="#84BE84" rx="3" ry="3" style="stroke:#038048;stroke-width:1.0;"/><text fill="#000000" font-family="sans-serif" font-size="14" lengthAdjust="spacing" textLength="439" x="1853" y="112.792">ConsoleReaderException(message: String, cause: Throwable)</text></g><!--class ConsoleReaderAlreadyRunningException--><g id="elem_ConsoleReaderAlreadyRunningException"><rect codeLine="48" fill="#F1F1F1" height="80.5938" id="ConsoleReaderAlreadyRunningException" rx="2.5" ry="2.5" style="stroke:#181818;stroke-width:0.5;" width="453" x="1652" y="213"/><ellipse cx="1727.75" cy="229" fill="#ADD1B2" rx="11" ry="11" style="stroke:#181818;stroke-width:1.0;"/><path d="M1730.0938,224.6719 C1729.1563,224.2344 1728.5625,224.0938 1727.6875,224.0938 C1725.0625,224.0938 1723.0625,226.1719 1723.0625,228.8906 L1723.0625,230.0156 C1723.0625,232.5938 1725.1719,234.4844 1728.0625,234.4844 C1729.2813,234.4844 1730.4375,234.1875 1731.1875,233.6406 C1731.7656,233.2344 1732.0938,232.7813 1732.0938,232.3906 C1732.0938,231.9375 1731.7031,231.5469 1731.2344,231.5469 C1731.0156,231.5469 1730.8125,231.625 1730.625,231.8125 C1730.1719,232.2969 1730.1719,232.2969 1729.9844,232.3906 C1729.5625,232.6563 1728.875,232.7813 1728.1094,232.7813 C1726.0625,232.7813 1724.7656,231.6875 1724.7656,229.9844 L1724.7656,228.8906 C1724.7656,227.1094 1726.0156,225.7969 1727.75,225.7969 C1728.3281,225.7969 1728.9375,225.9531 1729.4063,226.2031 C1729.8906,226.4844 1730.0625,226.7031 1730.1563,227.1094 C1730.2188,227.5156 1730.25,227.6406 1730.3906,227.7656 C1730.5313,227.9063 1730.7656,228.0156 1730.9844,228.0156 C1731.25,228.0156 1731.5156,227.875 1731.6875,227.6563 C1731.7969,227.5 1731.8281,227.3125 1731.8281,226.8906 L1731.8281,225.4688 C1731.8281,225.0313 1731.8125,224.9063 1731.7188,224.75 C1731.5625,224.4844 1731.2813,224.3438 1730.9844,224.3438 C1730.6875,224.3438 1730.4844,224.4375 1730.2656,224.75 L1730.0938,224.6719 Z " fill="#000000"/><text fill="#000000" font-family="sans-serif" font-size="14" lengthAdjust="spacing" textLength="293" x="1748.25" y="233.8467">ConsoleReaderAlreadyRunningException</text><line style="stroke:#181818;stroke-width:0.5;" x1="1653" x2="2104" y1="245" y2="245"/><line style="stroke:#181818;stroke-width:0.5;" x1="1653" x2="2104" y1="253" y2="253"/><ellipse cx="1663" cy="266.6484" fill="#84BE84" rx="3" ry="3" style="stroke:#038048;stroke-width:1.0;"/><text fill="#000000" font-family="sans-serif" font-size="14" lengthAdjust="spacing" textLength="303" x="1672" y="269.9951">ConsoleReaderAlreadyRunningException()</text><ellipse cx="1663" cy="282.9453" fill="#84BE84" rx="3" ry="3" style="stroke:#038048;stroke-width:1.0;"/><text fill="#000000" font-family="sans-serif" font-size="14" lengthAdjust="spacing" textLength="427" x="1672" y="286.292">ConsoleReaderAlreadyRunningException(cause: Throwable)</text></g><!--class ConsoleReaderAlreadyNotRunningException--><g id="elem_ConsoleReaderAlreadyNotRunningException"><rect codeLine="53" fill="#F1F1F1" height="80.5938" id="ConsoleReaderAlreadyNotRunningException" rx="2.5" ry="2.5" style="stroke:#181818;stroke-width:0.5;" width="479" x="2140" y="213"/><ellipse cx="2215.75" cy="229" fill="#ADD1B2" rx="11" ry="11" style="stroke:#181818;stroke-width:1.0;"/><path d="M2218.0938,224.6719 C2217.1563,224.2344 2216.5625,224.0938 2215.6875,224.0938 C2213.0625,224.0938 2211.0625,226.1719 2211.0625,228.8906 L2211.0625,230.0156 C2211.0625,232.5938 2213.1719,234.4844 2216.0625,234.4844 C2217.2813,234.4844 2218.4375,234.1875 2219.1875,233.6406 C2219.7656,233.2344 2220.0938,232.7813 2220.0938,232.3906 C2220.0938,231.9375 2219.7031,231.5469 2219.2344,231.5469 C2219.0156,231.5469 2218.8125,231.625 2218.625,231.8125 C2218.1719,232.2969 2218.1719,232.2969 2217.9844,232.3906 C2217.5625,232.6563 2216.875,232.7813 2216.1094,232.7813 C2214.0625,232.7813 2212.7656,231.6875 2212.7656,229.9844 L2212.7656,228.8906 C2212.7656,227.1094 2214.0156,225.7969 2215.75,225.7969 C2216.3281,225.7969 2216.9375,225.9531 2217.4063,226.2031 C2217.8906,226.4844 2218.0625,226.7031 2218.1563,227.1094 C2218.2188,227.5156 2218.25,227.6406 2218.3906,227.7656 C2218.5313,227.9063 2218.7656,228.0156 2218.9844,228.0156 C2219.25,228.0156 2219.5156,227.875 2219.6875,227.6563 C2219.7969,227.5 2219.8281,227.3125 2219.8281,226.8906 L2219.8281,225.4688 C2219.8281,225.0313 2219.8125,224.9063 2219.7188,224.75 C2219.5625,224.4844 2219.2813,224.3438 2218.9844,224.3438 C2218.6875,224.3438 2218.4844,224.4375 2218.2656,224.75 L2218.0938,224.6719 Z " fill="#000000"/><text fill="#000000" font-family="sans-serif" font-size="14" lengthAdjust="spacing" textLength="319" x="2236.25" y="233.8467">ConsoleReaderAlreadyNotRunningException</text><line style="stroke:#181818;stroke-width:0.5;" x1="2141" x2="2618" y1="245" y2="245"/><line style="stroke:#181818;stroke-width:0.5;" x1="2141" x2="2618" y1="253" y2="253"/><ellipse cx="2151" cy="266.6484" fill="#84BE84" rx="3" ry="3" style="stroke:#038048;stroke-width:1.0;"/><text fill="#000000" font-family="sans-serif" font-size="14" lengthAdjust="spacing" textLength="329" x="2160" y="269.9951">ConsoleReaderAlreadyNotRunningException()</text><ellipse cx="2151" cy="282.9453" fill="#84BE84" rx="3" ry="3" style="stroke:#038048;stroke-width:1.0;"/><text fill="#000000" font-family="sans-serif" font-size="14" lengthAdjust="spacing" textLength="453" x="2160" y="286.292">ConsoleReaderAlreadyNotRunningException(cause: Throwable)</text></g><!--reverse link Chatbot to AppChatbot--><g id="link_Chatbot_AppChatbot"><path codeLine="58" d="M1412.5,159.12 C1412.5,216.351 1412.5,290.9 1412.5,353.734 " fill="none" id="Chatbot-backto-AppChatbot" style="stroke:#181818;stroke-width:1.0;stroke-dasharray:7.0,7.0;"/><polygon fill="#181818" points="1412.5,153.12,1408.5,162.12,1412.5,158.12,1416.5,162.12,1412.5,153.12" style="stroke:#181818;stroke-width:1.0;"/></g><!--reverse link AppChatbot to AppTranslationChatbot--><g id="link_AppChatbot_AppTranslationChatbot"><path codeLine="59" d="M1412.5,555.315 C1412.5,578.371 1412.5,596.211 1412.5,616.705 " fill="none" id="AppChatbot-backto-AppTranslationChatbot" style="stroke:#181818;stroke-width:1.0;"/><polygon fill="#181818" points="1412.5,549.315,1408.5,558.315,1412.5,554.315,1416.5,558.315,1412.5,549.315" style="stroke:#181818;stroke-width:1.0;"/></g><!--reverse link AppChatbot to AppWeatherChatbot--><g id="link_AppChatbot_AppWeatherChatbot"><path codeLine="60" d="M985.6719,550.4166 C884.4269,573.6426 785.498,596.338 695.607,616.959 " fill="none" id="AppChatbot-backto-AppWeatherChatbot" style="stroke:#181818;stroke-width:1.0;"/><polygon fill="#181818" points="991.52,549.075,981.8535,547.1886,986.6466,550.193,983.6422,554.9861,991.52,549.075" style="stroke:#181818;stroke-width:1.0;"/></g><!--reverse link AppChatbot to AppWikiChatbot--><g id="link_AppChatbot_AppWikiChatbot"><path codeLine="61" d="M1857.7801,550.3629 C1950.0701,570.6459 2039.31,590.26 2124.41,608.965 " fill="none" id="AppChatbot-backto-AppWikiChatbot" style="stroke:#181818;stroke-width:1.0;"/><polygon fill="#181818" points="1851.92,549.075,1859.8516,554.9136,1856.8035,550.1483,1861.5688,547.1001,1851.92,549.075" style="stroke:#181818;stroke-width:1.0;"/></g><!--reverse link ConsoleReaderException to ConsoleReaderAlreadyRunningException--><g id="link_ConsoleReaderException_ConsoleReaderAlreadyRunningException"><path codeLine="62" d="M2017.7081,124.8324 C1987.4981,152.5384 1951.8,185.28 1921.64,212.939 " fill="none" id="ConsoleReaderException-backto-ConsoleReaderAlreadyRunningException" style="stroke:#181818;stroke-width:1.0;"/><polygon fill="#181818" points="2022.13,120.777,2012.7935,123.9122,2018.445,124.1565,2018.2007,129.8081,2022.13,120.777" style="stroke:#181818;stroke-width:1.0;"/></g><!--reverse link ConsoleReaderException to ConsoleReaderAlreadyNotRunningException--><g id="link_ConsoleReaderException_ConsoleReaderAlreadyNotRunningException"><path codeLine="63" d="M2143.1959,123.4368 C2194.0059,151.1848 2256.38,185.253 2307.16,212.99 " fill="none" id="ConsoleReaderException-backto-ConsoleReaderAlreadyNotRunningException" style="stroke:#181818;stroke-width:1.0;"/><polygon fill="#181818" points="2137.93,120.561,2143.9117,128.3853,2142.3183,122.9575,2147.7461,121.3641,2137.93,120.561" style="stroke:#181818;stroke-width:1.0;"/></g><!--SRC=[nLRRRk8m47ttLrZQbw0DV012bLgQQYzgj-goudb81iWIx6WyMK2h_llQ91120cgebkR5iUTuV7nyF4ci66aA8ShX77YYMVuLqZwVPyXFi4Il8_lo9rEiPlbuR085amIZRMIebsc2x0OUCiu81tTQ9mZg9aSRv1qSyxOl9pd2JV-ZuoW7QXMiCSmOFOCgGkhBNmR9bmIh4Qvvnw4woK4VqHYOuGzrXtD8fjuoxryymPTW5W-QlgequphPLo5WOfWWP1acO8oyJTCZwSeHBxKfsUrcg9MncPxplY-LrRPSChDxVGHbQHGRBpg-36sYWl4zM9t1u1vOhDCSzcLqZ2z81OfZtXp1ErlgNITGGAIfIEfLzRkoAJxWV5sQJuc6KpkfQ7XpcNUjX_RM6IFm7Adke6h0-ssqUWOoBlkt_Rilvypfc21DNU1BsV6530aZj3mXCNOdPSUNxtMbkB8jtwNmY42P13ZMggvoFVZ6Aol-ovqLilKvdpdcQoizZXTnWv7BqKjS_84LL5n5mMtTPUV3gQRbTzoiD4NU8cyFqKN1VIq4B_HuGR2B1EiGK-VYdV3DqLhrR0EsKeALkIz7Sz8hLnCxvV5NKjmcPDlDIwQKdNUUsmcirsc1RSdhINCRQWtmS-oQu8q4TrTbqElr3luYnC4FnQ3RRIvX3Q3g1wC9K5v4SS8y3laMnTlERz3a7m00]--></g></svg>