<?xml version="1.0" encoding="us-ascii" standalone="no"?><svg xmlns="http://www.w3.org/2000/svg" xmlns:xlink="http://www.w3.org/1999/xlink" contentStyleType="text/css" height="457px" preserveAspectRatio="none" style="width:3474px;height:457px;background:#FFFFFF;" version="1.1" viewBox="0 0 3474 457" width="3474px" zoomAndPan="magnify"><defs/><g><!--class TextAnalyzer--><g id="elem_TextAnalyzer"><rect codeLine="1" fill="#F1F1F1" height="64.2969" id="TextAnalyzer" rx="2.5" ry="2.5" style="stroke:#181818;stroke-width:0.5;" width="369" x="411" y="15.5"/><ellipse cx="544.75" cy="31.5" fill="#B4A7E5" rx="11" ry="11" style="stroke:#181818;stroke-width:1.0;"/><path d="M545.7031,28.2813 L547.4219,28.2813 C547.8125,28.2813 548,28.25 548.125,28.1719 C548.3906,28.0156 548.5313,27.7344 548.5313,27.4375 C548.5313,27.1719 548.4219,26.9063 548.1875,26.7344 C548.0156,26.625 547.875,26.5938 547.4219,26.5938 L542.2813,26.5938 C541.8438,26.5938 541.7188,26.6094 541.5625,26.7031 C541.3125,26.8594 541.1563,27.1563 541.1563,27.4375 C541.1563,27.7188 541.2969,27.9688 541.5156,28.1406 C541.6719,28.25 541.8594,28.2813 542.2813,28.2813 L544,28.2813 L544,34.7969 L542.2813,34.7969 C541.8438,34.7969 541.7188,34.8125 541.5625,34.9219 C541.3125,35.0781 541.1563,35.3594 541.1563,35.6563 C541.1563,35.9063 541.2969,36.1719 541.5156,36.3281 C541.6719,36.4531 541.875,36.5 542.2813,36.5 L547.4219,36.5 C548.1719,36.5 548.5313,36.2188 548.5313,35.6563 C548.5313,35.375 548.4219,35.125 548.1875,34.9531 C548.0156,34.8281 547.875,34.7969 547.4219,34.7969 L545.7031,34.7969 L545.7031,28.2813 Z " fill="#000000"/><text fill="#000000" font-family="sans-serif" font-size="14" font-style="italic" lengthAdjust="spacing" textLength="93" x="565.25" y="36.3467">TextAnalyzer</text><line style="stroke:#181818;stroke-width:0.5;" x1="412" x2="779" y1="47.5" y2="47.5"/><line style="stroke:#181818;stroke-width:0.5;" x1="412" x2="779" y1="55.5" y2="55.5"/><ellipse cx="422" cy="69.1484" fill="#84BE84" rx="3" ry="3" style="stroke:#038048;stroke-width:1.0;"/><text fill="#000000" font-family="sans-serif" font-size="14" lengthAdjust="spacing" textLength="343" x="431" y="72.4951">analyze(text: String) : HashMap&lt;String, String&gt;</text></g><!--class WikiTextAnalyzer--><g id="elem_WikiTextAnalyzer"><rect codeLine="5" fill="#F1F1F1" height="64.2969" id="WikiTextAnalyzer" rx="2.5" ry="2.5" style="stroke:#181818;stroke-width:0.5;" width="317" x="51" y="164.5"/><ellipse cx="143.75" cy="180.5" fill="#B4A7E5" rx="11" ry="11" style="stroke:#181818;stroke-width:1.0;"/><path d="M144.7031,177.2813 L146.4219,177.2813 C146.8125,177.2813 147,177.25 147.125,177.1719 C147.3906,177.0156 147.5313,176.7344 147.5313,176.4375 C147.5313,176.1719 147.4219,175.9063 147.1875,175.7344 C147.0156,175.625 146.875,175.5938 146.4219,175.5938 L141.2813,175.5938 C140.8438,175.5938 140.7188,175.6094 140.5625,175.7031 C140.3125,175.8594 140.1563,176.1563 140.1563,176.4375 C140.1563,176.7188 140.2969,176.9688 140.5156,177.1406 C140.6719,177.25 140.8594,177.2813 141.2813,177.2813 L143,177.2813 L143,183.7969 L141.2813,183.7969 C140.8438,183.7969 140.7188,183.8125 140.5625,183.9219 C140.3125,184.0781 140.1563,184.3594 140.1563,184.6563 C140.1563,184.9063 140.2969,185.1719 140.5156,185.3281 C140.6719,185.4531 140.875,185.5 141.2813,185.5 L146.4219,185.5 C147.1719,185.5 147.5313,185.2188 147.5313,184.6563 C147.5313,184.375 147.4219,184.125 147.1875,183.9531 C147.0156,183.8281 146.875,183.7969 146.4219,183.7969 L144.7031,183.7969 L144.7031,177.2813 Z " fill="#000000"/><text fill="#000000" font-family="sans-serif" font-size="14" font-style="italic" lengthAdjust="spacing" textLength="123" x="164.25" y="185.3467">WikiTextAnalyzer</text><line style="stroke:#181818;stroke-width:0.5;" x1="52" x2="367" y1="196.5" y2="196.5"/><line style="stroke:#181818;stroke-width:0.5;" x1="52" x2="367" y1="204.5" y2="204.5"/><ellipse cx="62" cy="218.1484" fill="#84BE84" rx="3" ry="3" style="stroke:#038048;stroke-width:1.0;"/><text fill="#000000" font-family="sans-serif" font-size="14" lengthAdjust="spacing" textLength="291" x="71" y="221.4951">extractSearchTerm(text: String) : String</text></g><!--class TranslationTextAnalyzer--><g id="elem_TranslationTextAnalyzer"><rect codeLine="9" fill="#F1F1F1" height="80.5938" id="TranslationTextAnalyzer" rx="2.5" ry="2.5" style="stroke:#181818;stroke-width:0.5;" width="348" x="421.5" y="156"/><ellipse cx="504.75" cy="172" fill="#B4A7E5" rx="11" ry="11" style="stroke:#181818;stroke-width:1.0;"/><path d="M505.7031,168.7813 L507.4219,168.7813 C507.8125,168.7813 508,168.75 508.125,168.6719 C508.3906,168.5156 508.5313,168.2344 508.5313,167.9375 C508.5313,167.6719 508.4219,167.4063 508.1875,167.2344 C508.0156,167.125 507.875,167.0938 507.4219,167.0938 L502.2813,167.0938 C501.8438,167.0938 501.7188,167.1094 501.5625,167.2031 C501.3125,167.3594 501.1563,167.6563 501.1563,167.9375 C501.1563,168.2188 501.2969,168.4688 501.5156,168.6406 C501.6719,168.75 501.8594,168.7813 502.2813,168.7813 L504,168.7813 L504,175.2969 L502.2813,175.2969 C501.8438,175.2969 501.7188,175.3125 501.5625,175.4219 C501.3125,175.5781 501.1563,175.8594 501.1563,176.1563 C501.1563,176.4063 501.2969,176.6719 501.5156,176.8281 C501.6719,176.9531 501.875,177 502.2813,177 L507.4219,177 C508.1719,177 508.5313,176.7188 508.5313,176.1563 C508.5313,175.875 508.4219,175.625 508.1875,175.4531 C508.0156,175.3281 507.875,175.2969 507.4219,175.2969 L505.7031,175.2969 L505.7031,168.7813 Z " fill="#000000"/><text fill="#000000" font-family="sans-serif" font-size="14" font-style="italic" lengthAdjust="spacing" textLength="173" x="525.25" y="176.8467">TranslationTextAnalyzer</text><line style="stroke:#181818;stroke-width:0.5;" x1="422.5" x2="768.5" y1="188" y2="188"/><line style="stroke:#181818;stroke-width:0.5;" x1="422.5" x2="768.5" y1="196" y2="196"/><ellipse cx="432.5" cy="209.6484" fill="#84BE84" rx="3" ry="3" style="stroke:#038048;stroke-width:1.0;"/><text fill="#000000" font-family="sans-serif" font-size="14" lengthAdjust="spacing" textLength="322" x="441.5" y="212.9951">extractTextToTranslate(text: String) : String</text><ellipse cx="432.5" cy="225.9453" fill="#84BE84" rx="3" ry="3" style="stroke:#038048;stroke-width:1.0;"/><text fill="#000000" font-family="sans-serif" font-size="14" lengthAdjust="spacing" textLength="320" x="441.5" y="229.292">extractTargetLanguage(text: String) : String</text></g><!--class WeatherTextAnalyzer--><g id="elem_WeatherTextAnalyzer"><rect codeLine="14" fill="#F1F1F1" height="80.5938" id="WeatherTextAnalyzer" rx="2.5" ry="2.5" style="stroke:#181818;stroke-width:0.5;" width="426" x="809.5" y="156"/><ellipse cx="941.25" cy="172" fill="#B4A7E5" rx="11" ry="11" style="stroke:#181818;stroke-width:1.0;"/><path d="M942.2031,168.7813 L943.9219,168.7813 C944.3125,168.7813 944.5,168.75 944.625,168.6719 C944.8906,168.5156 945.0313,168.2344 945.0313,167.9375 C945.0313,167.6719 944.9219,167.4063 944.6875,167.2344 C944.5156,167.125 944.375,167.0938 943.9219,167.0938 L938.7813,167.0938 C938.3438,167.0938 938.2188,167.1094 938.0625,167.2031 C937.8125,167.3594 937.6563,167.6563 937.6563,167.9375 C937.6563,168.2188 937.7969,168.4688 938.0156,168.6406 C938.1719,168.75 938.3594,168.7813 938.7813,168.7813 L940.5,168.7813 L940.5,175.2969 L938.7813,175.2969 C938.3438,175.2969 938.2188,175.3125 938.0625,175.4219 C937.8125,175.5781 937.6563,175.8594 937.6563,176.1563 C937.6563,176.4063 937.7969,176.6719 938.0156,176.8281 C938.1719,176.9531 938.375,177 938.7813,177 L943.9219,177 C944.6719,177 945.0313,176.7188 945.0313,176.1563 C945.0313,175.875 944.9219,175.625 944.6875,175.4531 C944.5156,175.3281 944.375,175.2969 943.9219,175.2969 L942.2031,175.2969 L942.2031,168.7813 Z " fill="#000000"/><text fill="#000000" font-family="sans-serif" font-size="14" font-style="italic" lengthAdjust="spacing" textLength="154" x="961.75" y="176.8467">WeatherTextAnalyzer</text><line style="stroke:#181818;stroke-width:0.5;" x1="810.5" x2="1234.5" y1="188" y2="188"/><line style="stroke:#181818;stroke-width:0.5;" x1="810.5" x2="1234.5" y1="196" y2="196"/><ellipse cx="820.5" cy="209.6484" fill="#84BE84" rx="3" ry="3" style="stroke:#038048;stroke-width:1.0;"/><text fill="#000000" font-family="sans-serif" font-size="14" lengthAdjust="spacing" textLength="266" x="829.5" y="212.9951">extractLocation(text: String) : String</text><ellipse cx="820.5" cy="225.9453" fill="#84BE84" rx="3" ry="3" style="stroke:#038048;stroke-width:1.0;"/><text fill="#000000" font-family="sans-serif" font-size="14" lengthAdjust="spacing" textLength="400" x="829.5" y="229.292">extractWeatherCurrentOrForecast(text: String) : String</text></g><!--class AppWikiTextAnalyzer--><g id="elem_AppWikiTextAnalyzer"><rect codeLine="19" fill="#F1F1F1" height="80.5938" id="AppWikiTextAnalyzer" rx="2.5" ry="2.5" style="stroke:#181818;stroke-width:0.5;" width="369" x="7" y="337.5"/><ellipse cx="109.25" cy="353.5" fill="#ADD1B2" rx="11" ry="11" style="stroke:#181818;stroke-width:1.0;"/><path d="M111.5938,349.1719 C110.6563,348.7344 110.0625,348.5938 109.1875,348.5938 C106.5625,348.5938 104.5625,350.6719 104.5625,353.3906 L104.5625,354.5156 C104.5625,357.0938 106.6719,358.9844 109.5625,358.9844 C110.7813,358.9844 111.9375,358.6875 112.6875,358.1406 C113.2656,357.7344 113.5938,357.2813 113.5938,356.8906 C113.5938,356.4375 113.2031,356.0469 112.7344,356.0469 C112.5156,356.0469 112.3125,356.125 112.125,356.3125 C111.6719,356.7969 111.6719,356.7969 111.4844,356.8906 C111.0625,357.1563 110.375,357.2813 109.6094,357.2813 C107.5625,357.2813 106.2656,356.1875 106.2656,354.4844 L106.2656,353.3906 C106.2656,351.6094 107.5156,350.2969 109.25,350.2969 C109.8281,350.2969 110.4375,350.4531 110.9063,350.7031 C111.3906,350.9844 111.5625,351.2031 111.6563,351.6094 C111.7188,352.0156 111.75,352.1406 111.8906,352.2656 C112.0313,352.4063 112.2656,352.5156 112.4844,352.5156 C112.75,352.5156 113.0156,352.375 113.1875,352.1563 C113.2969,352 113.3281,351.8125 113.3281,351.3906 L113.3281,349.9688 C113.3281,349.5313 113.3125,349.4063 113.2188,349.25 C113.0625,348.9844 112.7813,348.8438 112.4844,348.8438 C112.1875,348.8438 111.9844,348.9375 111.7656,349.25 L111.5938,349.1719 Z " fill="#000000"/><text fill="#000000" font-family="sans-serif" font-size="14" lengthAdjust="spacing" textLength="156" x="129.75" y="358.3467">AppWikiTextAnalyzer</text><line style="stroke:#181818;stroke-width:0.5;" x1="8" x2="375" y1="369.5" y2="369.5"/><line style="stroke:#181818;stroke-width:0.5;" x1="8" x2="375" y1="377.5" y2="377.5"/><ellipse cx="18" cy="391.1484" fill="#84BE84" rx="3" ry="3" style="stroke:#038048;stroke-width:1.0;"/><text fill="#000000" font-family="sans-serif" font-size="14" lengthAdjust="spacing" textLength="343" x="27" y="394.4951">analyze(text: String) : HashMap&lt;String, String&gt;</text><ellipse cx="18" cy="407.4453" fill="#84BE84" rx="3" ry="3" style="stroke:#038048;stroke-width:1.0;"/><text fill="#000000" font-family="sans-serif" font-size="14" lengthAdjust="spacing" textLength="291" x="27" y="410.792">extractSearchTerm(text: String) : String</text></g><!--class AppTranslationTextAnalyzer--><g id="elem_AppTranslationTextAnalyzer"><rect codeLine="24" fill="#F1F1F1" height="96.8906" id="AppTranslationTextAnalyzer" rx="2.5" ry="2.5" style="stroke:#181818;stroke-width:0.5;" width="369" x="411" y="329.5"/><ellipse cx="488.75" cy="345.5" fill="#ADD1B2" rx="11" ry="11" style="stroke:#181818;stroke-width:1.0;"/><path d="M491.0938,341.1719 C490.1563,340.7344 489.5625,340.5938 488.6875,340.5938 C486.0625,340.5938 484.0625,342.6719 484.0625,345.3906 L484.0625,346.5156 C484.0625,349.0938 486.1719,350.9844 489.0625,350.9844 C490.2813,350.9844 491.4375,350.6875 492.1875,350.1406 C492.7656,349.7344 493.0938,349.2813 493.0938,348.8906 C493.0938,348.4375 492.7031,348.0469 492.2344,348.0469 C492.0156,348.0469 491.8125,348.125 491.625,348.3125 C491.1719,348.7969 491.1719,348.7969 490.9844,348.8906 C490.5625,349.1563 489.875,349.2813 489.1094,349.2813 C487.0625,349.2813 485.7656,348.1875 485.7656,346.4844 L485.7656,345.3906 C485.7656,343.6094 487.0156,342.2969 488.75,342.2969 C489.3281,342.2969 489.9375,342.4531 490.4063,342.7031 C490.8906,342.9844 491.0625,343.2031 491.1563,343.6094 C491.2188,344.0156 491.25,344.1406 491.3906,344.2656 C491.5313,344.4063 491.7656,344.5156 491.9844,344.5156 C492.25,344.5156 492.5156,344.375 492.6875,344.1563 C492.7969,344 492.8281,343.8125 492.8281,343.3906 L492.8281,341.9688 C492.8281,341.5313 492.8125,341.4063 492.7188,341.25 C492.5625,340.9844 492.2813,340.8438 491.9844,340.8438 C491.6875,340.8438 491.4844,340.9375 491.2656,341.25 L491.0938,341.1719 Z " fill="#000000"/><text fill="#000000" font-family="sans-serif" font-size="14" lengthAdjust="spacing" textLength="205" x="509.25" y="350.3467">AppTranslationTextAnalyzer</text><line style="stroke:#181818;stroke-width:0.5;" x1="412" x2="779" y1="361.5" y2="361.5"/><line style="stroke:#181818;stroke-width:0.5;" x1="412" x2="779" y1="369.5" y2="369.5"/><ellipse cx="422" cy="383.1484" fill="#84BE84" rx="3" ry="3" style="stroke:#038048;stroke-width:1.0;"/><text fill="#000000" font-family="sans-serif" font-size="14" lengthAdjust="spacing" textLength="343" x="431" y="386.4951">analyze(text: String) : HashMap&lt;String, String&gt;</text><ellipse cx="422" cy="399.4453" fill="#84BE84" rx="3" ry="3" style="stroke:#038048;stroke-width:1.0;"/><text fill="#000000" font-family="sans-serif" font-size="14" lengthAdjust="spacing" textLength="322" x="431" y="402.792">extractTextToTranslate(text: String) : String</text><ellipse cx="422" cy="415.7422" fill="#84BE84" rx="3" ry="3" style="stroke:#038048;stroke-width:1.0;"/><text fill="#000000" font-family="sans-serif" font-size="14" lengthAdjust="spacing" textLength="320" x="431" y="419.0889">extractTargetLanguage(text: String) : String</text></g><!--class AppWeatherTextAnalyzer--><g id="elem_AppWeatherTextAnalyzer"><rect codeLine="30" fill="#F1F1F1" height="96.8906" id="AppWeatherTextAnalyzer" rx="2.5" ry="2.5" style="stroke:#181818;stroke-width:0.5;" width="426" x="815.5" y="329.5"/><ellipse cx="930.75" cy="345.5" fill="#ADD1B2" rx="11" ry="11" style="stroke:#181818;stroke-width:1.0;"/><path d="M933.0938,341.1719 C932.1563,340.7344 931.5625,340.5938 930.6875,340.5938 C928.0625,340.5938 926.0625,342.6719 926.0625,345.3906 L926.0625,346.5156 C926.0625,349.0938 928.1719,350.9844 931.0625,350.9844 C932.2813,350.9844 933.4375,350.6875 934.1875,350.1406 C934.7656,349.7344 935.0938,349.2813 935.0938,348.8906 C935.0938,348.4375 934.7031,348.0469 934.2344,348.0469 C934.0156,348.0469 933.8125,348.125 933.625,348.3125 C933.1719,348.7969 933.1719,348.7969 932.9844,348.8906 C932.5625,349.1563 931.875,349.2813 931.1094,349.2813 C929.0625,349.2813 927.7656,348.1875 927.7656,346.4844 L927.7656,345.3906 C927.7656,343.6094 929.0156,342.2969 930.75,342.2969 C931.3281,342.2969 931.9375,342.4531 932.4063,342.7031 C932.8906,342.9844 933.0625,343.2031 933.1563,343.6094 C933.2188,344.0156 933.25,344.1406 933.3906,344.2656 C933.5313,344.4063 933.7656,344.5156 933.9844,344.5156 C934.25,344.5156 934.5156,344.375 934.6875,344.1563 C934.7969,344 934.8281,343.8125 934.8281,343.3906 L934.8281,341.9688 C934.8281,341.5313 934.8125,341.4063 934.7188,341.25 C934.5625,340.9844 934.2813,340.8438 933.9844,340.8438 C933.6875,340.8438 933.4844,340.9375 933.2656,341.25 L933.0938,341.1719 Z " fill="#000000"/><text fill="#000000" font-family="sans-serif" font-size="14" lengthAdjust="spacing" textLength="187" x="951.25" y="350.3467">AppWeatherTextAnalyzer</text><line style="stroke:#181818;stroke-width:0.5;" x1="816.5" x2="1240.5" y1="361.5" y2="361.5"/><line style="stroke:#181818;stroke-width:0.5;" x1="816.5" x2="1240.5" y1="369.5" y2="369.5"/><ellipse cx="826.5" cy="383.1484" fill="#84BE84" rx="3" ry="3" style="stroke:#038048;stroke-width:1.0;"/><text fill="#000000" font-family="sans-serif" font-size="14" lengthAdjust="spacing" textLength="343" x="835.5" y="386.4951">analyze(text: String) : HashMap&lt;String, String&gt;</text><ellipse cx="826.5" cy="399.4453" fill="#84BE84" rx="3" ry="3" style="stroke:#038048;stroke-width:1.0;"/><text fill="#000000" font-family="sans-serif" font-size="14" lengthAdjust="spacing" textLength="266" x="835.5" y="402.792">extractLocation(text: String) : String</text><ellipse cx="826.5" cy="415.7422" fill="#84BE84" rx="3" ry="3" style="stroke:#038048;stroke-width:1.0;"/><text fill="#000000" font-family="sans-serif" font-size="14" lengthAdjust="spacing" textLength="400" x="835.5" y="419.0889">extractWeatherCurrentOrForecast(text: String) : String</text></g><!--class ConsoleReaderCallback--><g id="elem_ConsoleReaderCallback"><rect codeLine="35" fill="#F1F1F1" height="80.5938" id="ConsoleReaderCallback" rx="2.5" ry="2.5" style="stroke:#181818;stroke-width:0.5;" width="292" x="2372.5" y="7"/><ellipse cx="2429.25" cy="23" fill="#B4A7E5" rx="11" ry="11" style="stroke:#181818;stroke-width:1.0;"/><path d="M2430.2031,19.7813 L2431.9219,19.7813 C2432.3125,19.7813 2432.5,19.75 2432.625,19.6719 C2432.8906,19.5156 2433.0313,19.2344 2433.0313,18.9375 C2433.0313,18.6719 2432.9219,18.4063 2432.6875,18.2344 C2432.5156,18.125 2432.375,18.0938 2431.9219,18.0938 L2426.7813,18.0938 C2426.3438,18.0938 2426.2188,18.1094 2426.0625,18.2031 C2425.8125,18.3594 2425.6563,18.6563 2425.6563,18.9375 C2425.6563,19.2188 2425.7969,19.4688 2426.0156,19.6406 C2426.1719,19.75 2426.3594,19.7813 2426.7813,19.7813 L2428.5,19.7813 L2428.5,26.2969 L2426.7813,26.2969 C2426.3438,26.2969 2426.2188,26.3125 2426.0625,26.4219 C2425.8125,26.5781 2425.6563,26.8594 2425.6563,27.1563 C2425.6563,27.4063 2425.7969,27.6719 2426.0156,27.8281 C2426.1719,27.9531 2426.375,28 2426.7813,28 L2431.9219,28 C2432.6719,28 2433.0313,27.7188 2433.0313,27.1563 C2433.0313,26.875 2432.9219,26.625 2432.6875,26.4531 C2432.5156,26.3281 2432.375,26.2969 2431.9219,26.2969 L2430.2031,26.2969 L2430.2031,19.7813 Z " fill="#000000"/><text fill="#000000" font-family="sans-serif" font-size="14" font-style="italic" lengthAdjust="spacing" textLength="170" x="2449.75" y="27.8467">ConsoleReaderCallback</text><line style="stroke:#181818;stroke-width:0.5;" x1="2373.5" x2="2663.5" y1="39" y2="39"/><line style="stroke:#181818;stroke-width:0.5;" x1="2373.5" x2="2663.5" y1="47" y2="47"/><ellipse cx="2383.5" cy="60.6484" fill="#84BE84" rx="3" ry="3" style="stroke:#038048;stroke-width:1.0;"/><text fill="#000000" font-family="sans-serif" font-size="14" lengthAdjust="spacing" textLength="266" x="2392.5" y="63.9951">onInputReceived(input: String) : void</text><ellipse cx="2383.5" cy="76.9453" fill="#84BE84" rx="3" ry="3" style="stroke:#038048;stroke-width:1.0;"/><text fill="#000000" font-family="sans-serif" font-size="14" lengthAdjust="spacing" textLength="155" x="2392.5" y="80.292">unregister() : boolean</text></g><!--class AppConsoleReaderCallback--><g id="elem_AppConsoleReaderCallback"><rect codeLine="40" fill="#F1F1F1" height="96.8906" id="AppConsoleReaderCallback" rx="2.5" ry="2.5" style="stroke:#181818;stroke-width:0.5;" width="399" x="2319" y="148"/><ellipse cx="2414.75" cy="164" fill="#ADD1B2" rx="11" ry="11" style="stroke:#181818;stroke-width:1.0;"/><path d="M2417.0938,159.6719 C2416.1563,159.2344 2415.5625,159.0938 2414.6875,159.0938 C2412.0625,159.0938 2410.0625,161.1719 2410.0625,163.8906 L2410.0625,165.0156 C2410.0625,167.5938 2412.1719,169.4844 2415.0625,169.4844 C2416.2813,169.4844 2417.4375,169.1875 2418.1875,168.6406 C2418.7656,168.2344 2419.0938,167.7813 2419.0938,167.3906 C2419.0938,166.9375 2418.7031,166.5469 2418.2344,166.5469 C2418.0156,166.5469 2417.8125,166.625 2417.625,166.8125 C2417.1719,167.2969 2417.1719,167.2969 2416.9844,167.3906 C2416.5625,167.6563 2415.875,167.7813 2415.1094,167.7813 C2413.0625,167.7813 2411.7656,166.6875 2411.7656,164.9844 L2411.7656,163.8906 C2411.7656,162.1094 2413.0156,160.7969 2414.75,160.7969 C2415.3281,160.7969 2415.9375,160.9531 2416.4063,161.2031 C2416.8906,161.4844 2417.0625,161.7031 2417.1563,162.1094 C2417.2188,162.5156 2417.25,162.6406 2417.3906,162.7656 C2417.5313,162.9063 2417.7656,163.0156 2417.9844,163.0156 C2418.25,163.0156 2418.5156,162.875 2418.6875,162.6563 C2418.7969,162.5 2418.8281,162.3125 2418.8281,161.8906 L2418.8281,160.4688 C2418.8281,160.0313 2418.8125,159.9063 2418.7188,159.75 C2418.5625,159.4844 2418.2813,159.3438 2417.9844,159.3438 C2417.6875,159.3438 2417.4844,159.4375 2417.2656,159.75 L2417.0938,159.6719 Z " fill="#000000"/><text fill="#000000" font-family="sans-serif" font-size="14" lengthAdjust="spacing" textLength="199" x="2435.25" y="168.8467">AppConsoleReaderCallback</text><line style="stroke:#181818;stroke-width:0.5;" x1="2320" x2="2717" y1="180" y2="180"/><rect fill="none" height="6" style="stroke:#C82930;stroke-width:1.0;" width="6" x="2327" y="190.6484"/><text fill="#000000" font-family="sans-serif" font-size="14" lengthAdjust="spacing" textLength="164" x="2339" y="196.9951">reader: ConsoleReader</text><line style="stroke:#181818;stroke-width:0.5;" x1="2320" x2="2717" y1="204.2969" y2="204.2969"/><ellipse cx="2330" cy="217.9453" fill="#84BE84" rx="3" ry="3" style="stroke:#038048;stroke-width:1.0;"/><text fill="#000000" font-family="sans-serif" font-size="14" lengthAdjust="spacing" textLength="373" x="2339" y="221.292">AppConsoleReaderCallback(reader: ConsoleReader)</text><ellipse cx="2330" cy="234.2422" fill="#84BE84" rx="3" ry="3" style="stroke:#038048;stroke-width:1.0;"/><text fill="#000000" font-family="sans-serif" font-size="14" lengthAdjust="spacing" textLength="155" x="2339" y="237.5889">unregister() : boolean</text></g><!--class ChatbotManagerConsoleReaderCallback--><g id="elem_ChatbotManagerConsoleReaderCallback"><rect codeLine="46" fill="#F1F1F1" height="129.4844" id="ChatbotManagerConsoleReaderCallback" rx="2.5" ry="2.5" style="stroke:#181818;stroke-width:0.5;" width="1372" x="1276.5" y="313.5"/><ellipse cx="1813.25" cy="329.5" fill="#ADD1B2" rx="11" ry="11" style="stroke:#181818;stroke-width:1.0;"/><path d="M1815.5938,325.1719 C1814.6563,324.7344 1814.0625,324.5938 1813.1875,324.5938 C1810.5625,324.5938 1808.5625,326.6719 1808.5625,329.3906 L1808.5625,330.5156 C1808.5625,333.0938 1810.6719,334.9844 1813.5625,334.9844 C1814.7813,334.9844 1815.9375,334.6875 1816.6875,334.1406 C1817.2656,333.7344 1817.5938,333.2813 1817.5938,332.8906 C1817.5938,332.4375 1817.2031,332.0469 1816.7344,332.0469 C1816.5156,332.0469 1816.3125,332.125 1816.125,332.3125 C1815.6719,332.7969 1815.6719,332.7969 1815.4844,332.8906 C1815.0625,333.1563 1814.375,333.2813 1813.6094,333.2813 C1811.5625,333.2813 1810.2656,332.1875 1810.2656,330.4844 L1810.2656,329.3906 C1810.2656,327.6094 1811.5156,326.2969 1813.25,326.2969 C1813.8281,326.2969 1814.4375,326.4531 1814.9063,326.7031 C1815.3906,326.9844 1815.5625,327.2031 1815.6563,327.6094 C1815.7188,328.0156 1815.75,328.1406 1815.8906,328.2656 C1816.0313,328.4063 1816.2656,328.5156 1816.4844,328.5156 C1816.75,328.5156 1817.0156,328.375 1817.1875,328.1563 C1817.2969,328 1817.3281,327.8125 1817.3281,327.3906 L1817.3281,325.9688 C1817.3281,325.5313 1817.3125,325.4063 1817.2188,325.25 C1817.0625,324.9844 1816.7813,324.8438 1816.4844,324.8438 C1816.1875,324.8438 1815.9844,324.9375 1815.7656,325.25 L1815.5938,325.1719 Z " fill="#000000"/><text fill="#000000" font-family="sans-serif" font-size="14" lengthAdjust="spacing" textLength="290" x="1833.75" y="334.3467">ChatbotManagerConsoleReaderCallback</text><line style="stroke:#181818;stroke-width:0.5;" x1="1277.5" x2="2647.5" y1="345.5" y2="345.5"/><rect fill="none" height="6" style="stroke:#C82930;stroke-width:1.0;" width="6" x="1284.5" y="356.1484"/><text fill="#000000" font-family="sans-serif" font-size="14" lengthAdjust="spacing" textLength="249" x="1296.5" y="362.4951">chatbotManager: ChatbotManager</text><rect fill="none" height="6" style="stroke:#C82930;stroke-width:1.0;" width="6" x="1284.5" y="372.4453"/><text fill="#000000" font-family="sans-serif" font-size="14" lengthAdjust="spacing" textLength="192" x="1296.5" y="378.792">userManager: UserManager</text><rect fill="none" height="6" style="stroke:#C82930;stroke-width:1.0;" width="6" x="1284.5" y="388.7422"/><text fill="#000000" font-family="sans-serif" font-size="14" lengthAdjust="spacing" textLength="417" x="1296.5" y="395.0889">chatMessageManager: AppChatMessageDatabaseManager</text><line style="stroke:#181818;stroke-width:0.5;" x1="1277.5" x2="2647.5" y1="402.3906" y2="402.3906"/><ellipse cx="1287.5" cy="416.0391" fill="#84BE84" rx="3" ry="3" style="stroke:#038048;stroke-width:1.0;"/><text fill="#000000" font-family="sans-serif" font-size="14" lengthAdjust="spacing" textLength="1346" x="1296.5" y="419.3857">ChatbotManagerConsoleReaderCallback(reader: ConsoleReader, chatbotManager: ChatbotManager, userManager: UserManager, chatMessageManager: AppChatMessageDatabaseManager)</text><ellipse cx="1287.5" cy="432.3359" fill="#84BE84" rx="3" ry="3" style="stroke:#038048;stroke-width:1.0;"/><text fill="#000000" font-family="sans-serif" font-size="14" lengthAdjust="spacing" textLength="266" x="1296.5" y="435.6826">onInputReceived(input: String) : void</text></g><!--class LoginConsoleReaderCallback--><g id="elem_LoginConsoleReaderCallback"><rect codeLine="54" fill="#F1F1F1" height="145.7813" id="LoginConsoleReaderCallback" rx="2.5" ry="2.5" style="stroke:#181818;stroke-width:0.5;" width="783" x="2684" y="305"/><ellipse cx="2967.25" cy="321" fill="#ADD1B2" rx="11" ry="11" style="stroke:#181818;stroke-width:1.0;"/><path d="M2969.5938,316.6719 C2968.6563,316.2344 2968.0625,316.0938 2967.1875,316.0938 C2964.5625,316.0938 2962.5625,318.1719 2962.5625,320.8906 L2962.5625,322.0156 C2962.5625,324.5938 2964.6719,326.4844 2967.5625,326.4844 C2968.7813,326.4844 2969.9375,326.1875 2970.6875,325.6406 C2971.2656,325.2344 2971.5938,324.7813 2971.5938,324.3906 C2971.5938,323.9375 2971.2031,323.5469 2970.7344,323.5469 C2970.5156,323.5469 2970.3125,323.625 2970.125,323.8125 C2969.6719,324.2969 2969.6719,324.2969 2969.4844,324.3906 C2969.0625,324.6563 2968.375,324.7813 2967.6094,324.7813 C2965.5625,324.7813 2964.2656,323.6875 2964.2656,321.9844 L2964.2656,320.8906 C2964.2656,319.1094 2965.5156,317.7969 2967.25,317.7969 C2967.8281,317.7969 2968.4375,317.9531 2968.9063,318.2031 C2969.3906,318.4844 2969.5625,318.7031 2969.6563,319.1094 C2969.7188,319.5156 2969.75,319.6406 2969.8906,319.7656 C2970.0313,319.9063 2970.2656,320.0156 2970.4844,320.0156 C2970.75,320.0156 2971.0156,319.875 2971.1875,319.6563 C2971.2969,319.5 2971.3281,319.3125 2971.3281,318.8906 L2971.3281,317.4688 C2971.3281,317.0313 2971.3125,316.9063 2971.2188,316.75 C2971.0625,316.4844 2970.7813,316.3438 2970.4844,316.3438 C2970.1875,316.3438 2969.9844,316.4375 2969.7656,316.75 L2969.5938,316.6719 Z " fill="#000000"/><text fill="#000000" font-family="sans-serif" font-size="14" lengthAdjust="spacing" textLength="208" x="2987.75" y="325.8467">LoginConsoleReaderCallback</text><line style="stroke:#181818;stroke-width:0.5;" x1="2685" x2="3466" y1="337" y2="337"/><rect fill="none" height="6" style="stroke:#C82930;stroke-width:1.0;" width="6" x="2692" y="347.6484"/><text fill="#000000" font-family="sans-serif" font-size="14" lengthAdjust="spacing" textLength="124" x="2704" y="353.9951">register: Boolean</text><rect fill="none" height="6" style="stroke:#C82930;stroke-width:1.0;" width="6" x="2692" y="363.9453"/><text fill="#000000" font-family="sans-serif" font-size="14" lengthAdjust="spacing" textLength="83" x="2704" y="370.292">user: String</text><rect fill="none" height="6" style="stroke:#C82930;stroke-width:1.0;" width="6" x="2692" y="380.2422"/><text fill="#000000" font-family="sans-serif" font-size="14" lengthAdjust="spacing" textLength="192" x="2704" y="386.5889">userManager: UserManager</text><rect fill="none" height="6" style="stroke:#C82930;stroke-width:1.0;" width="6" x="2692" y="396.5391"/><text fill="#000000" font-family="sans-serif" font-size="14" lengthAdjust="spacing" textLength="167" x="2704" y="402.8857">printer: ConsolePrinter</text><line style="stroke:#181818;stroke-width:0.5;" x1="2685" x2="3466" y1="410.1875" y2="410.1875"/><ellipse cx="2695" cy="423.8359" fill="#84BE84" rx="3" ry="3" style="stroke:#038048;stroke-width:1.0;"/><text fill="#000000" font-family="sans-serif" font-size="14" lengthAdjust="spacing" textLength="757" x="2704" y="427.1826">LoginConsoleReaderCallback(reader: ConsoleReader, printer: ConsolePrinter, userManager: UserManager)</text><ellipse cx="2695" cy="440.1328" fill="#84BE84" rx="3" ry="3" style="stroke:#038048;stroke-width:1.0;"/><text fill="#000000" font-family="sans-serif" font-size="14" lengthAdjust="spacing" textLength="266" x="2704" y="443.4795">onInputReceived(input: String) : void</text></g><!--reverse link TextAnalyzer to WikiTextAnalyzer--><g id="link_TextAnalyzer_WikiTextAnalyzer"><path codeLine="63" d="M508.0318,81.8103 C442.4158,106.7983 356.408,139.553 290.911,164.496 " fill="none" id="TextAnalyzer-backto-WikiTextAnalyzer" style="stroke:#181818;stroke-width:1.0;"/><polygon fill="#181818" points="513.639,79.675,503.8047,79.1399,508.9664,81.4544,506.6518,86.6161,513.639,79.675" style="stroke:#181818;stroke-width:1.0;"/></g><!--reverse link TextAnalyzer to TranslationTextAnalyzer--><g id="link_TextAnalyzer_TranslationTextAnalyzer"><path codeLine="64" d="M595.5,85.675 C595.5,107.924 595.5,132.023 595.5,155.962 " fill="none" id="TextAnalyzer-backto-TranslationTextAnalyzer" style="stroke:#181818;stroke-width:1.0;"/><polygon fill="#181818" points="595.5,79.675,591.5,88.675,595.5,84.675,599.5,88.675,595.5,79.675" style="stroke:#181818;stroke-width:1.0;"/></g><!--reverse link TextAnalyzer to WeatherTextAnalyzer--><g id="link_TextAnalyzer_WeatherTextAnalyzer"><path codeLine="65" d="M691.4682,81.5381 C756.0812,103.7821 837.908,131.952 907.515,155.915 " fill="none" id="TextAnalyzer-backto-WeatherTextAnalyzer" style="stroke:#181818;stroke-width:1.0;"/><polygon fill="#181818" points="685.795,79.585,693.0028,86.2968,690.5227,81.2126,695.6069,78.7325,685.795,79.585" style="stroke:#181818;stroke-width:1.0;"/></g><!--reverse link WikiTextAnalyzer to AppWikiTextAnalyzer--><g id="link_WikiTextAnalyzer_AppWikiTextAnalyzer"><path codeLine="66" d="M205.7663,234.7371 C202.7443,264.8701 198.759,304.613 195.481,337.302 " fill="none" id="WikiTextAnalyzer-backto-AppWikiTextAnalyzer" style="stroke:#181818;stroke-width:1.0;stroke-dasharray:7.0,7.0;"/><polygon fill="#181818" points="206.365,228.767,201.4869,237.3229,205.8661,233.742,209.4469,238.1212,206.365,228.767" style="stroke:#181818;stroke-width:1.0;"/></g><!--reverse link TranslationTextAnalyzer to AppTranslationTextAnalyzer--><g id="link_TranslationTextAnalyzer_AppTranslationTextAnalyzer"><path codeLine="67" d="M595.5,243.337 C595.5,270.501 595.5,300.61 595.5,329.306 " fill="none" id="TranslationTextAnalyzer-backto-AppTranslationTextAnalyzer" style="stroke:#181818;stroke-width:1.0;stroke-dasharray:7.0,7.0;"/><polygon fill="#181818" points="595.5,237.337,591.5,246.337,595.5,242.337,599.5,246.337,595.5,237.337" style="stroke:#181818;stroke-width:1.0;"/></g><!--reverse link WeatherTextAnalyzer to AppWeatherTextAnalyzer--><g id="link_WeatherTextAnalyzer_AppWeatherTextAnalyzer"><path codeLine="68" d="M1024.0309,243.3336 C1024.9409,270.4976 1025.95,300.61 1026.91,329.306 " fill="none" id="WeatherTextAnalyzer-backto-AppWeatherTextAnalyzer" style="stroke:#181818;stroke-width:1.0;stroke-dasharray:7.0,7.0;"/><polygon fill="#181818" points="1023.83,237.337,1020.1336,246.4659,1023.9974,242.3342,1028.1291,246.198,1023.83,237.337" style="stroke:#181818;stroke-width:1.0;"/></g><!--reverse link AppConsoleReaderCallback to ChatbotManagerConsoleReaderCallback--><g id="link_AppConsoleReaderCallback_ChatbotManagerConsoleReaderCallback"><path codeLine="69" d="M2365.6202,246.8573 C2300.7102,267.8123 2229.19,290.903 2159.42,313.427 " fill="none" id="AppConsoleReaderCallback-backto-ChatbotManagerConsoleReaderCallback" style="stroke:#181818;stroke-width:1.0;"/><polygon fill="#181818" points="2371.33,245.014,2361.5364,243.9724,2366.5718,246.5501,2363.9941,251.5855,2371.33,245.014" style="stroke:#181818;stroke-width:1.0;"/></g><!--reverse link AppConsoleReaderCallback to LoginConsoleReaderCallback--><g id="link_AppConsoleReaderCallback_LoginConsoleReaderCallback"><path codeLine="70" d="M2671.6508,246.8543 C2728.6208,265.2123 2789.35,284.785 2851.94,304.955 " fill="none" id="AppConsoleReaderCallback-backto-LoginConsoleReaderCallback" style="stroke:#181818;stroke-width:1.0;"/><polygon fill="#181818" points="2665.94,245.014,2673.2794,251.5816,2670.699,246.5475,2675.7331,243.9672,2665.94,245.014" style="stroke:#181818;stroke-width:1.0;"/></g><!--reverse link ConsoleReaderCallback to AppConsoleReaderCallback--><g id="link_ConsoleReaderCallback_AppConsoleReaderCallback"><path codeLine="71" d="M2518.5,94.28 C2518.5,112.647 2518.5,128.599 2518.5,147.843 " fill="none" id="ConsoleReaderCallback-backto-AppConsoleReaderCallback" style="stroke:#181818;stroke-width:1.0;stroke-dasharray:7.0,7.0;"/><polygon fill="#181818" points="2518.5,88.28,2514.5,97.28,2518.5,93.28,2522.5,97.28,2518.5,88.28" style="stroke:#181818;stroke-width:1.0;"/></g><!--SRC=[jPNRRi8m38Rl-nIv175uW0fDOapJ9e4s0TEkJV1Aj2wfd1JjeBtxKWBjkZQb5HfNnB7_VlsTEa8Qf1VWoDRuRgOIuezF9FOLCFiRW5ltZDqBsSgGa56VXUmEz6u1oSH5XiUTg-0x24Gk-2nUHPse3H5miq8WlbiZlLNatR-osff0wXYCKB91DDjQgrCk-fHB9K0HcZd8A8K8Mx4y8vWTKWF7NF43QXk0ezei9K9f7kXM4NBGfW65nw0rcoQ9p-EkZUlSc9pWJ5yk0VdFPXOE-djv2Vl_7e3YACwKr2h69SBMAa0SRu2_dbv0oNkPf6Q97CKUjpsHhNuBxfNOkjHK4aP2MzbUjh5HLXHaoQccHute40tBF4xQLzghhUctuvdjm6oKMTWUHLQo2OsNKiC_fIudrKXvmbEnA1GMgBMDv4dPMnNX6p2m0Os_omOj6Eiz6B9cvY7pyRhAJgpzBcSbzt-k8Y7Fd0ZNlv1T7vkNErtw2ivudz3XiESEFRgrW_PJ-8proFaTxMfFQP1CHgFADLZDy8pG6gdgh0egDy1aFAwx6GBVe3xc-o3gvkFf4JKutZcHyRVu89e5_FqEF4MEj7Rp1m00]--></g></svg>