<?xml version="1.0" encoding="us-ascii" standalone="no"?><svg xmlns="http://www.w3.org/2000/svg" xmlns:xlink="http://www.w3.org/1999/xlink" contentStyleType="text/css" height="479px" preserveAspectRatio="none" style="width:3431px;height:479px;background:#FFFFFF;" version="1.1" viewBox="0 0 3431 479" width="3431px" zoomAndPan="magnify"><defs/><g><!--class TranslationResult--><g id="elem_TranslationResult"><rect codeLine="1" fill="#F1F1F1" height="113.1875" id="TranslationResult" rx="2.5" ry="2.5" style="stroke:#181818;stroke-width:0.5;" width="231" x="106" y="31.5"/><ellipse cx="155.25" cy="47.5" fill="#B4A7E5" rx="11" ry="11" style="stroke:#181818;stroke-width:1.0;"/><path d="M156.2031,44.2813 L157.9219,44.2813 C158.3125,44.2813 158.5,44.25 158.625,44.1719 C158.8906,44.0156 159.0312,43.7344 159.0312,43.4375 C159.0312,43.1719 158.9219,42.9063 158.6875,42.7344 C158.5156,42.625 158.375,42.5938 157.9219,42.5938 L152.7812,42.5938 C152.3437,42.5938 152.2187,42.6094 152.0625,42.7031 C151.8125,42.8594 151.6562,43.1563 151.6562,43.4375 C151.6562,43.7188 151.7969,43.9688 152.0156,44.1406 C152.1719,44.25 152.3594,44.2813 152.7812,44.2813 L154.5,44.2813 L154.5,50.7969 L152.7812,50.7969 C152.3437,50.7969 152.2187,50.8125 152.0625,50.9219 C151.8125,51.0781 151.6562,51.3594 151.6562,51.6563 C151.6562,51.9063 151.7969,52.1719 152.0156,52.3281 C152.1719,52.4531 152.375,52.5 152.7812,52.5 L157.9219,52.5 C158.6719,52.5 159.0312,52.2188 159.0312,51.6563 C159.0312,51.375 158.9219,51.125 158.6875,50.9531 C158.5156,50.8281 158.375,50.7969 157.9219,50.7969 L156.2031,50.7969 L156.2031,44.2813 Z " fill="#000000"/><text fill="#000000" font-family="sans-serif" font-size="14" font-style="italic" lengthAdjust="spacing" textLength="124" x="175.75" y="52.3467">TranslationResult</text><line style="stroke:#181818;stroke-width:0.5;" x1="107" x2="336" y1="63.5" y2="63.5"/><line style="stroke:#181818;stroke-width:0.5;" x1="107" x2="336" y1="71.5" y2="71.5"/><ellipse cx="117" cy="85.1484" fill="#84BE84" rx="3" ry="3" style="stroke:#038048;stroke-width:1.0;"/><text fill="#000000" font-family="sans-serif" font-size="14" lengthAdjust="spacing" textLength="205" x="126" y="88.4951">getSourceLanguage(): String</text><ellipse cx="117" cy="101.4453" fill="#84BE84" rx="3" ry="3" style="stroke:#038048;stroke-width:1.0;"/><text fill="#000000" font-family="sans-serif" font-size="14" lengthAdjust="spacing" textLength="204" x="126" y="104.792">getTargetLanguage(): String</text><ellipse cx="117" cy="117.7422" fill="#84BE84" rx="3" ry="3" style="stroke:#038048;stroke-width:1.0;"/><text fill="#000000" font-family="sans-serif" font-size="14" lengthAdjust="spacing" textLength="121" x="126" y="121.0889">getText(): String</text><ellipse cx="117" cy="134.0391" fill="#84BE84" rx="3" ry="3" style="stroke:#038048;stroke-width:1.0;"/><text fill="#000000" font-family="sans-serif" font-size="14" lengthAdjust="spacing" textLength="168" x="126" y="137.3857">getTranslation(): String</text></g><!--class ChatbotManager--><g id="elem_ChatbotManager"><rect codeLine="8" fill="#F1F1F1" height="113.1875" id="ChatbotManager" rx="2.5" ry="2.5" style="stroke:#181818;stroke-width:0.5;" width="449" x="524" y="31.5"/><ellipse cx="684.75" cy="47.5" fill="#B4A7E5" rx="11" ry="11" style="stroke:#181818;stroke-width:1.0;"/><path d="M685.7031,44.2813 L687.4219,44.2813 C687.8125,44.2813 688,44.25 688.125,44.1719 C688.3906,44.0156 688.5313,43.7344 688.5313,43.4375 C688.5313,43.1719 688.4219,42.9063 688.1875,42.7344 C688.0156,42.625 687.875,42.5938 687.4219,42.5938 L682.2813,42.5938 C681.8438,42.5938 681.7188,42.6094 681.5625,42.7031 C681.3125,42.8594 681.1563,43.1563 681.1563,43.4375 C681.1563,43.7188 681.2969,43.9688 681.5156,44.1406 C681.6719,44.25 681.8594,44.2813 682.2813,44.2813 L684,44.2813 L684,50.7969 L682.2813,50.7969 C681.8438,50.7969 681.7188,50.8125 681.5625,50.9219 C681.3125,51.0781 681.1563,51.3594 681.1563,51.6563 C681.1563,51.9063 681.2969,52.1719 681.5156,52.3281 C681.6719,52.4531 681.875,52.5 682.2813,52.5 L687.4219,52.5 C688.1719,52.5 688.5313,52.2188 688.5313,51.6563 C688.5313,51.375 688.4219,51.125 688.1875,50.9531 C688.0156,50.8281 687.875,50.7969 687.4219,50.7969 L685.7031,50.7969 L685.7031,44.2813 Z " fill="#000000"/><text fill="#000000" font-family="sans-serif" font-size="14" font-style="italic" lengthAdjust="spacing" textLength="119" x="705.25" y="52.3467">ChatbotManager</text><line style="stroke:#181818;stroke-width:0.5;" x1="525" x2="972" y1="63.5" y2="63.5"/><line style="stroke:#181818;stroke-width:0.5;" x1="525" x2="972" y1="71.5" y2="71.5"/><ellipse cx="535" cy="85.1484" fill="#84BE84" rx="3" ry="3" style="stroke:#038048;stroke-width:1.0;"/><text fill="#000000" font-family="sans-serif" font-size="14" lengthAdjust="spacing" textLength="232" x="544" y="88.4951">getBots(): Collection&lt;Chatbot&gt;</text><ellipse cx="535" cy="101.4453" fill="#84BE84" rx="3" ry="3" style="stroke:#038048;stroke-width:1.0;"/><text fill="#000000" font-family="sans-serif" font-size="14" lengthAdjust="spacing" textLength="423" x="544" y="104.792">registerBot(chatbot: Chatbot): CompletableFuture&lt;Void&gt;</text><ellipse cx="535" cy="117.7422" fill="#84BE84" rx="3" ry="3" style="stroke:#038048;stroke-width:1.0;"/><text fill="#000000" font-family="sans-serif" font-size="14" lengthAdjust="spacing" textLength="276" x="544" y="121.0889">unregisterBot(chatbot: Chatbot): void</text><ellipse cx="535" cy="134.0391" fill="#84BE84" rx="3" ry="3" style="stroke:#038048;stroke-width:1.0;"/><text fill="#000000" font-family="sans-serif" font-size="14" lengthAdjust="spacing" textLength="361" x="544" y="137.3857">executeCommand(sender: User, text: String): void</text></g><!--class TranslationApi--><g id="elem_TranslationApi"><rect codeLine="15" fill="#F1F1F1" height="80.5938" id="TranslationApi" rx="2.5" ry="2.5" style="stroke:#181818;stroke-width:0.5;" width="417" x="1061" y="47.5"/><ellipse cx="1213.75" cy="63.5" fill="#B4A7E5" rx="11" ry="11" style="stroke:#181818;stroke-width:1.0;"/><path d="M1214.7031,60.2813 L1216.4219,60.2813 C1216.8125,60.2813 1217,60.25 1217.125,60.1719 C1217.3906,60.0156 1217.5313,59.7344 1217.5313,59.4375 C1217.5313,59.1719 1217.4219,58.9063 1217.1875,58.7344 C1217.0156,58.625 1216.875,58.5938 1216.4219,58.5938 L1211.2813,58.5938 C1210.8438,58.5938 1210.7188,58.6094 1210.5625,58.7031 C1210.3125,58.8594 1210.1563,59.1563 1210.1563,59.4375 C1210.1563,59.7188 1210.2969,59.9688 1210.5156,60.1406 C1210.6719,60.25 1210.8594,60.2813 1211.2813,60.2813 L1213,60.2813 L1213,66.7969 L1211.2813,66.7969 C1210.8438,66.7969 1210.7188,66.8125 1210.5625,66.9219 C1210.3125,67.0781 1210.1563,67.3594 1210.1563,67.6563 C1210.1563,67.9063 1210.2969,68.1719 1210.5156,68.3281 C1210.6719,68.4531 1210.875,68.5 1211.2813,68.5 L1216.4219,68.5 C1217.1719,68.5 1217.5313,68.2188 1217.5313,67.6563 C1217.5313,67.375 1217.4219,67.125 1217.1875,66.9531 C1217.0156,66.8281 1216.875,66.7969 1216.4219,66.7969 L1214.7031,66.7969 L1214.7031,60.2813 Z " fill="#000000"/><text fill="#000000" font-family="sans-serif" font-size="14" font-style="italic" lengthAdjust="spacing" textLength="103" x="1234.25" y="68.3467">TranslationApi</text><line style="stroke:#181818;stroke-width:0.5;" x1="1062" x2="1477" y1="79.5" y2="79.5"/><line style="stroke:#181818;stroke-width:0.5;" x1="1062" x2="1477" y1="87.5" y2="87.5"/><ellipse cx="1072" cy="101.1484" fill="#84BE84" rx="3" ry="3" style="stroke:#038048;stroke-width:1.0;"/><text fill="#000000" font-family="sans-serif" font-size="14" lengthAdjust="spacing" textLength="277" x="1081" y="104.4951">translate(destinationLanguage: String,</text><text fill="#000000" font-family="sans-serif" font-size="14" lengthAdjust="spacing" textLength="391" x="1081" y="120.792">value: String): CompletableFuture&lt;TranslationResult&gt;</text></g><!--class ApiCredentials--><g id="elem_ApiCredentials"><rect codeLine="20" fill="#F1F1F1" height="64.2969" id="ApiCredentials" rx="2.5" ry="2.5" style="stroke:#181818;stroke-width:0.5;" width="165" x="1618" y="56"/><ellipse cx="1646.05" cy="72" fill="#B4A7E5" rx="11" ry="11" style="stroke:#181818;stroke-width:1.0;"/><path d="M1647.0031,68.7813 L1648.7219,68.7813 C1649.1125,68.7813 1649.3,68.75 1649.425,68.6719 C1649.6906,68.5156 1649.8313,68.2344 1649.8313,67.9375 C1649.8313,67.6719 1649.7219,67.4063 1649.4875,67.2344 C1649.3156,67.125 1649.175,67.0938 1648.7219,67.0938 L1643.5813,67.0938 C1643.1438,67.0938 1643.0188,67.1094 1642.8625,67.2031 C1642.6125,67.3594 1642.4563,67.6563 1642.4563,67.9375 C1642.4563,68.2188 1642.5969,68.4688 1642.8156,68.6406 C1642.9719,68.75 1643.1594,68.7813 1643.5813,68.7813 L1645.3,68.7813 L1645.3,75.2969 L1643.5813,75.2969 C1643.1438,75.2969 1643.0188,75.3125 1642.8625,75.4219 C1642.6125,75.5781 1642.4563,75.8594 1642.4563,76.1563 C1642.4563,76.4063 1642.5969,76.6719 1642.8156,76.8281 C1642.9719,76.9531 1643.175,77 1643.5813,77 L1648.7219,77 C1649.4719,77 1649.8313,76.7188 1649.8313,76.1563 C1649.8313,75.875 1649.7219,75.625 1649.4875,75.4531 C1649.3156,75.3281 1649.175,75.2969 1648.7219,75.2969 L1647.0031,75.2969 L1647.0031,68.7813 Z " fill="#000000"/><text fill="#000000" font-family="sans-serif" font-size="14" font-style="italic" lengthAdjust="spacing" textLength="104" x="1662.95" y="76.8467">ApiCredentials</text><line style="stroke:#181818;stroke-width:0.5;" x1="1619" x2="1782" y1="88" y2="88"/><line style="stroke:#181818;stroke-width:0.5;" x1="1619" x2="1782" y1="96" y2="96"/><ellipse cx="1629" cy="109.6484" fill="#84BE84" rx="3" ry="3" style="stroke:#038048;stroke-width:1.0;"/><text fill="#000000" font-family="sans-serif" font-size="14" lengthAdjust="spacing" textLength="139" x="1638" y="112.9951">getApiKey(): String</text></g><!--class ConsoleReader--><g id="elem_ConsoleReader"><rect codeLine="24" fill="#F1F1F1" height="162.0781" id="ConsoleReader" rx="2.5" ry="2.5" style="stroke:#181818;stroke-width:0.5;" width="456" x="2024.5" y="7"/><ellipse cx="2193.75" cy="23" fill="#B4A7E5" rx="11" ry="11" style="stroke:#181818;stroke-width:1.0;"/><path d="M2194.7031,19.7813 L2196.4219,19.7813 C2196.8125,19.7813 2197,19.75 2197.125,19.6719 C2197.3906,19.5156 2197.5313,19.2344 2197.5313,18.9375 C2197.5313,18.6719 2197.4219,18.4063 2197.1875,18.2344 C2197.0156,18.125 2196.875,18.0938 2196.4219,18.0938 L2191.2813,18.0938 C2190.8438,18.0938 2190.7188,18.1094 2190.5625,18.2031 C2190.3125,18.3594 2190.1563,18.6563 2190.1563,18.9375 C2190.1563,19.2188 2190.2969,19.4688 2190.5156,19.6406 C2190.6719,19.75 2190.8594,19.7813 2191.2813,19.7813 L2193,19.7813 L2193,26.2969 L2191.2813,26.2969 C2190.8438,26.2969 2190.7188,26.3125 2190.5625,26.4219 C2190.3125,26.5781 2190.1563,26.8594 2190.1563,27.1563 C2190.1563,27.4063 2190.2969,27.6719 2190.5156,27.8281 C2190.6719,27.9531 2190.875,28 2191.2813,28 L2196.4219,28 C2197.1719,28 2197.5313,27.7188 2197.5313,27.1563 C2197.5313,26.875 2197.4219,26.625 2197.1875,26.4531 C2197.0156,26.3281 2196.875,26.2969 2196.4219,26.2969 L2194.7031,26.2969 L2194.7031,19.7813 Z " fill="#000000"/><text fill="#000000" font-family="sans-serif" font-size="14" font-style="italic" lengthAdjust="spacing" textLength="109" x="2214.25" y="27.8467">ConsoleReader</text><line style="stroke:#181818;stroke-width:0.5;" x1="2025.5" x2="2479.5" y1="39" y2="39"/><line style="stroke:#181818;stroke-width:0.5;" x1="2025.5" x2="2479.5" y1="47" y2="47"/><ellipse cx="2035.5" cy="60.6484" fill="#84BE84" rx="3" ry="3" style="stroke:#038048;stroke-width:1.0;"/><text fill="#000000" font-family="sans-serif" font-size="14" lengthAdjust="spacing" textLength="173" x="2044.5" y="63.9951">getInput(): InputStream</text><ellipse cx="2035.5" cy="76.9453" fill="#84BE84" rx="3" ry="3" style="stroke:#038048;stroke-width:1.0;"/><text fill="#000000" font-family="sans-serif" font-size="14" lengthAdjust="spacing" textLength="84" x="2044.5" y="80.292">start(): void</text><ellipse cx="2035.5" cy="93.2422" fill="#84BE84" rx="3" ry="3" style="stroke:#038048;stroke-width:1.0;"/><text fill="#000000" font-family="sans-serif" font-size="14" lengthAdjust="spacing" textLength="82" x="2044.5" y="96.5889">stop(): void</text><ellipse cx="2035.5" cy="109.5391" fill="#84BE84" rx="3" ry="3" style="stroke:#038048;stroke-width:1.0;"/><text fill="#000000" font-family="sans-serif" font-size="14" lengthAdjust="spacing" textLength="146" x="2044.5" y="112.8857">isRunning(): boolean</text><ellipse cx="2035.5" cy="125.8359" fill="#84BE84" rx="3" ry="3" style="stroke:#038048;stroke-width:1.0;"/><text fill="#000000" font-family="sans-serif" font-size="14" lengthAdjust="spacing" textLength="376" x="2044.5" y="129.1826">getCallbacks(): Collection&lt;ConsoleReaderCallback&gt;</text><ellipse cx="2035.5" cy="142.1328" fill="#84BE84" rx="3" ry="3" style="stroke:#038048;stroke-width:1.0;"/><text fill="#000000" font-family="sans-serif" font-size="14" lengthAdjust="spacing" textLength="373" x="2044.5" y="145.4795">addCallback(callback: ConsoleReaderCallback): void</text><ellipse cx="2035.5" cy="158.4297" fill="#84BE84" rx="3" ry="3" style="stroke:#038048;stroke-width:1.0;"/><text fill="#000000" font-family="sans-serif" font-size="14" lengthAdjust="spacing" textLength="430" x="2044.5" y="161.7764">removeCallback(callback: ConsoleReaderCallback): boolean</text></g><!--class ConsolePrinter--><g id="elem_ConsolePrinter"><rect codeLine="34" fill="#F1F1F1" height="96.8906" id="ConsolePrinter" rx="2.5" ry="2.5" style="stroke:#181818;stroke-width:0.5;" width="374" x="2833.5" y="39.5"/><ellipse cx="2964.25" cy="55.5" fill="#B4A7E5" rx="11" ry="11" style="stroke:#181818;stroke-width:1.0;"/><path d="M2965.2031,52.2813 L2966.9219,52.2813 C2967.3125,52.2813 2967.5,52.25 2967.625,52.1719 C2967.8906,52.0156 2968.0313,51.7344 2968.0313,51.4375 C2968.0313,51.1719 2967.9219,50.9063 2967.6875,50.7344 C2967.5156,50.625 2967.375,50.5938 2966.9219,50.5938 L2961.7813,50.5938 C2961.3438,50.5938 2961.2188,50.6094 2961.0625,50.7031 C2960.8125,50.8594 2960.6563,51.1563 2960.6563,51.4375 C2960.6563,51.7188 2960.7969,51.9688 2961.0156,52.1406 C2961.1719,52.25 2961.3594,52.2813 2961.7813,52.2813 L2963.5,52.2813 L2963.5,58.7969 L2961.7813,58.7969 C2961.3438,58.7969 2961.2188,58.8125 2961.0625,58.9219 C2960.8125,59.0781 2960.6563,59.3594 2960.6563,59.6563 C2960.6563,59.9063 2960.7969,60.1719 2961.0156,60.3281 C2961.1719,60.4531 2961.375,60.5 2961.7813,60.5 L2966.9219,60.5 C2967.6719,60.5 2968.0313,60.2188 2968.0313,59.6563 C2968.0313,59.375 2967.9219,59.125 2967.6875,58.9531 C2967.5156,58.8281 2967.375,58.7969 2966.9219,58.7969 L2965.2031,58.7969 L2965.2031,52.2813 Z " fill="#000000"/><text fill="#000000" font-family="sans-serif" font-size="14" font-style="italic" lengthAdjust="spacing" textLength="104" x="2984.75" y="60.3467">ConsolePrinter</text><line style="stroke:#181818;stroke-width:0.5;" x1="2834.5" x2="3206.5" y1="71.5" y2="71.5"/><line style="stroke:#181818;stroke-width:0.5;" x1="2834.5" x2="3206.5" y1="79.5" y2="79.5"/><ellipse cx="2844.5" cy="93.1484" fill="#84BE84" rx="3" ry="3" style="stroke:#038048;stroke-width:1.0;"/><text fill="#000000" font-family="sans-serif" font-size="14" lengthAdjust="spacing" textLength="188" x="2853.5" y="96.4951">println(value: String): void</text><ellipse cx="2844.5" cy="109.4453" fill="#84BE84" rx="3" ry="3" style="stroke:#038048;stroke-width:1.0;"/><text fill="#000000" font-family="sans-serif" font-size="14" lengthAdjust="spacing" textLength="348" x="2853.5" y="112.792">println(value: String, askForInput: boolean): void</text><ellipse cx="2844.5" cy="125.7422" fill="#84BE84" rx="3" ry="3" style="stroke:#038048;stroke-width:1.0;"/><text fill="#000000" font-family="sans-serif" font-size="14" lengthAdjust="spacing" textLength="175" x="2853.5" y="129.0889">print(value: String): void</text></g><!--class AppTranslationResult--><g id="elem_AppTranslationResult"><rect codeLine="40" fill="#F1F1F1" height="210.9688" id="AppTranslationResult" rx="2.5" ry="2.5" style="stroke:#181818;stroke-width:0.5;" width="429" x="7" y="245.5"/><ellipse cx="139.75" cy="261.5" fill="#ADD1B2" rx="11" ry="11" style="stroke:#181818;stroke-width:1.0;"/><path d="M142.0938,257.1719 C141.1563,256.7344 140.5625,256.5938 139.6875,256.5938 C137.0625,256.5938 135.0625,258.6719 135.0625,261.3906 L135.0625,262.5156 C135.0625,265.0938 137.1719,266.9844 140.0625,266.9844 C141.2813,266.9844 142.4375,266.6875 143.1875,266.1406 C143.7656,265.7344 144.0938,265.2813 144.0938,264.8906 C144.0938,264.4375 143.7031,264.0469 143.2344,264.0469 C143.0156,264.0469 142.8125,264.125 142.625,264.3125 C142.1719,264.7969 142.1719,264.7969 141.9844,264.8906 C141.5625,265.1563 140.875,265.2813 140.1094,265.2813 C138.0625,265.2813 136.7656,264.1875 136.7656,262.4844 L136.7656,261.3906 C136.7656,259.6094 138.0156,258.2969 139.75,258.2969 C140.3281,258.2969 140.9375,258.4531 141.4063,258.7031 C141.8906,258.9844 142.0625,259.2031 142.1563,259.6094 C142.2188,260.0156 142.25,260.1406 142.3906,260.2656 C142.5313,260.4063 142.7656,260.5156 142.9844,260.5156 C143.25,260.5156 143.5156,260.375 143.6875,260.1563 C143.7969,260 143.8281,259.8125 143.8281,259.3906 L143.8281,257.9688 C143.8281,257.5313 143.8125,257.4063 143.7188,257.25 C143.5625,256.9844 143.2813,256.8438 142.9844,256.8438 C142.6875,256.8438 142.4844,256.9375 142.2656,257.25 L142.0938,257.1719 Z " fill="#000000"/><text fill="#000000" font-family="sans-serif" font-size="14" lengthAdjust="spacing" textLength="155" x="160.25" y="266.3467">AppTranslationResult</text><line style="stroke:#181818;stroke-width:0.5;" x1="8" x2="435" y1="277.5" y2="277.5"/><rect fill="none" height="6" style="stroke:#C82930;stroke-width:1.0;" width="6" x="15" y="288.1484"/><text fill="#000000" font-family="sans-serif" font-size="14" lengthAdjust="spacing" textLength="168" x="27" y="294.4951">sourceLanguage: String</text><rect fill="none" height="6" style="stroke:#C82930;stroke-width:1.0;" width="6" x="15" y="304.4453"/><text fill="#000000" font-family="sans-serif" font-size="14" lengthAdjust="spacing" textLength="167" x="27" y="310.792">targetLanguage: String</text><rect fill="none" height="6" style="stroke:#C82930;stroke-width:1.0;" width="6" x="15" y="320.7422"/><text fill="#000000" font-family="sans-serif" font-size="14" lengthAdjust="spacing" textLength="131" x="27" y="327.0889">translation: String</text><rect fill="none" height="6" style="stroke:#C82930;stroke-width:1.0;" width="6" x="15" y="337.0391"/><text fill="#000000" font-family="sans-serif" font-size="14" lengthAdjust="spacing" textLength="84" x="27" y="343.3857">text: String</text><line style="stroke:#181818;stroke-width:0.5;" x1="8" x2="435" y1="350.6875" y2="350.6875"/><ellipse cx="18" cy="364.3359" fill="#84BE84" rx="3" ry="3" style="stroke:#038048;stroke-width:1.0;"/><text fill="#000000" font-family="sans-serif" font-size="14" lengthAdjust="spacing" textLength="332" x="27" y="367.6826">AppTranslationResult(sourceLanguage: String,</text><text fill="#000000" font-family="sans-serif" font-size="14" lengthAdjust="spacing" textLength="403" x="27" y="383.9795">targetLanguage: String, translation: String, text: String)</text><ellipse cx="18" cy="396.9297" fill="#84BE84" rx="3" ry="3" style="stroke:#038048;stroke-width:1.0;"/><text fill="#000000" font-family="sans-serif" font-size="14" lengthAdjust="spacing" textLength="205" x="27" y="400.2764">getSourceLanguage(): String</text><ellipse cx="18" cy="413.2266" fill="#84BE84" rx="3" ry="3" style="stroke:#038048;stroke-width:1.0;"/><text fill="#000000" font-family="sans-serif" font-size="14" lengthAdjust="spacing" textLength="204" x="27" y="416.5732">getTargetLanguage(): String</text><ellipse cx="18" cy="429.5234" fill="#84BE84" rx="3" ry="3" style="stroke:#038048;stroke-width:1.0;"/><text fill="#000000" font-family="sans-serif" font-size="14" lengthAdjust="spacing" textLength="121" x="27" y="432.8701">getText(): String</text><ellipse cx="18" cy="445.8203" fill="#84BE84" rx="3" ry="3" style="stroke:#038048;stroke-width:1.0;"/><text fill="#000000" font-family="sans-serif" font-size="14" lengthAdjust="spacing" textLength="168" x="27" y="449.167">getTranslation(): String</text></g><!--class AppChatbotManager--><g id="elem_AppChatbotManager"><rect codeLine="53" fill="#F1F1F1" height="194.6719" id="AppChatbotManager" rx="2.5" ry="2.5" style="stroke:#181818;stroke-width:0.5;" width="555" x="471" y="253.5"/><ellipse cx="668.75" cy="269.5" fill="#ADD1B2" rx="11" ry="11" style="stroke:#181818;stroke-width:1.0;"/><path d="M671.0938,265.1719 C670.1563,264.7344 669.5625,264.5938 668.6875,264.5938 C666.0625,264.5938 664.0625,266.6719 664.0625,269.3906 L664.0625,270.5156 C664.0625,273.0938 666.1719,274.9844 669.0625,274.9844 C670.2813,274.9844 671.4375,274.6875 672.1875,274.1406 C672.7656,273.7344 673.0938,273.2813 673.0938,272.8906 C673.0938,272.4375 672.7031,272.0469 672.2344,272.0469 C672.0156,272.0469 671.8125,272.125 671.625,272.3125 C671.1719,272.7969 671.1719,272.7969 670.9844,272.8906 C670.5625,273.1563 669.875,273.2813 669.1094,273.2813 C667.0625,273.2813 665.7656,272.1875 665.7656,270.4844 L665.7656,269.3906 C665.7656,267.6094 667.0156,266.2969 668.75,266.2969 C669.3281,266.2969 669.9375,266.4531 670.4063,266.7031 C670.8906,266.9844 671.0625,267.2031 671.1563,267.6094 C671.2188,268.0156 671.25,268.1406 671.3906,268.2656 C671.5313,268.4063 671.7656,268.5156 671.9844,268.5156 C672.25,268.5156 672.5156,268.375 672.6875,268.1563 C672.7969,268 672.8281,267.8125 672.8281,267.3906 L672.8281,265.9688 C672.8281,265.5313 672.8125,265.4063 672.7188,265.25 C672.5625,264.9844 672.2813,264.8438 671.9844,264.8438 C671.6875,264.8438 671.4844,264.9375 671.2656,265.25 L671.0938,265.1719 Z " fill="#000000"/><text fill="#000000" font-family="sans-serif" font-size="14" lengthAdjust="spacing" textLength="151" x="689.25" y="274.3467">AppChatbotManager</text><line style="stroke:#181818;stroke-width:0.5;" x1="472" x2="1025" y1="285.5" y2="285.5"/><rect fill="none" height="6" style="stroke:#C82930;stroke-width:1.0;" width="6" x="479" y="296.1484"/><text fill="#000000" font-family="sans-serif" font-size="14" lengthAdjust="spacing" textLength="197" x="491" y="302.4951">bots: Collection&lt;Chatbot&gt;</text><rect fill="none" height="6" style="stroke:#C82930;stroke-width:1.0;" width="6" x="479" y="312.4453"/><text fill="#000000" font-family="sans-serif" font-size="14" lengthAdjust="spacing" textLength="369" x="491" y="318.792">databaseManager: ChatbotEntityDatabaseManager</text><rect fill="none" height="6" style="stroke:#C82930;stroke-width:1.0;" width="6" x="479" y="328.7422"/><text fill="#000000" font-family="sans-serif" font-size="14" lengthAdjust="spacing" textLength="167" x="491" y="335.0889">printer: ConsolePrinter</text><line style="stroke:#181818;stroke-width:0.5;" x1="472" x2="1025" y1="342.3906" y2="342.3906"/><ellipse cx="482" cy="356.0391" fill="#84BE84" rx="3" ry="3" style="stroke:#038048;stroke-width:1.0;"/><text fill="#000000" font-family="sans-serif" font-size="14" lengthAdjust="spacing" textLength="529" x="491" y="359.3857">AppChatbotManager(databaseManager: ChatbotEntityDatabaseManager,</text><text fill="#000000" font-family="sans-serif" font-size="14" lengthAdjust="spacing" textLength="172" x="491" y="375.6826">printer: ConsolePrinter)</text><ellipse cx="482" cy="388.6328" fill="#84BE84" rx="3" ry="3" style="stroke:#038048;stroke-width:1.0;"/><text fill="#000000" font-family="sans-serif" font-size="14" lengthAdjust="spacing" textLength="232" x="491" y="391.9795">getBots(): Collection&lt;Chatbot&gt;</text><ellipse cx="482" cy="404.9297" fill="#84BE84" rx="3" ry="3" style="stroke:#038048;stroke-width:1.0;"/><text fill="#000000" font-family="sans-serif" font-size="14" lengthAdjust="spacing" textLength="423" x="491" y="408.2764">registerBot(chatbot: Chatbot): CompletableFuture&lt;Void&gt;</text><ellipse cx="482" cy="421.2266" fill="#84BE84" rx="3" ry="3" style="stroke:#038048;stroke-width:1.0;"/><text fill="#000000" font-family="sans-serif" font-size="14" lengthAdjust="spacing" textLength="276" x="491" y="424.5732">unregisterBot(chatbot: Chatbot): void</text><ellipse cx="482" cy="437.5234" fill="#84BE84" rx="3" ry="3" style="stroke:#038048;stroke-width:1.0;"/><text fill="#000000" font-family="sans-serif" font-size="14" lengthAdjust="spacing" textLength="361" x="491" y="440.8701">executeCommand(sender: User, text: String): void</text></g><!--class DeepLTranslationApi--><g id="elem_DeepLTranslationApi"><rect codeLine="65" fill="#F1F1F1" height="162.0781" id="DeepLTranslationApi" rx="2.5" ry="2.5" style="stroke:#181818;stroke-width:0.5;" width="417" x="1061" y="270"/><ellipse cx="1189.75" cy="286" fill="#ADD1B2" rx="11" ry="11" style="stroke:#181818;stroke-width:1.0;"/><path d="M1192.0938,281.6719 C1191.1563,281.2344 1190.5625,281.0938 1189.6875,281.0938 C1187.0625,281.0938 1185.0625,283.1719 1185.0625,285.8906 L1185.0625,287.0156 C1185.0625,289.5938 1187.1719,291.4844 1190.0625,291.4844 C1191.2813,291.4844 1192.4375,291.1875 1193.1875,290.6406 C1193.7656,290.2344 1194.0938,289.7813 1194.0938,289.3906 C1194.0938,288.9375 1193.7031,288.5469 1193.2344,288.5469 C1193.0156,288.5469 1192.8125,288.625 1192.625,288.8125 C1192.1719,289.2969 1192.1719,289.2969 1191.9844,289.3906 C1191.5625,289.6563 1190.875,289.7813 1190.1094,289.7813 C1188.0625,289.7813 1186.7656,288.6875 1186.7656,286.9844 L1186.7656,285.8906 C1186.7656,284.1094 1188.0156,282.7969 1189.75,282.7969 C1190.3281,282.7969 1190.9375,282.9531 1191.4063,283.2031 C1191.8906,283.4844 1192.0625,283.7031 1192.1563,284.1094 C1192.2188,284.5156 1192.25,284.6406 1192.3906,284.7656 C1192.5313,284.9063 1192.7656,285.0156 1192.9844,285.0156 C1193.25,285.0156 1193.5156,284.875 1193.6875,284.6563 C1193.7969,284.5 1193.8281,284.3125 1193.8281,283.8906 L1193.8281,282.4688 C1193.8281,282.0313 1193.8125,281.9063 1193.7188,281.75 C1193.5625,281.4844 1193.2813,281.3438 1192.9844,281.3438 C1192.6875,281.3438 1192.4844,281.4375 1192.2656,281.75 L1192.0938,281.6719 Z " fill="#000000"/><text fill="#000000" font-family="sans-serif" font-size="14" lengthAdjust="spacing" textLength="151" x="1210.25" y="290.8467">DeepLTranslationApi</text><line style="stroke:#181818;stroke-width:0.5;" x1="1062" x2="1477" y1="302" y2="302"/><rect fill="none" height="6" style="stroke:#C82930;stroke-width:1.0;" width="6" x="1069" y="312.6484"/><text fill="#000000" font-family="sans-serif" font-size="14" lengthAdjust="spacing" textLength="157" x="1081" y="318.9951">jsonParser: JsonParser</text><rect fill="none" height="6" style="stroke:#C82930;stroke-width:1.0;" width="6" x="1069" y="328.9453"/><text fill="#000000" font-family="sans-serif" font-size="14" lengthAdjust="spacing" textLength="202" x="1081" y="335.292">httpWrapper: HttpWrapper</text><rect fill="none" height="6" style="stroke:#C82930;stroke-width:1.0;" width="6" x="1069" y="345.2422"/><text fill="#000000" font-family="sans-serif" font-size="14" lengthAdjust="spacing" textLength="102" x="1081" y="351.5889">apiKey: String</text><line style="stroke:#181818;stroke-width:0.5;" x1="1062" x2="1477" y1="358.8906" y2="358.8906"/><ellipse cx="1072" cy="372.5391" fill="#84BE84" rx="3" ry="3" style="stroke:#038048;stroke-width:1.0;"/><text fill="#000000" font-family="sans-serif" font-size="14" lengthAdjust="spacing" textLength="317" x="1081" y="375.8857">DeepLTranslationApi(jsonParser: JsonParser,</text><text fill="#000000" font-family="sans-serif" font-size="14" lengthAdjust="spacing" textLength="386" x="1081" y="392.1826">httpWrapper: HttpWrapper, credentials: Credentials)</text><ellipse cx="1072" cy="405.1328" fill="#84BE84" rx="3" ry="3" style="stroke:#038048;stroke-width:1.0;"/><text fill="#000000" font-family="sans-serif" font-size="14" lengthAdjust="spacing" textLength="241" x="1081" y="408.4795">translate(targetLanguage: String,</text><text fill="#000000" font-family="sans-serif" font-size="14" lengthAdjust="spacing" textLength="391" x="1081" y="424.7764">value: String): CompletableFuture&lt;TranslationResult&gt;</text></g><!--class YamlApiCredentials--><g id="elem_YamlApiCredentials"><rect codeLine="75" fill="#F1F1F1" height="129.4844" id="YamlApiCredentials" rx="2.5" ry="2.5" style="stroke:#181818;stroke-width:0.5;" width="375" x="1513" y="286.5"/><ellipse cx="1625.75" cy="302.5" fill="#ADD1B2" rx="11" ry="11" style="stroke:#181818;stroke-width:1.0;"/><path d="M1628.0938,298.1719 C1627.1563,297.7344 1626.5625,297.5938 1625.6875,297.5938 C1623.0625,297.5938 1621.0625,299.6719 1621.0625,302.3906 L1621.0625,303.5156 C1621.0625,306.0938 1623.1719,307.9844 1626.0625,307.9844 C1627.2813,307.9844 1628.4375,307.6875 1629.1875,307.1406 C1629.7656,306.7344 1630.0938,306.2813 1630.0938,305.8906 C1630.0938,305.4375 1629.7031,305.0469 1629.2344,305.0469 C1629.0156,305.0469 1628.8125,305.125 1628.625,305.3125 C1628.1719,305.7969 1628.1719,305.7969 1627.9844,305.8906 C1627.5625,306.1563 1626.875,306.2813 1626.1094,306.2813 C1624.0625,306.2813 1622.7656,305.1875 1622.7656,303.4844 L1622.7656,302.3906 C1622.7656,300.6094 1624.0156,299.2969 1625.75,299.2969 C1626.3281,299.2969 1626.9375,299.4531 1627.4063,299.7031 C1627.8906,299.9844 1628.0625,300.2031 1628.1563,300.6094 C1628.2188,301.0156 1628.25,301.1406 1628.3906,301.2656 C1628.5313,301.4063 1628.7656,301.5156 1628.9844,301.5156 C1629.25,301.5156 1629.5156,301.375 1629.6875,301.1563 C1629.7969,301 1629.8281,300.8125 1629.8281,300.3906 L1629.8281,298.9688 C1629.8281,298.5313 1629.8125,298.4063 1629.7188,298.25 C1629.5625,297.9844 1629.2813,297.8438 1628.9844,297.8438 C1628.6875,297.8438 1628.4844,297.9375 1628.2656,298.25 L1628.0938,298.1719 Z " fill="#000000"/><text fill="#000000" font-family="sans-serif" font-size="14" lengthAdjust="spacing" textLength="141" x="1646.25" y="307.3467">YamlApiCredentials</text><line style="stroke:#181818;stroke-width:0.5;" x1="1514" x2="1887" y1="318.5" y2="318.5"/><rect fill="none" height="6" style="stroke:#C82930;stroke-width:1.0;" width="6" x="1521" y="329.1484"/><text fill="#000000" font-family="sans-serif" font-size="14" lengthAdjust="spacing" textLength="171" x="1533" y="335.4951">credentials: Credentials</text><rect fill="none" height="6" style="stroke:#C82930;stroke-width:1.0;" width="6" x="1521" y="345.4453"/><text fill="#000000" font-family="sans-serif" font-size="14" lengthAdjust="spacing" textLength="344" x="1533" y="351.792">apiKeyExtractor: Function&lt;Credentials, String&gt;</text><line style="stroke:#181818;stroke-width:0.5;" x1="1514" x2="1887" y1="359.0938" y2="359.0938"/><ellipse cx="1524" cy="372.7422" fill="#84BE84" rx="3" ry="3" style="stroke:#038048;stroke-width:1.0;"/><text fill="#000000" font-family="sans-serif" font-size="14" lengthAdjust="spacing" textLength="321" x="1533" y="376.0889">YamlApiCredentials(credentials: Credentials,</text><text fill="#000000" font-family="sans-serif" font-size="14" lengthAdjust="spacing" textLength="349" x="1533" y="392.3857">apiKeyExtractor: Function&lt;Credentials, String&gt;)</text><ellipse cx="1524" cy="405.3359" fill="#84BE84" rx="3" ry="3" style="stroke:#038048;stroke-width:1.0;"/><text fill="#000000" font-family="sans-serif" font-size="14" lengthAdjust="spacing" textLength="139" x="1533" y="408.6826">getApiKey(): String</text></g><!--class AppConsoleReader--><g id="elem_AppConsoleReader"><rect codeLine="83" fill="#F1F1F1" height="243.5625" id="AppConsoleReader" rx="2.5" ry="2.5" style="stroke:#181818;stroke-width:0.5;" width="659" x="1923" y="229"/><ellipse cx="2179.25" cy="245" fill="#ADD1B2" rx="11" ry="11" style="stroke:#181818;stroke-width:1.0;"/><path d="M2181.5938,240.6719 C2180.6563,240.2344 2180.0625,240.0938 2179.1875,240.0938 C2176.5625,240.0938 2174.5625,242.1719 2174.5625,244.8906 L2174.5625,246.0156 C2174.5625,248.5938 2176.6719,250.4844 2179.5625,250.4844 C2180.7813,250.4844 2181.9375,250.1875 2182.6875,249.6406 C2183.2656,249.2344 2183.5938,248.7813 2183.5938,248.3906 C2183.5938,247.9375 2183.2031,247.5469 2182.7344,247.5469 C2182.5156,247.5469 2182.3125,247.625 2182.125,247.8125 C2181.6719,248.2969 2181.6719,248.2969 2181.4844,248.3906 C2181.0625,248.6563 2180.375,248.7813 2179.6094,248.7813 C2177.5625,248.7813 2176.2656,247.6875 2176.2656,245.9844 L2176.2656,244.8906 C2176.2656,243.1094 2177.5156,241.7969 2179.25,241.7969 C2179.8281,241.7969 2180.4375,241.9531 2180.9063,242.2031 C2181.3906,242.4844 2181.5625,242.7031 2181.6563,243.1094 C2181.7188,243.5156 2181.75,243.6406 2181.8906,243.7656 C2182.0313,243.9063 2182.2656,244.0156 2182.4844,244.0156 C2182.75,244.0156 2183.0156,243.875 2183.1875,243.6563 C2183.2969,243.5 2183.3281,243.3125 2183.3281,242.8906 L2183.3281,241.4688 C2183.3281,241.0313 2183.3125,240.9063 2183.2188,240.75 C2183.0625,240.4844 2182.7813,240.3438 2182.4844,240.3438 C2182.1875,240.3438 2181.9844,240.4375 2181.7656,240.75 L2181.5938,240.6719 Z " fill="#000000"/><text fill="#000000" font-family="sans-serif" font-size="14" lengthAdjust="spacing" textLength="138" x="2199.75" y="249.8467">AppConsoleReader</text><line style="stroke:#181818;stroke-width:0.5;" x1="1924" x2="2581" y1="261" y2="261"/><rect fill="none" height="6" style="stroke:#C82930;stroke-width:1.0;" width="6" x="1931" y="271.6484"/><text fill="#000000" font-family="sans-serif" font-size="14" lengthAdjust="spacing" textLength="138" x="1943" y="277.9951">input: InputStream</text><rect fill="none" height="6" style="stroke:#C82930;stroke-width:1.0;" width="6" x="1931" y="287.9453"/><text fill="#000000" font-family="sans-serif" font-size="14" lengthAdjust="spacing" textLength="136" x="1943" y="294.292">isRunning: boolean</text><rect fill="none" height="6" style="stroke:#C82930;stroke-width:1.0;" width="6" x="1931" y="304.2422"/><text fill="#000000" font-family="sans-serif" font-size="14" lengthAdjust="spacing" textLength="123" x="1943" y="310.5889">scanner: Scanner</text><rect fill="none" height="6" style="stroke:#C82930;stroke-width:1.0;" width="6" x="1931" y="320.5391"/><text fill="#000000" font-family="sans-serif" font-size="14" lengthAdjust="spacing" textLength="339" x="1943" y="326.8857">callbacks: Collection&lt;ConsoleReaderCallback&gt;</text><line style="stroke:#181818;stroke-width:0.5;" x1="1924" x2="2581" y1="334.1875" y2="334.1875"/><ellipse cx="1934" cy="347.8359" fill="#84BE84" rx="3" ry="3" style="stroke:#038048;stroke-width:1.0;"/><text fill="#000000" font-family="sans-serif" font-size="14" lengthAdjust="spacing" textLength="633" x="1943" y="351.1826">AppConsoleReader(input: InputStream, callbacks: Collection&lt;ConsoleReaderCallback&gt;)</text><ellipse cx="1934" cy="364.1328" fill="#84BE84" rx="3" ry="3" style="stroke:#038048;stroke-width:1.0;"/><text fill="#000000" font-family="sans-serif" font-size="14" lengthAdjust="spacing" textLength="173" x="1943" y="367.4795">getInput(): InputStream</text><ellipse cx="1934" cy="380.4297" fill="#84BE84" rx="3" ry="3" style="stroke:#038048;stroke-width:1.0;"/><text fill="#000000" font-family="sans-serif" font-size="14" lengthAdjust="spacing" textLength="84" x="1943" y="383.7764">start(): void</text><ellipse cx="1934" cy="396.7266" fill="#84BE84" rx="3" ry="3" style="stroke:#038048;stroke-width:1.0;"/><text fill="#000000" font-family="sans-serif" font-size="14" lengthAdjust="spacing" textLength="82" x="1943" y="400.0732">stop(): void</text><ellipse cx="1934" cy="413.0234" fill="#84BE84" rx="3" ry="3" style="stroke:#038048;stroke-width:1.0;"/><text fill="#000000" font-family="sans-serif" font-size="14" lengthAdjust="spacing" textLength="146" x="1943" y="416.3701">isRunning(): boolean</text><ellipse cx="1934" cy="429.3203" fill="#84BE84" rx="3" ry="3" style="stroke:#038048;stroke-width:1.0;"/><text fill="#000000" font-family="sans-serif" font-size="14" lengthAdjust="spacing" textLength="376" x="1943" y="432.667">getCallbacks(): Collection&lt;ConsoleReaderCallback&gt;</text><ellipse cx="1934" cy="445.6172" fill="#84BE84" rx="3" ry="3" style="stroke:#038048;stroke-width:1.0;"/><text fill="#000000" font-family="sans-serif" font-size="14" lengthAdjust="spacing" textLength="373" x="1943" y="448.9639">addCallback(callback: ConsoleReaderCallback): void</text><ellipse cx="1934" cy="461.9141" fill="#84BE84" rx="3" ry="3" style="stroke:#038048;stroke-width:1.0;"/><text fill="#000000" font-family="sans-serif" font-size="14" lengthAdjust="spacing" textLength="430" x="1943" y="465.2607">removeCallback(callback: ConsoleReaderCallback): boolean</text></g><!--class AppConsolePrinter--><g id="elem_AppConsolePrinter"><rect codeLine="98" fill="#F1F1F1" height="178.375" id="AppConsolePrinter" rx="2.5" ry="2.5" style="stroke:#181818;stroke-width:0.5;" width="807" x="2617" y="262"/><ellipse cx="2947.75" cy="278" fill="#ADD1B2" rx="11" ry="11" style="stroke:#181818;stroke-width:1.0;"/><path d="M2950.0938,273.6719 C2949.1563,273.2344 2948.5625,273.0938 2947.6875,273.0938 C2945.0625,273.0938 2943.0625,275.1719 2943.0625,277.8906 L2943.0625,279.0156 C2943.0625,281.5938 2945.1719,283.4844 2948.0625,283.4844 C2949.2813,283.4844 2950.4375,283.1875 2951.1875,282.6406 C2951.7656,282.2344 2952.0938,281.7813 2952.0938,281.3906 C2952.0938,280.9375 2951.7031,280.5469 2951.2344,280.5469 C2951.0156,280.5469 2950.8125,280.625 2950.625,280.8125 C2950.1719,281.2969 2950.1719,281.2969 2949.9844,281.3906 C2949.5625,281.6563 2948.875,281.7813 2948.1094,281.7813 C2946.0625,281.7813 2944.7656,280.6875 2944.7656,278.9844 L2944.7656,277.8906 C2944.7656,276.1094 2946.0156,274.7969 2947.75,274.7969 C2948.3281,274.7969 2948.9375,274.9531 2949.4063,275.2031 C2949.8906,275.4844 2950.0625,275.7031 2950.1563,276.1094 C2950.2188,276.5156 2950.25,276.6406 2950.3906,276.7656 C2950.5313,276.9063 2950.7656,277.0156 2950.9844,277.0156 C2951.25,277.0156 2951.5156,276.875 2951.6875,276.6563 C2951.7969,276.5 2951.8281,276.3125 2951.8281,275.8906 L2951.8281,274.4688 C2951.8281,274.0313 2951.8125,273.9063 2951.7188,273.75 C2951.5625,273.4844 2951.2813,273.3438 2950.9844,273.3438 C2950.6875,273.3438 2950.4844,273.4375 2950.2656,273.75 L2950.0938,273.6719 Z " fill="#000000"/><text fill="#000000" font-family="sans-serif" font-size="14" lengthAdjust="spacing" textLength="137" x="2968.25" y="282.8467">AppConsolePrinter</text><line style="stroke:#181818;stroke-width:0.5;" x1="2618" x2="3423" y1="294" y2="294"/><rect fill="none" height="6" style="stroke:#C82930;stroke-width:1.0;" width="6" x="2625" y="304.6484"/><text fill="#000000" font-family="sans-serif" font-size="14" lengthAdjust="spacing" textLength="485" x="2637" y="310.9951">chatMessageDatabaseManager: AppChatMessageDatabaseManager</text><rect fill="none" height="6" style="stroke:#C82930;stroke-width:1.0;" width="6" x="2625" y="320.9453"/><text fill="#000000" font-family="sans-serif" font-size="14" lengthAdjust="spacing" textLength="192" x="2637" y="327.292">userManager: UserManager</text><line style="stroke:#181818;stroke-width:0.5;" x1="2618" x2="3423" y1="334.5938" y2="334.5938"/><ellipse cx="2628" cy="348.2422" fill="#84BE84" rx="3" ry="3" style="stroke:#038048;stroke-width:1.0;"/><text fill="#000000" font-family="sans-serif" font-size="14" lengthAdjust="spacing" textLength="147" x="2637" y="351.5889">AppConsolePrinter()</text><ellipse cx="2628" cy="364.5391" fill="#84BE84" rx="3" ry="3" style="stroke:#038048;stroke-width:1.0;"/><text fill="#000000" font-family="sans-serif" font-size="14" lengthAdjust="spacing" textLength="188" x="2637" y="367.8857">println(value: String): void</text><ellipse cx="2628" cy="380.8359" fill="#84BE84" rx="3" ry="3" style="stroke:#038048;stroke-width:1.0;"/><text fill="#000000" font-family="sans-serif" font-size="14" lengthAdjust="spacing" textLength="348" x="2637" y="384.1826">println(value: String, askForInput: boolean): void</text><ellipse cx="2628" cy="397.1328" fill="#84BE84" rx="3" ry="3" style="stroke:#038048;stroke-width:1.0;"/><text fill="#000000" font-family="sans-serif" font-size="14" lengthAdjust="spacing" textLength="175" x="2637" y="400.4795">print(value: String): void</text><ellipse cx="2628" cy="413.4297" fill="#84BE84" rx="3" ry="3" style="stroke:#038048;stroke-width:1.0;"/><text fill="#000000" font-family="sans-serif" font-size="14" lengthAdjust="spacing" textLength="781" x="2637" y="416.7764">setChatMessageDatabaseManager(chatMessageDatabaseManager: AppChatMessageDatabaseManager): void</text><ellipse cx="2628" cy="429.7266" fill="#84BE84" rx="3" ry="3" style="stroke:#038048;stroke-width:1.0;"/><text fill="#000000" font-family="sans-serif" font-size="14" lengthAdjust="spacing" textLength="356" x="2637" y="433.0732">setUserManager(userManager: UserManager): void</text></g><!--reverse link TranslationResult to AppTranslationResult--><g id="link_TranslationResult_AppTranslationResult"><path codeLine="109" d="M221.5,150.671 C221.5,180.015 221.5,210.982 221.5,245.436 " fill="none" id="TranslationResult-backto-AppTranslationResult" style="stroke:#181818;stroke-width:1.0;stroke-dasharray:7.0,7.0;"/><polygon fill="#181818" points="221.5,144.671,217.5,153.671,221.5,149.671,225.5,153.671,221.5,144.671" style="stroke:#181818;stroke-width:1.0;"/></g><!--reverse link ChatbotManager to AppChatbotManager--><g id="link_ChatbotManager_AppChatbotManager"><path codeLine="110" d="M748.5,150.671 C748.5,182.26 748.5,216.685 748.5,253.298 " fill="none" id="ChatbotManager-backto-AppChatbotManager" style="stroke:#181818;stroke-width:1.0;stroke-dasharray:7.0,7.0;"/><polygon fill="#181818" points="748.5,144.671,744.5,153.671,748.5,149.671,752.5,153.671,748.5,144.671" style="stroke:#181818;stroke-width:1.0;"/></g><!--reverse link TranslationApi to DeepLTranslationApi--><g id="link_TranslationApi_DeepLTranslationApi"><path codeLine="111" d="M1269.5,134.64 C1269.5,172.003 1269.5,223.092 1269.5,269.934 " fill="none" id="TranslationApi-backto-DeepLTranslationApi" style="stroke:#181818;stroke-width:1.0;stroke-dasharray:7.0,7.0;"/><polygon fill="#181818" points="1269.5,128.64,1265.5,137.64,1269.5,133.64,1273.5,137.64,1269.5,128.64" style="stroke:#181818;stroke-width:1.0;"/></g><!--reverse link ApiCredentials to YamlApiCredentials--><g id="link_ApiCredentials_YamlApiCredentials"><path codeLine="112" d="M1700.5,126.223 C1700.5,167.087 1700.5,233.687 1700.5,286.367 " fill="none" id="ApiCredentials-backto-YamlApiCredentials" style="stroke:#181818;stroke-width:1.0;stroke-dasharray:7.0,7.0;"/><polygon fill="#181818" points="1700.5,120.223,1696.5,129.223,1700.5,125.223,1704.5,129.223,1700.5,120.223" style="stroke:#181818;stroke-width:1.0;"/></g><!--reverse link ConsoleReader to AppConsoleReader--><g id="link_ConsoleReader_AppConsoleReader"><path codeLine="113" d="M2252.5,175.082 C2252.5,193.963 2252.5,208.508 2252.5,228.754 " fill="none" id="ConsoleReader-backto-AppConsoleReader" style="stroke:#181818;stroke-width:1.0;stroke-dasharray:7.0,7.0;"/><polygon fill="#181818" points="2252.5,169.082,2248.5,178.082,2252.5,174.082,2256.5,178.082,2252.5,169.082" style="stroke:#181818;stroke-width:1.0;"/></g><!--reverse link ConsolePrinter to AppConsolePrinter--><g id="link_ConsolePrinter_AppConsolePrinter"><path codeLine="114" d="M3020.5,142.568 C3020.5,177.488 3020.5,219.937 3020.5,261.849 " fill="none" id="ConsolePrinter-backto-AppConsolePrinter" style="stroke:#181818;stroke-width:1.0;stroke-dasharray:7.0,7.0;"/><polygon fill="#181818" points="3020.5,136.568,3016.5,145.568,3020.5,141.568,3024.5,145.568,3020.5,136.568" style="stroke:#181818;stroke-width:1.0;"/></g><!--SRC=[vLPRJzim57xFhyYZgpNyW0eXRGMq2qYemAOzdYPd9SEr8zkfGDF- -uuJ9x4JPrjvGTDUglZShzzfAGogRv1ZUgT0Q0wcb6A3kkOc_P6awPiTcbjPgnolGEngs25RhD9ReqgnS-mxKFGxpyOdCoKEpZpUpoGf-tZM3s2sqbo38Akg3-QTDDggh2Ndc5i3fqxop4eet9MQJ90OorlwgZFLQEqhZWQs72zhKoiy_IpBej6inHzq3oHf1V49yzeWcTg3A9X6KQ1QfVSQrJ8rb6sNJwSJfELb_hOgsxICeo4hK9jIDDoke9srPP8UWDVeMPzcCsdYMUYTNAuL5YXC2LptHINo9toUxOGKMdBS81HU8pw8gcuQstoG7iBUihG1rT2xUcaZA_zTwaqj17cnnAqaoo2SpJLmleNyST9XFu9EgEaQ54NtPhdxMALHUIy4XNjvm2CKkp1ZTRbH3QajJ6KVNB1ngphFKVuo1VruALLJoTxPM2jkaoBAEMXDhQtYAvpfO7-zJSnCiBe1Pp0LaBtnje75dBAuFvhVk3jQcgcpqIQz0XBrLOq0KKPlFOT1MG6qag3HQVGOSa5RPvxFGwvLgDe9MeqcoXKuzC-Eiav5dp6- -AVnj6tEEM9r5G7KxBkMuWQKjdO-zj-Mys1CzKL1LLdM- -5XUT2We3yV4GSiRfiAFMTwcUO3v581XiSY1F-PzNWvxhTL-Wfx7i7zR2wgeHGNJnHSRYJbSraBDno3uD95rBHxweNDEQ2CZhE_-CsP6jPqSgMoiiNJy41b_Vtnhq-cSn32Tkws_MWgr9sZlpn6uoZOD00QXYECBlxpMpjkhdzgCmifrwWrxShv61CTRCRPLhccdUsbxuT7s4RdZorUvRJRVbAVPlDWBwv0wC5BdytLnSFUwR-CqvEJwD-FP7GwdLn8JKO0ReKYk9kC8CoAJJ4d2L6WS-WJaz4iXJAE-Wi0]--></g></svg>