<?xml version="1.0" encoding="us-ascii" standalone="no"?><svg xmlns="http://www.w3.org/2000/svg" xmlns:xlink="http://www.w3.org/1999/xlink" contentStyleType="text/css" height="462px" preserveAspectRatio="none" style="width:4287px;height:462px;background:#FFFFFF;" version="1.1" viewBox="0 0 4287 462" width="4287px" zoomAndPan="magnify"><defs/><g><!--class WeatherResult--><g id="elem_WeatherResult"><rect codeLine="1" fill="#F1F1F1" height="129.4844" id="WeatherResult" rx="2.5" ry="2.5" style="stroke:#181818;stroke-width:0.5;" width="246" x="108" y="7"/><ellipse cx="174.25" cy="23" fill="#B4A7E5" rx="11" ry="11" style="stroke:#181818;stroke-width:1.0;"/><path d="M175.2031,19.7813 L176.9219,19.7813 C177.3125,19.7813 177.5,19.75 177.625,19.6719 C177.8906,19.5156 178.0313,19.2344 178.0313,18.9375 C178.0313,18.6719 177.9219,18.4063 177.6875,18.2344 C177.5156,18.125 177.375,18.0938 176.9219,18.0938 L171.7813,18.0938 C171.3438,18.0938 171.2188,18.1094 171.0625,18.2031 C170.8125,18.3594 170.6563,18.6563 170.6563,18.9375 C170.6563,19.2188 170.7969,19.4688 171.0156,19.6406 C171.1719,19.75 171.3594,19.7813 171.7813,19.7813 L173.5,19.7813 L173.5,26.2969 L171.7813,26.2969 C171.3438,26.2969 171.2188,26.3125 171.0625,26.4219 C170.8125,26.5781 170.6563,26.8594 170.6563,27.1563 C170.6563,27.4063 170.7969,27.6719 171.0156,27.8281 C171.1719,27.9531 171.375,28 171.7813,28 L176.9219,28 C177.6719,28 178.0313,27.7188 178.0313,27.1563 C178.0313,26.875 177.9219,26.625 177.6875,26.4531 C177.5156,26.3281 177.375,26.2969 176.9219,26.2969 L175.2031,26.2969 L175.2031,19.7813 Z " fill="#000000"/><text fill="#000000" font-family="sans-serif" font-size="14" font-style="italic" lengthAdjust="spacing" textLength="105" x="194.75" y="27.8467">WeatherResult</text><line style="stroke:#181818;stroke-width:0.5;" x1="109" x2="353" y1="39" y2="39"/><line style="stroke:#181818;stroke-width:0.5;" x1="109" x2="353" y1="47" y2="47"/><ellipse cx="119" cy="60.6484" fill="#84BE84" rx="3" ry="3" style="stroke:#038048;stroke-width:1.0;"/><text fill="#000000" font-family="sans-serif" font-size="14" lengthAdjust="spacing" textLength="123" x="128" y="63.9951">getDate(): String</text><ellipse cx="119" cy="76.9453" fill="#84BE84" rx="3" ry="3" style="stroke:#038048;stroke-width:1.0;"/><text fill="#000000" font-family="sans-serif" font-size="14" lengthAdjust="spacing" textLength="220" x="128" y="80.292">getWeatherCondition(): String</text><ellipse cx="119" cy="93.2422" fill="#84BE84" rx="3" ry="3" style="stroke:#038048;stroke-width:1.0;"/><text fill="#000000" font-family="sans-serif" font-size="14" lengthAdjust="spacing" textLength="183" x="128" y="96.5889">getTemperature(): String</text><ellipse cx="119" cy="109.5391" fill="#84BE84" rx="3" ry="3" style="stroke:#038048;stroke-width:1.0;"/><text fill="#000000" font-family="sans-serif" font-size="14" lengthAdjust="spacing" textLength="168" x="128" y="112.8857">getWindspeed(): String</text><ellipse cx="119" cy="125.8359" fill="#84BE84" rx="3" ry="3" style="stroke:#038048;stroke-width:1.0;"/><text fill="#000000" font-family="sans-serif" font-size="14" lengthAdjust="spacing" textLength="152" x="128" y="129.1826">getHumidity(): String</text></g><!--class HttpWrapper--><g id="elem_HttpWrapper"><rect codeLine="9" fill="#F1F1F1" height="80.5938" id="HttpWrapper" rx="2.5" ry="2.5" style="stroke:#181818;stroke-width:0.5;" width="804" x="490" y="31"/><ellipse cx="841.75" cy="47" fill="#B4A7E5" rx="11" ry="11" style="stroke:#181818;stroke-width:1.0;"/><path d="M842.7031,43.7813 L844.4219,43.7813 C844.8125,43.7813 845,43.75 845.125,43.6719 C845.3906,43.5156 845.5313,43.2344 845.5313,42.9375 C845.5313,42.6719 845.4219,42.4063 845.1875,42.2344 C845.0156,42.125 844.875,42.0938 844.4219,42.0938 L839.2813,42.0938 C838.8438,42.0938 838.7188,42.1094 838.5625,42.2031 C838.3125,42.3594 838.1563,42.6563 838.1563,42.9375 C838.1563,43.2188 838.2969,43.4688 838.5156,43.6406 C838.6719,43.75 838.8594,43.7813 839.2813,43.7813 L841,43.7813 L841,50.2969 L839.2813,50.2969 C838.8438,50.2969 838.7188,50.3125 838.5625,50.4219 C838.3125,50.5781 838.1563,50.8594 838.1563,51.1563 C838.1563,51.4063 838.2969,51.6719 838.5156,51.8281 C838.6719,51.9531 838.875,52 839.2813,52 L844.4219,52 C845.1719,52 845.5313,51.7188 845.5313,51.1563 C845.5313,50.875 845.4219,50.625 845.1875,50.4531 C845.0156,50.3281 844.875,50.2969 844.4219,50.2969 L842.7031,50.2969 L842.7031,43.7813 Z " fill="#000000"/><text fill="#000000" font-family="sans-serif" font-size="14" font-style="italic" lengthAdjust="spacing" textLength="92" x="862.25" y="51.8467">HttpWrapper</text><line style="stroke:#181818;stroke-width:0.5;" x1="491" x2="1293" y1="63" y2="63"/><line style="stroke:#181818;stroke-width:0.5;" x1="491" x2="1293" y1="71" y2="71"/><ellipse cx="501" cy="84.6484" fill="#84BE84" rx="3" ry="3" style="stroke:#038048;stroke-width:1.0;"/><text fill="#000000" font-family="sans-serif" font-size="14" lengthAdjust="spacing" textLength="242" x="510" y="87.9951">sendAsync(request: HttpRequest,</text><text fill="#000000" font-family="sans-serif" font-size="14" lengthAdjust="spacing" textLength="778" x="510" y="104.292">responseBodyHandler: HttpResponse.BodyHandler&lt;String&gt;): CompletableFuture&lt;HttpResponse&lt;String&gt;&gt;</text></g><!--class UserManager--><g id="elem_UserManager"><rect codeLine="14" fill="#F1F1F1" height="96.8906" id="UserManager" rx="2.5" ry="2.5" style="stroke:#181818;stroke-width:0.5;" width="546" x="1488" y="23"/><ellipse cx="1709.25" cy="39" fill="#B4A7E5" rx="11" ry="11" style="stroke:#181818;stroke-width:1.0;"/><path d="M1710.2031,35.7813 L1711.9219,35.7813 C1712.3125,35.7813 1712.5,35.75 1712.625,35.6719 C1712.8906,35.5156 1713.0313,35.2344 1713.0313,34.9375 C1713.0313,34.6719 1712.9219,34.4063 1712.6875,34.2344 C1712.5156,34.125 1712.375,34.0938 1711.9219,34.0938 L1706.7813,34.0938 C1706.3438,34.0938 1706.2188,34.1094 1706.0625,34.2031 C1705.8125,34.3594 1705.6563,34.6563 1705.6563,34.9375 C1705.6563,35.2188 1705.7969,35.4688 1706.0156,35.6406 C1706.1719,35.75 1706.3594,35.7813 1706.7813,35.7813 L1708.5,35.7813 L1708.5,42.2969 L1706.7813,42.2969 C1706.3438,42.2969 1706.2188,42.3125 1706.0625,42.4219 C1705.8125,42.5781 1705.6563,42.8594 1705.6563,43.1563 C1705.6563,43.4063 1705.7969,43.6719 1706.0156,43.8281 C1706.1719,43.9531 1706.375,44 1706.7813,44 L1711.9219,44 C1712.6719,44 1713.0313,43.7188 1713.0313,43.1563 C1713.0313,42.875 1712.9219,42.625 1712.6875,42.4531 C1712.5156,42.3281 1712.375,42.2969 1711.9219,42.2969 L1710.2031,42.2969 L1710.2031,35.7813 Z " fill="#000000"/><text fill="#000000" font-family="sans-serif" font-size="14" font-style="italic" lengthAdjust="spacing" textLength="95" x="1729.75" y="43.8467">UserManager</text><line style="stroke:#181818;stroke-width:0.5;" x1="1489" x2="2033" y1="55" y2="55"/><line style="stroke:#181818;stroke-width:0.5;" x1="1489" x2="2033" y1="63" y2="63"/><ellipse cx="1499" cy="76.6484" fill="#84BE84" rx="3" ry="3" style="stroke:#038048;stroke-width:1.0;"/><text fill="#000000" font-family="sans-serif" font-size="14" lengthAdjust="spacing" textLength="172" x="1508" y="79.9951">getLoggedInUser(): User</text><ellipse cx="1499" cy="92.9453" fill="#84BE84" rx="3" ry="3" style="stroke:#038048;stroke-width:1.0;"/><text fill="#000000" font-family="sans-serif" font-size="14" lengthAdjust="spacing" textLength="498" x="1508" y="96.292">login(username: String, password: String): CompletableFuture&lt;User&gt;</text><ellipse cx="1499" cy="109.2422" fill="#84BE84" rx="3" ry="3" style="stroke:#038048;stroke-width:1.0;"/><text fill="#000000" font-family="sans-serif" font-size="14" lengthAdjust="spacing" textLength="520" x="1508" y="112.5889">register(username: String, password: String): CompletableFuture&lt;User&gt;</text></g><!--class YamlParser--><g id="elem_YamlParser"><rect codeLine="20" fill="#F1F1F1" height="64.2969" id="YamlParser" rx="2.5" ry="2.5" style="stroke:#181818;stroke-width:0.5;" width="393" x="2227.5" y="39.5"/><ellipse cx="2379.25" cy="55.5" fill="#B4A7E5" rx="11" ry="11" style="stroke:#181818;stroke-width:1.0;"/><path d="M2380.2031,52.2813 L2381.9219,52.2813 C2382.3125,52.2813 2382.5,52.25 2382.625,52.1719 C2382.8906,52.0156 2383.0313,51.7344 2383.0313,51.4375 C2383.0313,51.1719 2382.9219,50.9063 2382.6875,50.7344 C2382.5156,50.625 2382.375,50.5938 2381.9219,50.5938 L2376.7813,50.5938 C2376.3438,50.5938 2376.2188,50.6094 2376.0625,50.7031 C2375.8125,50.8594 2375.6563,51.1563 2375.6563,51.4375 C2375.6563,51.7188 2375.7969,51.9688 2376.0156,52.1406 C2376.1719,52.25 2376.3594,52.2813 2376.7813,52.2813 L2378.5,52.2813 L2378.5,58.7969 L2376.7813,58.7969 C2376.3438,58.7969 2376.2188,58.8125 2376.0625,58.9219 C2375.8125,59.0781 2375.6563,59.3594 2375.6563,59.6563 C2375.6563,59.9063 2375.7969,60.1719 2376.0156,60.3281 C2376.1719,60.4531 2376.375,60.5 2376.7813,60.5 L2381.9219,60.5 C2382.6719,60.5 2383.0313,60.2188 2383.0313,59.6563 C2383.0313,59.375 2382.9219,59.125 2382.6875,58.9531 C2382.5156,58.8281 2382.375,58.7969 2381.9219,58.7969 L2380.2031,58.7969 L2380.2031,52.2813 Z " fill="#000000"/><text fill="#000000" font-family="sans-serif" font-size="14" font-style="italic" lengthAdjust="spacing" textLength="81" x="2399.75" y="60.3467">YamlParser</text><line style="stroke:#181818;stroke-width:0.5;" x1="2228.5" x2="2619.5" y1="71.5" y2="71.5"/><line style="stroke:#181818;stroke-width:0.5;" x1="2228.5" x2="2619.5" y1="79.5" y2="79.5"/><ellipse cx="2238.5" cy="93.1484" fill="#84BE84" rx="3" ry="3" style="stroke:#038048;stroke-width:1.0;"/><text fill="#000000" font-family="sans-serif" font-size="14" lengthAdjust="spacing" textLength="367" x="2247.5" y="96.4951">load(inputStream: InputStream, type: Class&lt;T&gt;): T</text></g><!--class WikiApi--><g id="elem_WikiApi"><rect codeLine="24" fill="#F1F1F1" height="64.2969" id="WikiApi" rx="2.5" ry="2.5" style="stroke:#181818;stroke-width:0.5;" width="463" x="2688.5" y="39.5"/><ellipse cx="2889.25" cy="55.5" fill="#B4A7E5" rx="11" ry="11" style="stroke:#181818;stroke-width:1.0;"/><path d="M2890.2031,52.2813 L2891.9219,52.2813 C2892.3125,52.2813 2892.5,52.25 2892.625,52.1719 C2892.8906,52.0156 2893.0313,51.7344 2893.0313,51.4375 C2893.0313,51.1719 2892.9219,50.9063 2892.6875,50.7344 C2892.5156,50.625 2892.375,50.5938 2891.9219,50.5938 L2886.7813,50.5938 C2886.3438,50.5938 2886.2188,50.6094 2886.0625,50.7031 C2885.8125,50.8594 2885.6563,51.1563 2885.6563,51.4375 C2885.6563,51.7188 2885.7969,51.9688 2886.0156,52.1406 C2886.1719,52.25 2886.3594,52.2813 2886.7813,52.2813 L2888.5,52.2813 L2888.5,58.7969 L2886.7813,58.7969 C2886.3438,58.7969 2886.2188,58.8125 2886.0625,58.9219 C2885.8125,59.0781 2885.6563,59.3594 2885.6563,59.6563 C2885.6563,59.9063 2885.7969,60.1719 2886.0156,60.3281 C2886.1719,60.4531 2886.375,60.5 2886.7813,60.5 L2891.9219,60.5 C2892.6719,60.5 2893.0313,60.2188 2893.0313,59.6563 C2893.0313,59.375 2892.9219,59.125 2892.6875,58.9531 C2892.5156,58.8281 2892.375,58.7969 2891.9219,58.7969 L2890.2031,58.7969 L2890.2031,52.2813 Z " fill="#000000"/><text fill="#000000" font-family="sans-serif" font-size="14" font-style="italic" lengthAdjust="spacing" textLength="53" x="2909.75" y="60.3467">WikiApi</text><line style="stroke:#181818;stroke-width:0.5;" x1="2689.5" x2="3150.5" y1="71.5" y2="71.5"/><line style="stroke:#181818;stroke-width:0.5;" x1="2689.5" x2="3150.5" y1="79.5" y2="79.5"/><ellipse cx="2699.5" cy="93.1484" fill="#84BE84" rx="3" ry="3" style="stroke:#038048;stroke-width:1.0;"/><text fill="#000000" font-family="sans-serif" font-size="14" lengthAdjust="spacing" textLength="437" x="2708.5" y="96.4951">search(query: String): CompletableFuture&lt;AppWikiResult[]&gt;</text></g><!--class WeatherApi--><g id="elem_WeatherApi"><rect codeLine="28" fill="#F1F1F1" height="80.5938" id="WeatherApi" rx="2.5" ry="2.5" style="stroke:#181818;stroke-width:0.5;" width="622" x="3262" y="31"/><ellipse cx="3526.75" cy="47" fill="#B4A7E5" rx="11" ry="11" style="stroke:#181818;stroke-width:1.0;"/><path d="M3527.7031,43.7813 L3529.4219,43.7813 C3529.8125,43.7813 3530,43.75 3530.125,43.6719 C3530.3906,43.5156 3530.5313,43.2344 3530.5313,42.9375 C3530.5313,42.6719 3530.4219,42.4063 3530.1875,42.2344 C3530.0156,42.125 3529.875,42.0938 3529.4219,42.0938 L3524.2813,42.0938 C3523.8438,42.0938 3523.7188,42.1094 3523.5625,42.2031 C3523.3125,42.3594 3523.1563,42.6563 3523.1563,42.9375 C3523.1563,43.2188 3523.2969,43.4688 3523.5156,43.6406 C3523.6719,43.75 3523.8594,43.7813 3524.2813,43.7813 L3526,43.7813 L3526,50.2969 L3524.2813,50.2969 C3523.8438,50.2969 3523.7188,50.3125 3523.5625,50.4219 C3523.3125,50.5781 3523.1563,50.8594 3523.1563,51.1563 C3523.1563,51.4063 3523.2969,51.6719 3523.5156,51.8281 C3523.6719,51.9531 3523.875,52 3524.2813,52 L3529.4219,52 C3530.1719,52 3530.5313,51.7188 3530.5313,51.1563 C3530.5313,50.875 3530.4219,50.625 3530.1875,50.4531 C3530.0156,50.3281 3529.875,50.2969 3529.4219,50.2969 L3527.7031,50.2969 L3527.7031,43.7813 Z " fill="#000000"/><text fill="#000000" font-family="sans-serif" font-size="14" font-style="italic" lengthAdjust="spacing" textLength="84" x="3547.25" y="51.8467">WeatherApi</text><line style="stroke:#181818;stroke-width:0.5;" x1="3263" x2="3883" y1="63" y2="63"/><line style="stroke:#181818;stroke-width:0.5;" x1="3263" x2="3883" y1="71" y2="71"/><ellipse cx="3273" cy="84.6484" fill="#84BE84" rx="3" ry="3" style="stroke:#038048;stroke-width:1.0;"/><text fill="#000000" font-family="sans-serif" font-size="14" lengthAdjust="spacing" textLength="541" x="3282" y="87.9951">getCurrentWeather(location: String): CompletableFuture&lt;WeatherResult&gt;</text><ellipse cx="3273" cy="100.9453" fill="#84BE84" rx="3" ry="3" style="stroke:#038048;stroke-width:1.0;"/><text fill="#000000" font-family="sans-serif" font-size="14" lengthAdjust="spacing" textLength="596" x="3282" y="104.292">getForecastWeather(location: String): CompletableFuture&lt;List&lt;WeatherResult&gt;&gt;</text></g><!--class JsonParser--><g id="elem_JsonParser"><rect codeLine="33" fill="#F1F1F1" height="64.2969" id="JsonParser" rx="2.5" ry="2.5" style="stroke:#181818;stroke-width:0.5;" width="318" x="3962" y="39.5"/><ellipse cx="4079.75" cy="55.5" fill="#B4A7E5" rx="11" ry="11" style="stroke:#181818;stroke-width:1.0;"/><path d="M4080.7031,52.2813 L4082.4219,52.2813 C4082.8125,52.2813 4083,52.25 4083.125,52.1719 C4083.3906,52.0156 4083.5313,51.7344 4083.5313,51.4375 C4083.5313,51.1719 4083.4219,50.9063 4083.1875,50.7344 C4083.0156,50.625 4082.875,50.5938 4082.4219,50.5938 L4077.2813,50.5938 C4076.8438,50.5938 4076.7188,50.6094 4076.5625,50.7031 C4076.3125,50.8594 4076.1563,51.1563 4076.1563,51.4375 C4076.1563,51.7188 4076.2969,51.9688 4076.5156,52.1406 C4076.6719,52.25 4076.8594,52.2813 4077.2813,52.2813 L4079,52.2813 L4079,58.7969 L4077.2813,58.7969 C4076.8438,58.7969 4076.7188,58.8125 4076.5625,58.9219 C4076.3125,59.0781 4076.1563,59.3594 4076.1563,59.6563 C4076.1563,59.9063 4076.2969,60.1719 4076.5156,60.3281 C4076.6719,60.4531 4076.875,60.5 4077.2813,60.5 L4082.4219,60.5 C4083.1719,60.5 4083.5313,60.2188 4083.5313,59.6563 C4083.5313,59.375 4083.4219,59.125 4083.1875,58.9531 C4083.0156,58.8281 4082.875,58.7969 4082.4219,58.7969 L4080.7031,58.7969 L4080.7031,52.2813 Z " fill="#000000"/><text fill="#000000" font-family="sans-serif" font-size="14" font-style="italic" lengthAdjust="spacing" textLength="74" x="4100.25" y="60.3467">JsonParser</text><line style="stroke:#181818;stroke-width:0.5;" x1="3963" x2="4279" y1="71.5" y2="71.5"/><line style="stroke:#181818;stroke-width:0.5;" x1="3963" x2="4279" y1="79.5" y2="79.5"/><ellipse cx="3973" cy="93.1484" fill="#84BE84" rx="3" ry="3" style="stroke:#038048;stroke-width:1.0;"/><text fill="#000000" font-family="sans-serif" font-size="14" lengthAdjust="spacing" textLength="292" x="3982" y="96.4951">fromJson(json: String, type: Class&lt;T&gt;): T</text></g><!--class AppWeatherResult--><g id="elem_AppWeatherResult"><rect codeLine="37" fill="#F1F1F1" height="243.5625" id="AppWeatherResult" rx="2.5" ry="2.5" style="stroke:#181818;stroke-width:0.5;" width="448" x="7" y="204"/><ellipse cx="158.25" cy="220" fill="#ADD1B2" rx="11" ry="11" style="stroke:#181818;stroke-width:1.0;"/><path d="M160.5938,215.6719 C159.6563,215.2344 159.0625,215.0938 158.1875,215.0938 C155.5625,215.0938 153.5625,217.1719 153.5625,219.8906 L153.5625,221.0156 C153.5625,223.5938 155.6719,225.4844 158.5625,225.4844 C159.7813,225.4844 160.9375,225.1875 161.6875,224.6406 C162.2656,224.2344 162.5938,223.7813 162.5938,223.3906 C162.5938,222.9375 162.2031,222.5469 161.7344,222.5469 C161.5156,222.5469 161.3125,222.625 161.125,222.8125 C160.6719,223.2969 160.6719,223.2969 160.4844,223.3906 C160.0625,223.6563 159.375,223.7813 158.6094,223.7813 C156.5625,223.7813 155.2656,222.6875 155.2656,220.9844 L155.2656,219.8906 C155.2656,218.1094 156.5156,216.7969 158.25,216.7969 C158.8281,216.7969 159.4375,216.9531 159.9063,217.2031 C160.3906,217.4844 160.5625,217.7031 160.6563,218.1094 C160.7188,218.5156 160.75,218.6406 160.8906,218.7656 C161.0313,218.9063 161.2656,219.0156 161.4844,219.0156 C161.75,219.0156 162.0156,218.875 162.1875,218.6563 C162.2969,218.5 162.3281,218.3125 162.3281,217.8906 L162.3281,216.4688 C162.3281,216.0313 162.3125,215.9063 162.2188,215.75 C162.0625,215.4844 161.7813,215.3438 161.4844,215.3438 C161.1875,215.3438 160.9844,215.4375 160.7656,215.75 L160.5938,215.6719 Z " fill="#000000"/><text fill="#000000" font-family="sans-serif" font-size="14" lengthAdjust="spacing" textLength="137" x="178.75" y="224.8467">AppWeatherResult</text><line style="stroke:#181818;stroke-width:0.5;" x1="8" x2="454" y1="236" y2="236"/><rect fill="none" height="6" style="stroke:#C82930;stroke-width:1.0;" width="6" x="15" y="246.6484"/><text fill="#000000" font-family="sans-serif" font-size="14" lengthAdjust="spacing" textLength="86" x="27" y="252.9951">date: String</text><rect fill="none" height="6" style="stroke:#C82930;stroke-width:1.0;" width="6" x="15" y="262.9453"/><text fill="#000000" font-family="sans-serif" font-size="14" lengthAdjust="spacing" textLength="182" x="27" y="269.292">weatherCondition: String</text><rect fill="none" height="6" style="stroke:#C82930;stroke-width:1.0;" width="6" x="15" y="279.2422"/><text fill="#000000" font-family="sans-serif" font-size="14" lengthAdjust="spacing" textLength="146" x="27" y="285.5889">temperature: String</text><rect fill="none" height="6" style="stroke:#C82930;stroke-width:1.0;" width="6" x="15" y="295.5391"/><text fill="#000000" font-family="sans-serif" font-size="14" lengthAdjust="spacing" textLength="116" x="27" y="301.8857">humidity: String</text><rect fill="none" height="6" style="stroke:#C82930;stroke-width:1.0;" width="6" x="15" y="311.8359"/><text fill="#000000" font-family="sans-serif" font-size="14" lengthAdjust="spacing" textLength="130" x="27" y="318.1826">windspeed: String</text><line style="stroke:#181818;stroke-width:0.5;" x1="8" x2="454" y1="325.4844" y2="325.4844"/><ellipse cx="18" cy="339.1328" fill="#84BE84" rx="3" ry="3" style="stroke:#038048;stroke-width:1.0;"/><text fill="#000000" font-family="sans-serif" font-size="14" lengthAdjust="spacing" textLength="422" x="27" y="342.4795">AppWeatherResult(date: String, weatherCondition: String,</text><text fill="#000000" font-family="sans-serif" font-size="14" lengthAdjust="spacing" textLength="413" x="27" y="358.7764">temperature: String, windspeed: String, humidity: String)</text><ellipse cx="18" cy="371.7266" fill="#84BE84" rx="3" ry="3" style="stroke:#038048;stroke-width:1.0;"/><text fill="#000000" font-family="sans-serif" font-size="14" lengthAdjust="spacing" textLength="123" x="27" y="375.0732">getDate(): String</text><ellipse cx="18" cy="388.0234" fill="#84BE84" rx="3" ry="3" style="stroke:#038048;stroke-width:1.0;"/><text fill="#000000" font-family="sans-serif" font-size="14" lengthAdjust="spacing" textLength="220" x="27" y="391.3701">getWeatherCondition(): String</text><ellipse cx="18" cy="404.3203" fill="#84BE84" rx="3" ry="3" style="stroke:#038048;stroke-width:1.0;"/><text fill="#000000" font-family="sans-serif" font-size="14" lengthAdjust="spacing" textLength="183" x="27" y="407.667">getTemperature(): String</text><ellipse cx="18" cy="420.6172" fill="#84BE84" rx="3" ry="3" style="stroke:#038048;stroke-width:1.0;"/><text fill="#000000" font-family="sans-serif" font-size="14" lengthAdjust="spacing" textLength="168" x="27" y="423.9639">getWindspeed(): String</text><ellipse cx="18" cy="436.9141" fill="#84BE84" rx="3" ry="3" style="stroke:#038048;stroke-width:1.0;"/><text fill="#000000" font-family="sans-serif" font-size="14" lengthAdjust="spacing" textLength="152" x="27" y="440.2607">getHumidity(): String</text></g><!--class JavaHttpWrapper--><g id="elem_JavaHttpWrapper"><rect codeLine="52" fill="#F1F1F1" height="113.1875" id="JavaHttpWrapper" rx="2.5" ry="2.5" style="stroke:#181818;stroke-width:0.5;" width="804" x="490" y="269.5"/><ellipse cx="825.25" cy="285.5" fill="#ADD1B2" rx="11" ry="11" style="stroke:#181818;stroke-width:1.0;"/><path d="M827.5938,281.1719 C826.6563,280.7344 826.0625,280.5938 825.1875,280.5938 C822.5625,280.5938 820.5625,282.6719 820.5625,285.3906 L820.5625,286.5156 C820.5625,289.0938 822.6719,290.9844 825.5625,290.9844 C826.7813,290.9844 827.9375,290.6875 828.6875,290.1406 C829.2656,289.7344 829.5938,289.2813 829.5938,288.8906 C829.5938,288.4375 829.2031,288.0469 828.7344,288.0469 C828.5156,288.0469 828.3125,288.125 828.125,288.3125 C827.6719,288.7969 827.6719,288.7969 827.4844,288.8906 C827.0625,289.1563 826.375,289.2813 825.6094,289.2813 C823.5625,289.2813 822.2656,288.1875 822.2656,286.4844 L822.2656,285.3906 C822.2656,283.6094 823.5156,282.2969 825.25,282.2969 C825.8281,282.2969 826.4375,282.4531 826.9063,282.7031 C827.3906,282.9844 827.5625,283.2031 827.6563,283.6094 C827.7188,284.0156 827.75,284.1406 827.8906,284.2656 C828.0313,284.4063 828.2656,284.5156 828.4844,284.5156 C828.75,284.5156 829.0156,284.375 829.1875,284.1563 C829.2969,284 829.3281,283.8125 829.3281,283.3906 L829.3281,281.9688 C829.3281,281.5313 829.3125,281.4063 829.2188,281.25 C829.0625,280.9844 828.7813,280.8438 828.4844,280.8438 C828.1875,280.8438 827.9844,280.9375 827.7656,281.25 L827.5938,281.1719 Z " fill="#000000"/><text fill="#000000" font-family="sans-serif" font-size="14" lengthAdjust="spacing" textLength="125" x="845.75" y="290.3467">JavaHttpWrapper</text><line style="stroke:#181818;stroke-width:0.5;" x1="491" x2="1293" y1="301.5" y2="301.5"/><rect fill="none" height="6" style="stroke:#C82930;stroke-width:1.0;" width="6" x="498" y="312.1484"/><text fill="#000000" font-family="sans-serif" font-size="14" lengthAdjust="spacing" textLength="263" x="510" y="318.4951">httpClient: java.net.http.HttpClient</text><line style="stroke:#181818;stroke-width:0.5;" x1="491" x2="1293" y1="325.7969" y2="325.7969"/><ellipse cx="501" cy="339.4453" fill="#84BE84" rx="3" ry="3" style="stroke:#038048;stroke-width:1.0;"/><text fill="#000000" font-family="sans-serif" font-size="14" lengthAdjust="spacing" textLength="135" x="510" y="342.792">JavaHttpWrapper()</text><ellipse cx="501" cy="355.7422" fill="#84BE84" rx="3" ry="3" style="stroke:#038048;stroke-width:1.0;"/><text fill="#000000" font-family="sans-serif" font-size="14" lengthAdjust="spacing" textLength="242" x="510" y="359.0889">sendAsync(request: HttpRequest,</text><text fill="#000000" font-family="sans-serif" font-size="14" lengthAdjust="spacing" textLength="778" x="510" y="375.3857">responseBodyHandler: HttpResponse.BodyHandler&lt;String&gt;): CompletableFuture&lt;HttpResponse&lt;String&gt;&gt;</text></g><!--class AppUserManager--><g id="elem_AppUserManager"><rect codeLine="59" fill="#F1F1F1" height="259.8594" id="AppUserManager" rx="2.5" ry="2.5" style="stroke:#181818;stroke-width:0.5;" width="863" x="1329.5" y="196"/><ellipse cx="1695.75" cy="212" fill="#ADD1B2" rx="11" ry="11" style="stroke:#181818;stroke-width:1.0;"/><path d="M1698.0938,207.6719 C1697.1563,207.2344 1696.5625,207.0938 1695.6875,207.0938 C1693.0625,207.0938 1691.0625,209.1719 1691.0625,211.8906 L1691.0625,213.0156 C1691.0625,215.5938 1693.1719,217.4844 1696.0625,217.4844 C1697.2813,217.4844 1698.4375,217.1875 1699.1875,216.6406 C1699.7656,216.2344 1700.0938,215.7813 1700.0938,215.3906 C1700.0938,214.9375 1699.7031,214.5469 1699.2344,214.5469 C1699.0156,214.5469 1698.8125,214.625 1698.625,214.8125 C1698.1719,215.2969 1698.1719,215.2969 1697.9844,215.3906 C1697.5625,215.6563 1696.875,215.7813 1696.1094,215.7813 C1694.0625,215.7813 1692.7656,214.6875 1692.7656,212.9844 L1692.7656,211.8906 C1692.7656,210.1094 1694.0156,208.7969 1695.75,208.7969 C1696.3281,208.7969 1696.9375,208.9531 1697.4063,209.2031 C1697.8906,209.4844 1698.0625,209.7031 1698.1563,210.1094 C1698.2188,210.5156 1698.25,210.6406 1698.3906,210.7656 C1698.5313,210.9063 1698.7656,211.0156 1698.9844,211.0156 C1699.25,211.0156 1699.5156,210.875 1699.6875,210.6563 C1699.7969,210.5 1699.8281,210.3125 1699.8281,209.8906 L1699.8281,208.4688 C1699.8281,208.0313 1699.8125,207.9063 1699.7188,207.75 C1699.5625,207.4844 1699.2813,207.3438 1698.9844,207.3438 C1698.6875,207.3438 1698.4844,207.4375 1698.2656,207.75 L1698.0938,207.6719 Z " fill="#000000"/><text fill="#000000" font-family="sans-serif" font-size="14" lengthAdjust="spacing" textLength="122" x="1716.25" y="216.8467">AppUserManager</text><line style="stroke:#181818;stroke-width:0.5;" x1="1330.5" x2="2191.5" y1="228" y2="228"/><rect fill="none" height="6" style="stroke:#C82930;stroke-width:1.0;" width="6" x="1337.5" y="238.6484"/><text fill="#000000" font-family="sans-serif" font-size="14" lengthAdjust="spacing" textLength="372" x="1349.5" y="244.9951">userDatabaseManager: UserEntityDatabaseManager</text><rect fill="none" height="6" style="stroke:#C82930;stroke-width:1.0;" width="6" x="1337.5" y="254.9453"/><text fill="#000000" font-family="sans-serif" font-size="14" lengthAdjust="spacing" textLength="249" x="1349.5" y="261.292">chatbotManager: ChatbotManager</text><rect fill="none" height="6" style="stroke:#C82930;stroke-width:1.0;" width="6" x="1337.5" y="271.2422"/><text fill="#000000" font-family="sans-serif" font-size="14" lengthAdjust="spacing" textLength="485" x="1349.5" y="277.5889">chatMessageDatabaseManager: AppChatMessageDatabaseManager</text><rect fill="none" height="6" style="stroke:#C82930;stroke-width:1.0;" width="6" x="1337.5" y="287.5391"/><text fill="#000000" font-family="sans-serif" font-size="14" lengthAdjust="spacing" textLength="167" x="1349.5" y="293.8857">printer: ConsolePrinter</text><rect fill="none" height="6" style="stroke:#C82930;stroke-width:1.0;" width="6" x="1337.5" y="303.8359"/><text fill="#000000" font-family="sans-serif" font-size="14" lengthAdjust="spacing" textLength="164" x="1349.5" y="310.1826">reader: ConsoleReader</text><rect fill="none" height="6" style="stroke:#C82930;stroke-width:1.0;" width="6" x="1337.5" y="320.1328"/><text fill="#000000" font-family="sans-serif" font-size="14" lengthAdjust="spacing" textLength="133" x="1349.5" y="326.4795">loggedInUser: User</text><line style="stroke:#181818;stroke-width:0.5;" x1="1330.5" x2="2191.5" y1="333.7813" y2="333.7813"/><ellipse cx="1340.5" cy="347.4297" fill="#84BE84" rx="3" ry="3" style="stroke:#038048;stroke-width:1.0;"/><text fill="#000000" font-family="sans-serif" font-size="14" lengthAdjust="spacing" textLength="760" x="1349.5" y="350.7764">AppUserManager(userDatabaseManager: UserEntityDatabaseManager, chatbotManager: ChatbotManager,</text><text fill="#000000" font-family="sans-serif" font-size="14" lengthAdjust="spacing" textLength="837" x="1349.5" y="367.0732">chatMessageDatabaseManager: AppChatMessageDatabaseManager, printer: ConsolePrinter, reader: ConsoleReader)</text><ellipse cx="1340.5" cy="380.0234" fill="#84BE84" rx="3" ry="3" style="stroke:#038048;stroke-width:1.0;"/><text fill="#000000" font-family="sans-serif" font-size="14" lengthAdjust="spacing" textLength="172" x="1349.5" y="383.3701">getLoggedInUser(): User</text><ellipse cx="1340.5" cy="396.3203" fill="#84BE84" rx="3" ry="3" style="stroke:#038048;stroke-width:1.0;"/><text fill="#000000" font-family="sans-serif" font-size="14" lengthAdjust="spacing" textLength="498" x="1349.5" y="399.667">login(username: String, password: String): CompletableFuture&lt;User&gt;</text><ellipse cx="1340.5" cy="412.6172" fill="#84BE84" rx="3" ry="3" style="stroke:#038048;stroke-width:1.0;"/><text fill="#000000" font-family="sans-serif" font-size="14" lengthAdjust="spacing" textLength="520" x="1349.5" y="415.9639">register(username: String, password: String): CompletableFuture&lt;User&gt;</text><rect fill="#F24D5C" height="6" style="stroke:#C82930;stroke-width:1.0;" width="6" x="1337.5" y="425.9141"/><text fill="#000000" font-family="sans-serif" font-size="14" lengthAdjust="spacing" textLength="472" x="1349.5" y="432.2607">onLogin(user: User, register: boolean): CompletableFuture&lt;Void&gt;</text><rect fill="#F24D5C" height="6" style="stroke:#C82930;stroke-width:1.0;" width="6" x="1337.5" y="442.2109"/><text fill="#000000" font-family="sans-serif" font-size="14" lengthAdjust="spacing" textLength="291" x="1349.5" y="448.5576">isBotMessage(message: String): boolean</text></g><!--class SnakeYamlParser--><g id="elem_SnakeYamlParser"><rect codeLine="75" fill="#F1F1F1" height="96.8906" id="SnakeYamlParser" rx="2.5" ry="2.5" style="stroke:#181818;stroke-width:0.5;" width="393" x="2227.5" y="277.5"/><ellipse cx="2357.75" cy="293.5" fill="#ADD1B2" rx="11" ry="11" style="stroke:#181818;stroke-width:1.0;"/><path d="M2360.0938,289.1719 C2359.1563,288.7344 2358.5625,288.5938 2357.6875,288.5938 C2355.0625,288.5938 2353.0625,290.6719 2353.0625,293.3906 L2353.0625,294.5156 C2353.0625,297.0938 2355.1719,298.9844 2358.0625,298.9844 C2359.2813,298.9844 2360.4375,298.6875 2361.1875,298.1406 C2361.7656,297.7344 2362.0938,297.2813 2362.0938,296.8906 C2362.0938,296.4375 2361.7031,296.0469 2361.2344,296.0469 C2361.0156,296.0469 2360.8125,296.125 2360.625,296.3125 C2360.1719,296.7969 2360.1719,296.7969 2359.9844,296.8906 C2359.5625,297.1563 2358.875,297.2813 2358.1094,297.2813 C2356.0625,297.2813 2354.7656,296.1875 2354.7656,294.4844 L2354.7656,293.3906 C2354.7656,291.6094 2356.0156,290.2969 2357.75,290.2969 C2358.3281,290.2969 2358.9375,290.4531 2359.4063,290.7031 C2359.8906,290.9844 2360.0625,291.2031 2360.1563,291.6094 C2360.2188,292.0156 2360.25,292.1406 2360.3906,292.2656 C2360.5313,292.4063 2360.7656,292.5156 2360.9844,292.5156 C2361.25,292.5156 2361.5156,292.375 2361.6875,292.1563 C2361.7969,292 2361.8281,291.8125 2361.8281,291.3906 L2361.8281,289.9688 C2361.8281,289.5313 2361.8125,289.4063 2361.7188,289.25 C2361.5625,288.9844 2361.2813,288.8438 2360.9844,288.8438 C2360.6875,288.8438 2360.4844,288.9375 2360.2656,289.25 L2360.0938,289.1719 Z " fill="#000000"/><text fill="#000000" font-family="sans-serif" font-size="14" lengthAdjust="spacing" textLength="124" x="2378.25" y="298.3467">SnakeYamlParser</text><line style="stroke:#181818;stroke-width:0.5;" x1="2228.5" x2="2619.5" y1="309.5" y2="309.5"/><rect fill="none" height="6" style="stroke:#C82930;stroke-width:1.0;" width="6" x="2235.5" y="320.1484"/><text fill="#000000" font-family="sans-serif" font-size="14" lengthAdjust="spacing" textLength="78" x="2247.5" y="326.4951">yaml: Yaml</text><line style="stroke:#181818;stroke-width:0.5;" x1="2228.5" x2="2619.5" y1="333.7969" y2="333.7969"/><ellipse cx="2238.5" cy="347.4453" fill="#84BE84" rx="3" ry="3" style="stroke:#038048;stroke-width:1.0;"/><text fill="#000000" font-family="sans-serif" font-size="14" lengthAdjust="spacing" textLength="134" x="2247.5" y="350.792">SnakeYamlParser()</text><ellipse cx="2238.5" cy="363.7422" fill="#84BE84" rx="3" ry="3" style="stroke:#038048;stroke-width:1.0;"/><text fill="#000000" font-family="sans-serif" font-size="14" lengthAdjust="spacing" textLength="367" x="2247.5" y="367.0889">load(inputStream: InputStream, type: Class&lt;T&gt;): T</text></g><!--class WikipediaWikiApi--><g id="elem_WikipediaWikiApi"><rect codeLine="81" fill="#F1F1F1" height="113.1875" id="WikipediaWikiApi" rx="2.5" ry="2.5" style="stroke:#181818;stroke-width:0.5;" width="529" x="2655.5" y="269.5"/><ellipse cx="2852.75" cy="285.5" fill="#ADD1B2" rx="11" ry="11" style="stroke:#181818;stroke-width:1.0;"/><path d="M2855.0938,281.1719 C2854.1563,280.7344 2853.5625,280.5938 2852.6875,280.5938 C2850.0625,280.5938 2848.0625,282.6719 2848.0625,285.3906 L2848.0625,286.5156 C2848.0625,289.0938 2850.1719,290.9844 2853.0625,290.9844 C2854.2813,290.9844 2855.4375,290.6875 2856.1875,290.1406 C2856.7656,289.7344 2857.0938,289.2813 2857.0938,288.8906 C2857.0938,288.4375 2856.7031,288.0469 2856.2344,288.0469 C2856.0156,288.0469 2855.8125,288.125 2855.625,288.3125 C2855.1719,288.7969 2855.1719,288.7969 2854.9844,288.8906 C2854.5625,289.1563 2853.875,289.2813 2853.1094,289.2813 C2851.0625,289.2813 2849.7656,288.1875 2849.7656,286.4844 L2849.7656,285.3906 C2849.7656,283.6094 2851.0156,282.2969 2852.75,282.2969 C2853.3281,282.2969 2853.9375,282.4531 2854.4063,282.7031 C2854.8906,282.9844 2855.0625,283.2031 2855.1563,283.6094 C2855.2188,284.0156 2855.25,284.1406 2855.3906,284.2656 C2855.5313,284.4063 2855.7656,284.5156 2855.9844,284.5156 C2856.25,284.5156 2856.5156,284.375 2856.6875,284.1563 C2856.7969,284 2856.8281,283.8125 2856.8281,283.3906 L2856.8281,281.9688 C2856.8281,281.5313 2856.8125,281.4063 2856.7188,281.25 C2856.5625,280.9844 2856.2813,280.8438 2855.9844,280.8438 C2855.6875,280.8438 2855.4844,280.9375 2855.2656,281.25 L2855.0938,281.1719 Z " fill="#000000"/><text fill="#000000" font-family="sans-serif" font-size="14" lengthAdjust="spacing" textLength="126" x="2873.25" y="290.3467">WikipediaWikiApi</text><line style="stroke:#181818;stroke-width:0.5;" x1="2656.5" x2="3183.5" y1="301.5" y2="301.5"/><rect fill="none" height="6" style="stroke:#C82930;stroke-width:1.0;" width="6" x="2663.5" y="312.1484"/><text fill="#000000" font-family="sans-serif" font-size="14" lengthAdjust="spacing" textLength="157" x="2675.5" y="318.4951">jsonParser: JsonParser</text><rect fill="none" height="6" style="stroke:#C82930;stroke-width:1.0;" width="6" x="2663.5" y="328.4453"/><text fill="#000000" font-family="sans-serif" font-size="14" lengthAdjust="spacing" textLength="202" x="2675.5" y="334.792">httpWrapper: HttpWrapper</text><line style="stroke:#181818;stroke-width:0.5;" x1="2656.5" x2="3183.5" y1="342.0938" y2="342.0938"/><ellipse cx="2666.5" cy="355.7422" fill="#84BE84" rx="3" ry="3" style="stroke:#038048;stroke-width:1.0;"/><text fill="#000000" font-family="sans-serif" font-size="14" lengthAdjust="spacing" textLength="503" x="2675.5" y="359.0889">WikipediaWikiApi(jsonParser: JsonParser, httpWrapper: HttpWrapper)</text><ellipse cx="2666.5" cy="372.0391" fill="#84BE84" rx="3" ry="3" style="stroke:#038048;stroke-width:1.0;"/><text fill="#000000" font-family="sans-serif" font-size="14" lengthAdjust="spacing" textLength="458" x="2675.5" y="375.3857">search(keyword: String): CompletableFuture&lt;AppWikiResult[]&gt;</text></g><!--class OpenWeatherApi--><g id="elem_OpenWeatherApi"><rect codeLine="88" fill="#F1F1F1" height="162.0781" id="OpenWeatherApi" rx="2.5" ry="2.5" style="stroke:#181818;stroke-width:0.5;" width="707" x="3219.5" y="245"/><ellipse cx="3506.25" cy="261" fill="#ADD1B2" rx="11" ry="11" style="stroke:#181818;stroke-width:1.0;"/><path d="M3508.5938,256.6719 C3507.6563,256.2344 3507.0625,256.0938 3506.1875,256.0938 C3503.5625,256.0938 3501.5625,258.1719 3501.5625,260.8906 L3501.5625,262.0156 C3501.5625,264.5938 3503.6719,266.4844 3506.5625,266.4844 C3507.7813,266.4844 3508.9375,266.1875 3509.6875,265.6406 C3510.2656,265.2344 3510.5938,264.7813 3510.5938,264.3906 C3510.5938,263.9375 3510.2031,263.5469 3509.7344,263.5469 C3509.5156,263.5469 3509.3125,263.625 3509.125,263.8125 C3508.6719,264.2969 3508.6719,264.2969 3508.4844,264.3906 C3508.0625,264.6563 3507.375,264.7813 3506.6094,264.7813 C3504.5625,264.7813 3503.2656,263.6875 3503.2656,261.9844 L3503.2656,260.8906 C3503.2656,259.1094 3504.5156,257.7969 3506.25,257.7969 C3506.8281,257.7969 3507.4375,257.9531 3507.9063,258.2031 C3508.3906,258.4844 3508.5625,258.7031 3508.6563,259.1094 C3508.7188,259.5156 3508.75,259.6406 3508.8906,259.7656 C3509.0313,259.9063 3509.2656,260.0156 3509.4844,260.0156 C3509.75,260.0156 3510.0156,259.875 3510.1875,259.6563 C3510.2969,259.5 3510.3281,259.3125 3510.3281,258.8906 L3510.3281,257.4688 C3510.3281,257.0313 3510.3125,256.9063 3510.2188,256.75 C3510.0625,256.4844 3509.7813,256.3438 3509.4844,256.3438 C3509.1875,256.3438 3508.9844,256.4375 3508.7656,256.75 L3508.5938,256.6719 Z " fill="#000000"/><text fill="#000000" font-family="sans-serif" font-size="14" lengthAdjust="spacing" textLength="125" x="3526.75" y="265.8467">OpenWeatherApi</text><line style="stroke:#181818;stroke-width:0.5;" x1="3220.5" x2="3925.5" y1="277" y2="277"/><rect fill="none" height="6" style="stroke:#C82930;stroke-width:1.0;" width="6" x="3227.5" y="287.6484"/><text fill="#000000" font-family="sans-serif" font-size="14" lengthAdjust="spacing" textLength="157" x="3239.5" y="293.9951">jsonParser: JsonParser</text><rect fill="none" height="6" style="stroke:#C82930;stroke-width:1.0;" width="6" x="3227.5" y="303.9453"/><text fill="#000000" font-family="sans-serif" font-size="14" lengthAdjust="spacing" textLength="202" x="3239.5" y="310.292">httpWrapper: HttpWrapper</text><rect fill="none" height="6" style="stroke:#C82930;stroke-width:1.0;" width="6" x="3227.5" y="320.2422"/><text fill="#000000" font-family="sans-serif" font-size="14" lengthAdjust="spacing" textLength="102" x="3239.5" y="326.5889">apiKey: String</text><rect fill="none" height="6" style="stroke:#C82930;stroke-width:1.0;" width="6" x="3227.5" y="336.5391"/><text fill="#000000" font-family="sans-serif" font-size="14" lengthAdjust="spacing" textLength="119" x="3239.5" y="342.8857">endpoint: String</text><line style="stroke:#181818;stroke-width:0.5;" x1="3220.5" x2="3925.5" y1="350.1875" y2="350.1875"/><ellipse cx="3230.5" cy="363.8359" fill="#84BE84" rx="3" ry="3" style="stroke:#038048;stroke-width:1.0;"/><text fill="#000000" font-family="sans-serif" font-size="14" lengthAdjust="spacing" textLength="681" x="3239.5" y="367.1826">OpenWeatherApi(jsonParser: JsonParser, httpWrapper: HttpWrapper, credentials: Credentials)</text><ellipse cx="3230.5" cy="380.1328" fill="#84BE84" rx="3" ry="3" style="stroke:#038048;stroke-width:1.0;"/><text fill="#000000" font-family="sans-serif" font-size="14" lengthAdjust="spacing" textLength="541" x="3239.5" y="383.4795">getCurrentWeather(location: String): CompletableFuture&lt;WeatherResult&gt;</text><ellipse cx="3230.5" cy="396.4297" fill="#84BE84" rx="3" ry="3" style="stroke:#038048;stroke-width:1.0;"/><text fill="#000000" font-family="sans-serif" font-size="14" lengthAdjust="spacing" textLength="596" x="3239.5" y="399.7764">getForecastWeather(location: String): CompletableFuture&lt;List&lt;WeatherResult&gt;&gt;</text></g><!--class GsonJsonParser--><g id="elem_GsonJsonParser"><rect codeLine="98" fill="#F1F1F1" height="96.8906" id="GsonJsonParser" rx="2.5" ry="2.5" style="stroke:#181818;stroke-width:0.5;" width="318" x="3962" y="277.5"/><ellipse cx="4061.75" cy="293.5" fill="#ADD1B2" rx="11" ry="11" style="stroke:#181818;stroke-width:1.0;"/><path d="M4064.0938,289.1719 C4063.1563,288.7344 4062.5625,288.5938 4061.6875,288.5938 C4059.0625,288.5938 4057.0625,290.6719 4057.0625,293.3906 L4057.0625,294.5156 C4057.0625,297.0938 4059.1719,298.9844 4062.0625,298.9844 C4063.2813,298.9844 4064.4375,298.6875 4065.1875,298.1406 C4065.7656,297.7344 4066.0938,297.2813 4066.0938,296.8906 C4066.0938,296.4375 4065.7031,296.0469 4065.2344,296.0469 C4065.0156,296.0469 4064.8125,296.125 4064.625,296.3125 C4064.1719,296.7969 4064.1719,296.7969 4063.9844,296.8906 C4063.5625,297.1563 4062.875,297.2813 4062.1094,297.2813 C4060.0625,297.2813 4058.7656,296.1875 4058.7656,294.4844 L4058.7656,293.3906 C4058.7656,291.6094 4060.0156,290.2969 4061.75,290.2969 C4062.3281,290.2969 4062.9375,290.4531 4063.4063,290.7031 C4063.8906,290.9844 4064.0625,291.2031 4064.1563,291.6094 C4064.2188,292.0156 4064.25,292.1406 4064.3906,292.2656 C4064.5313,292.4063 4064.7656,292.5156 4064.9844,292.5156 C4065.25,292.5156 4065.5156,292.375 4065.6875,292.1563 C4065.7969,292 4065.8281,291.8125 4065.8281,291.3906 L4065.8281,289.9688 C4065.8281,289.5313 4065.8125,289.4063 4065.7188,289.25 C4065.5625,288.9844 4065.2813,288.8438 4064.9844,288.8438 C4064.6875,288.8438 4064.4844,288.9375 4064.2656,289.25 L4064.0938,289.1719 Z " fill="#000000"/><text fill="#000000" font-family="sans-serif" font-size="14" lengthAdjust="spacing" textLength="110" x="4082.25" y="298.3467">GsonJsonParser</text><line style="stroke:#181818;stroke-width:0.5;" x1="3963" x2="4279" y1="309.5" y2="309.5"/><rect fill="none" height="6" style="stroke:#C82930;stroke-width:1.0;" width="6" x="3970" y="320.1484"/><text fill="#000000" font-family="sans-serif" font-size="14" lengthAdjust="spacing" textLength="79" x="3982" y="326.4951">gson: Gson</text><line style="stroke:#181818;stroke-width:0.5;" x1="3963" x2="4279" y1="333.7969" y2="333.7969"/><ellipse cx="3973" cy="347.4453" fill="#84BE84" rx="3" ry="3" style="stroke:#038048;stroke-width:1.0;"/><text fill="#000000" font-family="sans-serif" font-size="14" lengthAdjust="spacing" textLength="120" x="3982" y="350.792">GsonJsonParser()</text><ellipse cx="3973" cy="363.7422" fill="#84BE84" rx="3" ry="3" style="stroke:#038048;stroke-width:1.0;"/><text fill="#000000" font-family="sans-serif" font-size="14" lengthAdjust="spacing" textLength="292" x="3982" y="367.0889">fromJson(json: String, type: Class&lt;T&gt;): T</text></g><!--reverse link WeatherResult to AppWeatherResult--><g id="link_WeatherResult_AppWeatherResult"><path codeLine="104" d="M231,142.216 C231,162.816 231,180.387 231,203.731 " fill="none" id="WeatherResult-backto-AppWeatherResult" style="stroke:#181818;stroke-width:1.0;"/><polygon fill="#181818" points="231,136.216,227,145.216,231,141.216,235,145.216,231,136.216" style="stroke:#181818;stroke-width:1.0;"/></g><!--reverse link HttpWrapper to JavaHttpWrapper--><g id="link_HttpWrapper_JavaHttpWrapper"><path codeLine="105" d="M892,118.231 C892,160.451 892,221.544 892,269.089 " fill="none" id="HttpWrapper-backto-JavaHttpWrapper" style="stroke:#181818;stroke-width:1.0;"/><polygon fill="#181818" points="892,112.231,888,121.231,892,117.231,896,121.231,892,112.231" style="stroke:#181818;stroke-width:1.0;"/></g><!--reverse link UserManager to AppUserManager--><g id="link_UserManager_AppUserManager"><path codeLine="106" d="M1761,126.29 C1761,148.022 1761,168.893 1761,195.936 " fill="none" id="UserManager-backto-AppUserManager" style="stroke:#181818;stroke-width:1.0;"/><polygon fill="#181818" points="1761,120.29,1757,129.29,1761,125.29,1765,129.29,1761,120.29" style="stroke:#181818;stroke-width:1.0;"/></g><!--reverse link YamlParser to SnakeYamlParser--><g id="link_YamlParser_SnakeYamlParser"><path codeLine="107" d="M2424,109.715 C2424,153.125 2424,226.117 2424,277.037 " fill="none" id="YamlParser-backto-SnakeYamlParser" style="stroke:#181818;stroke-width:1.0;"/><polygon fill="#181818" points="2424,103.715,2420,112.715,2424,108.715,2428,112.715,2424,103.715" style="stroke:#181818;stroke-width:1.0;"/></g><!--reverse link WikiApi to WikipediaWikiApi--><g id="link_WikiApi_WikipediaWikiApi"><path codeLine="108" d="M2920,109.715 C2920,151.014 2920,218.518 2920,269.416 " fill="none" id="WikiApi-backto-WikipediaWikiApi" style="stroke:#181818;stroke-width:1.0;"/><polygon fill="#181818" points="2920,103.715,2916,112.715,2920,108.715,2924,112.715,2920,103.715" style="stroke:#181818;stroke-width:1.0;"/></g><!--reverse link WeatherApi to OpenWeatherApi--><g id="link_WeatherApi_OpenWeatherApi"><path codeLine="109" d="M3573,118.231 C3573,153.646 3573,200.562 3573,244.761 " fill="none" id="WeatherApi-backto-OpenWeatherApi" style="stroke:#181818;stroke-width:1.0;"/><polygon fill="#181818" points="3573,112.231,3569,121.231,3573,117.231,3577,121.231,3573,112.231" style="stroke:#181818;stroke-width:1.0;"/></g><!--reverse link JsonParser to GsonJsonParser--><g id="link_JsonParser_GsonJsonParser"><path codeLine="110" d="M4121,109.715 C4121,153.125 4121,226.117 4121,277.037 " fill="none" id="JsonParser-backto-GsonJsonParser" style="stroke:#181818;stroke-width:1.0;"/><polygon fill="#181818" points="4121,103.715,4117,112.715,4121,108.715,4125,112.715,4121,103.715" style="stroke:#181818;stroke-width:1.0;"/></g><!--SRC=[rLRDRjim3BxxANHqi3WFO0G1scnTshLOqNOhXc479UOSjRQaIVAAODYxZupiH5QI3kaktScWI7_aH_57GZemt_a2s3rmjmHp0xQf7FkLCFQc1FUMEqW7ERjrHiYoFMnDfqeMmWabTmpkeDPWk6lCdf-5BAm6A7OqiwOM2BWA5B-JH6mYd3cdxmtN2EtZio2B4xkIYzJ0ZmQiozSsDruO9io0rKfQE5N5QiPbKO7fJBnY56Z6tkS4lKzLhIjmV5x1MKCink5FdU6a7zud2-QAIrvsuI6bIrMMK9nBqX4j-fAgKgMGQOEIv3LqT8TCSskVb2cwaxsn4CY4K0oKmgBxVmFgaVZ2w-gQ6zjng1GlKY5run07U9spywqmP6wbqUcqGc_ZEyhSNH_kNZoA4osww-9ciKpnSipgsRXEjAOVVIb-_HQ5s5RV1XRJF6sC0TdLPLgf1QUwVDP9hzudBT2PCh3WzZYaIxo422uA-S8g6MRrkr4rdQKFTejzA9iBaXdbPAT3imBRC-YYx2dgp53djaqP7Y_Rhkl1T3qQTcWSGHew7x93hh4DztX6-zZ7aCMX35xD4F9tSC5_ydW8PKiyc5O2oozd3sWmak16T3YQRJI47VsS3bxB1DlKLpp0CXehc7i-vnPQXHzXxwJ354Kg-cEnv6wktCPusfCxYokm5kKTQ8nXUb1DFskpxYcY9wsguDhBfC9vL0IQcxL8YYeOmTi1tAUR7iTqo9xdYVVsOfeuklUJ7BAz50V_qQR1sr3oSXEG3v9uUV2SpHNoud8ln6SbYZM4iAUgIrvQ-s_WlCNOLlQjv8yGxRLiXNA-tdP4BpBnlVcYrUTTqlRIK0WUxh_iORC5yc0ZT3EadGjv-CoXC6AiT3yCJiy388DWzpx2wgztjM_xUbeVDSXe-xwCLCQr-02zbOE3K2j1GtGxZll-ZYQERMgWmF4hU6MHwLOOlEftWq_sUsGOlHkoSlrS80tvxLlueZtgPT5_K8opREULaOJhZWoYBPQ4EwC528wIeEr86_LPqhK7wU8wJu9A8ts_698WDQJjv-8F]--></g></svg>