<?xml version="1.0" encoding="us-ascii" standalone="no"?><svg xmlns="http://www.w3.org/2000/svg" xmlns:xlink="http://www.w3.org/1999/xlink" contentStyleType="text/css" height="268px" preserveAspectRatio="none" style="width:1619px;height:268px;background:#FFFFFF;" version="1.1" viewBox="0 0 1619 268" width="1619px" zoomAndPan="magnify"><defs/><g><!--class WikiResult--><g id="elem_WikiResult"><rect codeLine="1" fill="#F1F1F1" height="80.5938" id="WikiResult" rx="2.5" ry="2.5" style="stroke:#181818;stroke-width:0.5;" width="198" x="1093.5" y="7"/><ellipse cx="1151.25" cy="23" fill="#B4A7E5" rx="11" ry="11" style="stroke:#181818;stroke-width:1.0;"/><path d="M1152.2031,19.7813 L1153.9219,19.7813 C1154.3125,19.7813 1154.5,19.75 1154.625,19.6719 C1154.8906,19.5156 1155.0313,19.2344 1155.0313,18.9375 C1155.0313,18.6719 1154.9219,18.4063 1154.6875,18.2344 C1154.5156,18.125 1154.375,18.0938 1153.9219,18.0938 L1148.7813,18.0938 C1148.3438,18.0938 1148.2188,18.1094 1148.0625,18.2031 C1147.8125,18.3594 1147.6563,18.6563 1147.6563,18.9375 C1147.6563,19.2188 1147.7969,19.4688 1148.0156,19.6406 C1148.1719,19.75 1148.3594,19.7813 1148.7813,19.7813 L1150.5,19.7813 L1150.5,26.2969 L1148.7813,26.2969 C1148.3438,26.2969 1148.2188,26.3125 1148.0625,26.4219 C1147.8125,26.5781 1147.6563,26.8594 1147.6563,27.1563 C1147.6563,27.4063 1147.7969,27.6719 1148.0156,27.8281 C1148.1719,27.9531 1148.375,28 1148.7813,28 L1153.9219,28 C1154.6719,28 1155.0313,27.7188 1155.0313,27.1563 C1155.0313,26.875 1154.9219,26.625 1154.6875,26.4531 C1154.5156,26.3281 1154.375,26.2969 1153.9219,26.2969 L1152.2031,26.2969 L1152.2031,19.7813 Z " fill="#000000"/><text fill="#000000" font-family="sans-serif" font-size="14" font-style="italic" lengthAdjust="spacing" textLength="74" x="1171.75" y="27.8467">WikiResult</text><line style="stroke:#181818;stroke-width:0.5;" x1="1094.5" x2="1290.5" y1="39" y2="39"/><line style="stroke:#181818;stroke-width:0.5;" x1="1094.5" x2="1290.5" y1="47" y2="47"/><ellipse cx="1104.5" cy="60.6484" fill="#84BE84" rx="3" ry="3" style="stroke:#038048;stroke-width:1.0;"/><text fill="#000000" font-family="sans-serif" font-size="14" lengthAdjust="spacing" textLength="121" x="1113.5" y="63.9951">getTitle(): String</text><ellipse cx="1104.5" cy="76.9453" fill="#84BE84" rx="3" ry="3" style="stroke:#038048;stroke-width:1.0;"/><text fill="#000000" font-family="sans-serif" font-size="14" lengthAdjust="spacing" textLength="172" x="1113.5" y="80.292">getDescription(): String</text></g><!--class User--><g id="elem_User"><rect codeLine="6" fill="#F1F1F1" height="80.5938" id="User" rx="2.5" ry="2.5" style="stroke:#181818;stroke-width:0.5;" width="286" x="1326.5" y="7"/><ellipse cx="1449.25" cy="23" fill="#B4A7E5" rx="11" ry="11" style="stroke:#181818;stroke-width:1.0;"/><path d="M1450.2031,19.7813 L1451.9219,19.7813 C1452.3125,19.7813 1452.5,19.75 1452.625,19.6719 C1452.8906,19.5156 1453.0313,19.2344 1453.0313,18.9375 C1453.0313,18.6719 1452.9219,18.4063 1452.6875,18.2344 C1452.5156,18.125 1452.375,18.0938 1451.9219,18.0938 L1446.7813,18.0938 C1446.3438,18.0938 1446.2188,18.1094 1446.0625,18.2031 C1445.8125,18.3594 1445.6563,18.6563 1445.6563,18.9375 C1445.6563,19.2188 1445.7969,19.4688 1446.0156,19.6406 C1446.1719,19.75 1446.3594,19.7813 1446.7813,19.7813 L1448.5,19.7813 L1448.5,26.2969 L1446.7813,26.2969 C1446.3438,26.2969 1446.2188,26.3125 1446.0625,26.4219 C1445.8125,26.5781 1445.6563,26.8594 1445.6563,27.1563 C1445.6563,27.4063 1445.7969,27.6719 1446.0156,27.8281 C1446.1719,27.9531 1446.375,28 1446.7813,28 L1451.9219,28 C1452.6719,28 1453.0313,27.7188 1453.0313,27.1563 C1453.0313,26.875 1452.9219,26.625 1452.6875,26.4531 C1452.5156,26.3281 1452.375,26.2969 1451.9219,26.2969 L1450.2031,26.2969 L1450.2031,19.7813 Z " fill="#000000"/><text fill="#000000" font-family="sans-serif" font-size="14" font-style="italic" lengthAdjust="spacing" textLength="32" x="1469.75" y="27.8467">User</text><line style="stroke:#181818;stroke-width:0.5;" x1="1327.5" x2="1611.5" y1="39" y2="39"/><line style="stroke:#181818;stroke-width:0.5;" x1="1327.5" x2="1611.5" y1="47" y2="47"/><ellipse cx="1337.5" cy="60.6484" fill="#84BE84" rx="3" ry="3" style="stroke:#038048;stroke-width:1.0;"/><text fill="#000000" font-family="sans-serif" font-size="14" lengthAdjust="spacing" textLength="260" x="1346.5" y="63.9951">sendMessage(message: String): void</text><ellipse cx="1337.5" cy="76.9453" fill="#84BE84" rx="3" ry="3" style="stroke:#038048;stroke-width:1.0;"/><text fill="#000000" font-family="sans-serif" font-size="14" lengthAdjust="spacing" textLength="163" x="1346.5" y="80.292">getEntity(): UserEntity</text></g><!--class FreeFeserApp--><g id="elem_FreeFeserApp"><rect codeLine="11" fill="#F1F1F1" height="80.5938" id="FreeFeserApp" rx="2.5" ry="2.5" style="stroke:#181818;stroke-width:0.5;" width="361" x="113" y="7"/><ellipse cx="238.75" cy="23" fill="#ADD1B2" rx="11" ry="11" style="stroke:#181818;stroke-width:1.0;"/><path d="M241.0938,18.6719 C240.1563,18.2344 239.5625,18.0938 238.6875,18.0938 C236.0625,18.0938 234.0625,20.1719 234.0625,22.8906 L234.0625,24.0156 C234.0625,26.5938 236.1719,28.4844 239.0625,28.4844 C240.2813,28.4844 241.4375,28.1875 242.1875,27.6406 C242.7656,27.2344 243.0938,26.7813 243.0938,26.3906 C243.0938,25.9375 242.7031,25.5469 242.2344,25.5469 C242.0156,25.5469 241.8125,25.625 241.625,25.8125 C241.1719,26.2969 241.1719,26.2969 240.9844,26.3906 C240.5625,26.6563 239.875,26.7813 239.1094,26.7813 C237.0625,26.7813 235.7656,25.6875 235.7656,23.9844 L235.7656,22.8906 C235.7656,21.1094 237.0156,19.7969 238.75,19.7969 C239.3281,19.7969 239.9375,19.9531 240.4063,20.2031 C240.8906,20.4844 241.0625,20.7031 241.1563,21.1094 C241.2188,21.5156 241.25,21.6406 241.3906,21.7656 C241.5313,21.9063 241.7656,22.0156 241.9844,22.0156 C242.25,22.0156 242.5156,21.875 242.6875,21.6563 C242.7969,21.5 242.8281,21.3125 242.8281,20.8906 L242.8281,19.4688 C242.8281,19.0313 242.8125,18.9063 242.7188,18.75 C242.5625,18.4844 242.2813,18.3438 241.9844,18.3438 C241.6875,18.3438 241.4844,18.4375 241.2656,18.75 L241.0938,18.6719 Z " fill="#000000"/><text fill="#000000" font-family="sans-serif" font-size="14" lengthAdjust="spacing" textLength="101" x="259.25" y="27.8467">FreeFeserApp</text><line style="stroke:#181818;stroke-width:0.5;" x1="114" x2="473" y1="39" y2="39"/><line style="stroke:#181818;stroke-width:0.5;" x1="114" x2="473" y1="47" y2="47"/><ellipse cx="124" cy="60.6484" fill="#84BE84" rx="3" ry="3" style="stroke:#038048;stroke-width:1.0;"/><text fill="#000000" font-family="sans-serif" font-size="14" lengthAdjust="spacing" textLength="177" x="133" y="63.9951">main(args: String[]): void</text><rect fill="#F24D5C" height="6" style="stroke:#C82930;stroke-width:1.0;" width="6" x="121" y="73.9453"/><text fill="#000000" font-family="sans-serif" font-size="14" lengthAdjust="spacing" textLength="335" x="133" y="80.292">loadConfig(resourcePath: String): InputStream</text></g><!--class HibernateUtil--><g id="elem_HibernateUtil"><rect codeLine="16" fill="#F1F1F1" height="80.5938" id="HibernateUtil" rx="2.5" ry="2.5" style="stroke:#181818;stroke-width:0.5;" width="286" x="509.5" y="7"/><ellipse cx="600.25" cy="23" fill="#ADD1B2" rx="11" ry="11" style="stroke:#181818;stroke-width:1.0;"/><path d="M602.5938,18.6719 C601.6563,18.2344 601.0625,18.0938 600.1875,18.0938 C597.5625,18.0938 595.5625,20.1719 595.5625,22.8906 L595.5625,24.0156 C595.5625,26.5938 597.6719,28.4844 600.5625,28.4844 C601.7813,28.4844 602.9375,28.1875 603.6875,27.6406 C604.2656,27.2344 604.5938,26.7813 604.5938,26.3906 C604.5938,25.9375 604.2031,25.5469 603.7344,25.5469 C603.5156,25.5469 603.3125,25.625 603.125,25.8125 C602.6719,26.2969 602.6719,26.2969 602.4844,26.3906 C602.0625,26.6563 601.375,26.7813 600.6094,26.7813 C598.5625,26.7813 597.2656,25.6875 597.2656,23.9844 L597.2656,22.8906 C597.2656,21.1094 598.5156,19.7969 600.25,19.7969 C600.8281,19.7969 601.4375,19.9531 601.9063,20.2031 C602.3906,20.4844 602.5625,20.7031 602.6563,21.1094 C602.7188,21.5156 602.75,21.6406 602.8906,21.7656 C603.0313,21.9063 603.2656,22.0156 603.4844,22.0156 C603.75,22.0156 604.0156,21.875 604.1875,21.6563 C604.2969,21.5 604.3281,21.3125 604.3281,20.8906 L604.3281,19.4688 C604.3281,19.0313 604.3125,18.9063 604.2188,18.75 C604.0625,18.4844 603.7813,18.3438 603.4844,18.3438 C603.1875,18.3438 602.9844,18.4375 602.7656,18.75 L602.5938,18.6719 Z " fill="#000000"/><text fill="#000000" font-family="sans-serif" font-size="14" lengthAdjust="spacing" textLength="96" x="620.75" y="27.8467">HibernateUtil</text><line style="stroke:#181818;stroke-width:0.5;" x1="510.5" x2="794.5" y1="39" y2="39"/><line style="stroke:#181818;stroke-width:0.5;" x1="510.5" x2="794.5" y1="47" y2="47"/><ellipse cx="520.5" cy="60.6484" fill="#84BE84" rx="3" ry="3" style="stroke:#038048;stroke-width:1.0;"/><text fill="#000000" font-family="sans-serif" font-size="14" lengthAdjust="spacing" textLength="260" x="529.5" y="63.9951">getSessionFactory(): SessionFactory</text><ellipse cx="520.5" cy="76.9453" fill="#84BE84" rx="3" ry="3" style="stroke:#038048;stroke-width:1.0;"/><text fill="#000000" font-family="sans-serif" font-size="14" lengthAdjust="spacing" textLength="118" x="529.5" y="80.292">shutdown(): void</text></g><!--class Credentials--><g id="elem_Credentials"><rect codeLine="21" fill="#F1F1F1" height="80.5938" id="Credentials" rx="2.5" ry="2.5" style="stroke:#181818;stroke-width:0.5;" width="227" x="831" y="7"/><ellipse cx="899.25" cy="23" fill="#ADD1B2" rx="11" ry="11" style="stroke:#181818;stroke-width:1.0;"/><path d="M901.5938,18.6719 C900.6563,18.2344 900.0625,18.0938 899.1875,18.0938 C896.5625,18.0938 894.5625,20.1719 894.5625,22.8906 L894.5625,24.0156 C894.5625,26.5938 896.6719,28.4844 899.5625,28.4844 C900.7813,28.4844 901.9375,28.1875 902.6875,27.6406 C903.2656,27.2344 903.5938,26.7813 903.5938,26.3906 C903.5938,25.9375 903.2031,25.5469 902.7344,25.5469 C902.5156,25.5469 902.3125,25.625 902.125,25.8125 C901.6719,26.2969 901.6719,26.2969 901.4844,26.3906 C901.0625,26.6563 900.375,26.7813 899.6094,26.7813 C897.5625,26.7813 896.2656,25.6875 896.2656,23.9844 L896.2656,22.8906 C896.2656,21.1094 897.5156,19.7969 899.25,19.7969 C899.8281,19.7969 900.4375,19.9531 900.9063,20.2031 C901.3906,20.4844 901.5625,20.7031 901.6563,21.1094 C901.7188,21.5156 901.75,21.6406 901.8906,21.7656 C902.0313,21.9063 902.2656,22.0156 902.4844,22.0156 C902.75,22.0156 903.0156,21.875 903.1875,21.6563 C903.2969,21.5 903.3281,21.3125 903.3281,20.8906 L903.3281,19.4688 C903.3281,19.0313 903.3125,18.9063 903.2188,18.75 C903.0625,18.4844 902.7813,18.3438 902.4844,18.3438 C902.1875,18.3438 901.9844,18.4375 901.7656,18.75 L901.5938,18.6719 Z " fill="#000000"/><text fill="#000000" font-family="sans-serif" font-size="14" lengthAdjust="spacing" textLength="82" x="919.75" y="27.8467">Credentials</text><line style="stroke:#181818;stroke-width:0.5;" x1="832" x2="1057" y1="39" y2="39"/><line style="stroke:#181818;stroke-width:0.5;" x1="832" x2="1057" y1="47" y2="47"/><ellipse cx="842" cy="60.6484" fill="#84BE84" rx="3" ry="3" style="stroke:#038048;stroke-width:1.0;"/><text fill="#000000" font-family="sans-serif" font-size="14" lengthAdjust="spacing" textLength="182" x="851" y="63.9951">getDeeplApiKey(): String</text><ellipse cx="842" cy="76.9453" fill="#84BE84" rx="3" ry="3" style="stroke:#038048;stroke-width:1.0;"/><text fill="#000000" font-family="sans-serif" font-size="14" lengthAdjust="spacing" textLength="201" x="851" y="80.292">getWeatherApiKey(): String</text></g><!--class Utils--><g id="elem_Utils"><rect codeLine="26" fill="#F1F1F1" height="113.1875" id="Utils" rx="2.5" ry="2.5" style="stroke:#181818;stroke-width:0.5;" width="573" x="7" y="148"/><ellipse cx="273.75" cy="164" fill="#ADD1B2" rx="11" ry="11" style="stroke:#181818;stroke-width:1.0;"/><path d="M276.0938,159.6719 C275.1563,159.2344 274.5625,159.0938 273.6875,159.0938 C271.0625,159.0938 269.0625,161.1719 269.0625,163.8906 L269.0625,165.0156 C269.0625,167.5938 271.1719,169.4844 274.0625,169.4844 C275.2813,169.4844 276.4375,169.1875 277.1875,168.6406 C277.7656,168.2344 278.0938,167.7813 278.0938,167.3906 C278.0938,166.9375 277.7031,166.5469 277.2344,166.5469 C277.0156,166.5469 276.8125,166.625 276.625,166.8125 C276.1719,167.2969 276.1719,167.2969 275.9844,167.3906 C275.5625,167.6563 274.875,167.7813 274.1094,167.7813 C272.0625,167.7813 270.7656,166.6875 270.7656,164.9844 L270.7656,163.8906 C270.7656,162.1094 272.0156,160.7969 273.75,160.7969 C274.3281,160.7969 274.9375,160.9531 275.4063,161.2031 C275.8906,161.4844 276.0625,161.7031 276.1563,162.1094 C276.2188,162.5156 276.25,162.6406 276.3906,162.7656 C276.5313,162.9063 276.7656,163.0156 276.9844,163.0156 C277.25,163.0156 277.5156,162.875 277.6875,162.6563 C277.7969,162.5 277.8281,162.3125 277.8281,161.8906 L277.8281,160.4688 C277.8281,160.0313 277.8125,159.9063 277.7188,159.75 C277.5625,159.4844 277.2813,159.3438 276.9844,159.3438 C276.6875,159.3438 276.4844,159.4375 276.2656,159.75 L276.0938,159.6719 Z " fill="#000000"/><text fill="#000000" font-family="sans-serif" font-size="14" lengthAdjust="spacing" textLength="31" x="294.25" y="168.8467">Utils</text><line style="stroke:#181818;stroke-width:0.5;" x1="8" x2="579" y1="180" y2="180"/><line style="stroke:#181818;stroke-width:0.5;" x1="8" x2="579" y1="188" y2="188"/><ellipse cx="18" cy="201.6484" fill="#84BE84" rx="3" ry="3" style="stroke:#038048;stroke-width:1.0;"/><text fill="#000000" font-family="sans-serif" font-size="14" lengthAdjust="spacing" textLength="547" x="27" y="204.9951">isNotUserMessage(chatbotManager: ChatbotManager, text: String): boolean</text><ellipse cx="18" cy="217.9453" fill="#84BE84" rx="3" ry="3" style="stroke:#038048;stroke-width:1.0;"/><text fill="#000000" font-family="sans-serif" font-size="14" lengthAdjust="spacing" textLength="287" x="27" y="221.292">isSystemMessage(text: String): boolean</text><ellipse cx="18" cy="234.2422" fill="#84BE84" rx="3" ry="3" style="stroke:#038048;stroke-width:1.0;"/><text fill="#000000" font-family="sans-serif" font-size="14" lengthAdjust="spacing" textLength="284" x="27" y="237.5889">isHistoryMessage(text: String): boolean</text><ellipse cx="18" cy="250.5391" fill="#84BE84" rx="3" ry="3" style="stroke:#038048;stroke-width:1.0;"/><text fill="#000000" font-family="sans-serif" font-size="14" lengthAdjust="spacing" textLength="516" x="27" y="253.8857">isBotMessage(chatbotManager: ChatbotManager, text: String): boolean</text></g><!--class AppWikiResult--><g id="elem_AppWikiResult"><rect codeLine="33" fill="#F1F1F1" height="80.5938" id="AppWikiResult" rx="2.5" ry="2.5" style="stroke:#181818;stroke-width:0.5;" width="198" x="1093.5" y="164"/><ellipse cx="1135.5" cy="180" fill="#ADD1B2" rx="11" ry="11" style="stroke:#181818;stroke-width:1.0;"/><path d="M1137.8438,175.6719 C1136.9063,175.2344 1136.3125,175.0938 1135.4375,175.0938 C1132.8125,175.0938 1130.8125,177.1719 1130.8125,179.8906 L1130.8125,181.0156 C1130.8125,183.5938 1132.9219,185.4844 1135.8125,185.4844 C1137.0313,185.4844 1138.1875,185.1875 1138.9375,184.6406 C1139.5156,184.2344 1139.8438,183.7813 1139.8438,183.3906 C1139.8438,182.9375 1139.4531,182.5469 1138.9844,182.5469 C1138.7656,182.5469 1138.5625,182.625 1138.375,182.8125 C1137.9219,183.2969 1137.9219,183.2969 1137.7344,183.3906 C1137.3125,183.6563 1136.625,183.7813 1135.8594,183.7813 C1133.8125,183.7813 1132.5156,182.6875 1132.5156,180.9844 L1132.5156,179.8906 C1132.5156,178.1094 1133.7656,176.7969 1135.5,176.7969 C1136.0781,176.7969 1136.6875,176.9531 1137.1563,177.2031 C1137.6406,177.4844 1137.8125,177.7031 1137.9063,178.1094 C1137.9688,178.5156 1138,178.6406 1138.1406,178.7656 C1138.2813,178.9063 1138.5156,179.0156 1138.7344,179.0156 C1139,179.0156 1139.2656,178.875 1139.4375,178.6563 C1139.5469,178.5 1139.5781,178.3125 1139.5781,177.8906 L1139.5781,176.4688 C1139.5781,176.0313 1139.5625,175.9063 1139.4688,175.75 C1139.3125,175.4844 1139.0313,175.3438 1138.7344,175.3438 C1138.4375,175.3438 1138.2344,175.4375 1138.0156,175.75 L1137.8438,175.6719 Z " fill="#000000"/><text fill="#000000" font-family="sans-serif" font-size="14" lengthAdjust="spacing" textLength="106" x="1155.5" y="184.8467">AppWikiResult</text><line style="stroke:#181818;stroke-width:0.5;" x1="1094.5" x2="1290.5" y1="196" y2="196"/><line style="stroke:#181818;stroke-width:0.5;" x1="1094.5" x2="1290.5" y1="204" y2="204"/><ellipse cx="1104.5" cy="217.6484" fill="#84BE84" rx="3" ry="3" style="stroke:#038048;stroke-width:1.0;"/><text fill="#000000" font-family="sans-serif" font-size="14" lengthAdjust="spacing" textLength="121" x="1113.5" y="220.9951">getTitle(): String</text><ellipse cx="1104.5" cy="233.9453" fill="#84BE84" rx="3" ry="3" style="stroke:#038048;stroke-width:1.0;"/><text fill="#000000" font-family="sans-serif" font-size="14" lengthAdjust="spacing" textLength="172" x="1113.5" y="237.292">getDescription(): String</text></g><!--class AppUser--><g id="elem_AppUser"><rect codeLine="38" fill="#F1F1F1" height="80.5938" id="AppUser" rx="2.5" ry="2.5" style="stroke:#181818;stroke-width:0.5;" width="286" x="1326.5" y="164"/><ellipse cx="1434.75" cy="180" fill="#ADD1B2" rx="11" ry="11" style="stroke:#181818;stroke-width:1.0;"/><path d="M1437.0938,175.6719 C1436.1563,175.2344 1435.5625,175.0938 1434.6875,175.0938 C1432.0625,175.0938 1430.0625,177.1719 1430.0625,179.8906 L1430.0625,181.0156 C1430.0625,183.5938 1432.1719,185.4844 1435.0625,185.4844 C1436.2813,185.4844 1437.4375,185.1875 1438.1875,184.6406 C1438.7656,184.2344 1439.0938,183.7813 1439.0938,183.3906 C1439.0938,182.9375 1438.7031,182.5469 1438.2344,182.5469 C1438.0156,182.5469 1437.8125,182.625 1437.625,182.8125 C1437.1719,183.2969 1437.1719,183.2969 1436.9844,183.3906 C1436.5625,183.6563 1435.875,183.7813 1435.1094,183.7813 C1433.0625,183.7813 1431.7656,182.6875 1431.7656,180.9844 L1431.7656,179.8906 C1431.7656,178.1094 1433.0156,176.7969 1434.75,176.7969 C1435.3281,176.7969 1435.9375,176.9531 1436.4063,177.2031 C1436.8906,177.4844 1437.0625,177.7031 1437.1563,178.1094 C1437.2188,178.5156 1437.25,178.6406 1437.3906,178.7656 C1437.5313,178.9063 1437.7656,179.0156 1437.9844,179.0156 C1438.25,179.0156 1438.5156,178.875 1438.6875,178.6563 C1438.7969,178.5 1438.8281,178.3125 1438.8281,177.8906 L1438.8281,176.4688 C1438.8281,176.0313 1438.8125,175.9063 1438.7188,175.75 C1438.5625,175.4844 1438.2813,175.3438 1437.9844,175.3438 C1437.6875,175.3438 1437.4844,175.4375 1437.2656,175.75 L1437.0938,175.6719 Z " fill="#000000"/><text fill="#000000" font-family="sans-serif" font-size="14" lengthAdjust="spacing" textLength="61" x="1455.25" y="184.8467">AppUser</text><line style="stroke:#181818;stroke-width:0.5;" x1="1327.5" x2="1611.5" y1="196" y2="196"/><line style="stroke:#181818;stroke-width:0.5;" x1="1327.5" x2="1611.5" y1="204" y2="204"/><ellipse cx="1337.5" cy="217.6484" fill="#84BE84" rx="3" ry="3" style="stroke:#038048;stroke-width:1.0;"/><text fill="#000000" font-family="sans-serif" font-size="14" lengthAdjust="spacing" textLength="260" x="1346.5" y="220.9951">sendMessage(message: String): void</text><ellipse cx="1337.5" cy="233.9453" fill="#84BE84" rx="3" ry="3" style="stroke:#038048;stroke-width:1.0;"/><text fill="#000000" font-family="sans-serif" font-size="14" lengthAdjust="spacing" textLength="163" x="1346.5" y="237.292">getEntity(): UserEntity</text></g><!--class DummyTest--><g id="elem_DummyTest"><rect codeLine="43" fill="#F1F1F1" height="64.2969" id="DummyTest" rx="2.5" ry="2.5" style="stroke:#181818;stroke-width:0.5;" width="160" x="615.5" y="172.5"/><ellipse cx="648.95" cy="188.5" fill="#ADD1B2" rx="11" ry="11" style="stroke:#181818;stroke-width:1.0;"/><path d="M651.2938,184.1719 C650.3563,183.7344 649.7625,183.5938 648.8875,183.5938 C646.2625,183.5938 644.2625,185.6719 644.2625,188.3906 L644.2625,189.5156 C644.2625,192.0938 646.3719,193.9844 649.2625,193.9844 C650.4813,193.9844 651.6375,193.6875 652.3875,193.1406 C652.9656,192.7344 653.2938,192.2813 653.2938,191.8906 C653.2938,191.4375 652.9031,191.0469 652.4344,191.0469 C652.2156,191.0469 652.0125,191.125 651.825,191.3125 C651.3719,191.7969 651.3719,191.7969 651.1844,191.8906 C650.7625,192.1563 650.075,192.2813 649.3094,192.2813 C647.2625,192.2813 645.9656,191.1875 645.9656,189.4844 L645.9656,188.3906 C645.9656,186.6094 647.2156,185.2969 648.95,185.2969 C649.5281,185.2969 650.1375,185.4531 650.6063,185.7031 C651.0906,185.9844 651.2625,186.2031 651.3563,186.6094 C651.4188,187.0156 651.45,187.1406 651.5906,187.2656 C651.7313,187.4063 651.9656,187.5156 652.1844,187.5156 C652.45,187.5156 652.7156,187.375 652.8875,187.1563 C652.9969,187 653.0281,186.8125 653.0281,186.3906 L653.0281,184.9688 C653.0281,184.5313 653.0125,184.4063 652.9188,184.25 C652.7625,183.9844 652.4813,183.8438 652.1844,183.8438 C651.8875,183.8438 651.6844,183.9375 651.4656,184.25 L651.2938,184.1719 Z " fill="#000000"/><text fill="#000000" font-family="sans-serif" font-size="14" lengthAdjust="spacing" textLength="87" x="667.05" y="193.3467">DummyTest</text><line style="stroke:#181818;stroke-width:0.5;" x1="616.5" x2="774.5" y1="204.5" y2="204.5"/><line style="stroke:#181818;stroke-width:0.5;" x1="616.5" x2="774.5" y1="212.5" y2="212.5"/><ellipse cx="626.5" cy="226.1484" fill="#84BE84" rx="3" ry="3" style="stroke:#038048;stroke-width:1.0;"/><text fill="#000000" font-family="sans-serif" font-size="14" lengthAdjust="spacing" textLength="134" x="635.5" y="229.4951">testDummy(): void</text></g><!--reverse link WikiResult to AppWikiResult--><g id="link_WikiResult_AppWikiResult"><path codeLine="47" d="M1192.5,94.014 C1192.5,117.244 1192.5,140.524 1192.5,163.7889 " fill="none" id="WikiResult-backto-AppWikiResult" style="stroke:#181818;stroke-width:1.0;stroke-dasharray:7.0,7.0;"/><polygon fill="#181818" points="1192.5,88.014,1188.5,97.014,1192.5,93.014,1196.5,97.014,1192.5,88.014" style="stroke:#181818;stroke-width:1.0;"/></g><!--reverse link User to AppUser--><g id="link_User_AppUser"><path codeLine="48" d="M1469.5,94.014 C1469.5,117.244 1469.5,140.524 1469.5,163.7889 " fill="none" id="User-backto-AppUser" style="stroke:#181818;stroke-width:1.0;stroke-dasharray:7.0,7.0;"/><polygon fill="#181818" points="1469.5,88.014,1465.5,97.014,1469.5,93.014,1473.5,97.014,1469.5,88.014" style="stroke:#181818;stroke-width:1.0;"/></g><!--SRC=[jPB1JiCm38RlVOeSYu0zmCHbR4n3Q0YnJJiW3bbhEeiqgM8Ng13lJj8j8KC88G6zjBQJh___owWPx8CiGApn4M-1MiNYDHFkEQw0byWAygEXMB15NSN-1AYms30QdKpViWmZRqLW0ub0btCWaXNazUuTBhdRJmRBIBxGZDnvg0ViAWykb2GIKmim1JSODKs0rn9rBcr50Nbtdq9FbP7bsEW7h78BP5fRm8taRIBWKZSjkmfa_V6h6Mx0QicmObH990kdtzcUoeADxOKUTlQEjosNvhbFfvSIkMCB9JXRKb52dG0qQjJW5NHVnBq69zYR_ZIFKAynuf2k3VlqGkJ5LlB6y5ngLzcX61_K9uBXXPCuDiOea3h05Xqnr87r_TaPai_WPuVFdOJVAOp-tJhypVv6tB-ixwIjwsu952KwOyHzDrsKnChPO71eBkk5xTl- -nq0]--></g></svg>